<?xml version="1.0" encoding="iso-8859-1"?>
<!-- Generator: Adobe Illustrator 19.0.0, SVG Export Plug-In . SVG Version: 6.00 Build 0)  -->
<svg version="1.1" id="Capa_1" xmlns="http://www.w3.org/2000/svg" xmlns:xlink="http://www.w3.org/1999/xlink" x="0px" y="0px"
	 viewBox="0 0 512 512" style="enable-background:new 0 0 512 512;" xml:space="preserve">
<path style="fill:#FF5C7D;" d="M115.17,153.505l-12.861-3.896l-5.273,12.349c-0.674,1.582-16.567,39.141-22.163,88.931
	l104.868,26.089l19.438-82.163C156.845,166.308,116.854,154.018,115.17,153.505z"/>
<path style="fill:#FF2B67;" d="M416.752,161.957l-5.288-12.349l-12.861,3.896c-1.714,0.513-42.554,13.066-85.386,42.246
	l50.815,81.24l74.78-26.675C433.188,200.819,417.411,163.524,416.752,161.957z"/>
<path style="fill:#FF7C96;" d="M175.551,282.074C130.521,245.907,72.861,226,15,226H0v15c0,140.61,115.39,255,256,255
	L175.551,282.074z"/>
<path style="fill:#FF5C7D;" d="M497,226c-57.861,0-115.521,19.907-160.551,56.074L256,496c140.61,0,256-114.39,256-255v-15H497z"/>
<g>
	<rect x="91" y="76" style="fill:#FF7C96;" width="30" height="30"/>
	<rect x="241" y="16" style="fill:#FF7C96;" width="30" height="30"/>
</g>
<g>
	<rect x="391" y="76" style="fill:#FF5C7D;" width="30" height="30"/>
	<rect x="482" y="166" style="fill:#FF5C7D;" width="30" height="30"/>
</g>
<rect y="166" style="fill:#FF7C96;" width="30" height="30"/>
<rect x="256" y="16" style="fill:#FF5C7D;" width="15" height="30"/>
<path style="fill:#FF9AAE;" d="M265.901,109.9l-9.901-9l-9.901,9C242.199,113.2,151,196,151,301c0,105.3,91.5,182.401,95.4,185.4
	l9.6,8.101l9.6-8.101c3.9-2.999,95.4-80.1,95.4-185.4C361,196,269.801,113.2,265.901,109.9z"/>
<path style="fill:#FF7C96;" d="M361,301c0,105.3-91.5,182.401-95.4,185.4l-9.6,8.1V100.9l9.901,9C269.801,113.2,361,196,361,301z"/>
<g>
</g>
<g>
</g>
<g>
</g>
<g>
</g>
<g>
</g>
<g>
</g>
<g>
</g>
<g>
</g>
<g>
</g>
<g>
</g>
<g>
</g>
<g>
</g>
<g>
</g>
<g>
</g>
<g>
</g>
</svg>
