<?xml version="1.0" encoding="iso-8859-1"?>
<!-- Generator: Adobe Illustrator 19.0.0, SVG Export Plug-In . SVG Version: 6.00 Build 0)  -->
<svg version="1.1" id="Capa_1" xmlns="http://www.w3.org/2000/svg" xmlns:xlink="http://www.w3.org/1999/xlink" x="0px" y="0px"
	 viewBox="0 0 512 512" style="enable-background:new 0 0 512 512;" xml:space="preserve">
<path style="fill:#FFD400;" d="M406,151c-24.6,0-46.199,12.001-60,30.601V61h-60V0h-60v61h-60v120.601
	C152.199,163.001,130.6,151,106,151H39.699L65.5,176.499c16.2,16.502,25.5,40.002,25.5,62.8V347c0,46.5,19.799,90.901,54,122.1
	C175.901,497,214.6,512,255.7,512h0.3c5.4,0,10.8-0.3,16.199-0.901C355.6,503.301,421,428.301,421,340.699v-101.4
	c0-22.798,9.3-46.298,25.499-62.8L472.301,151H406z"/>
<path style="fill:#FDBF00;" d="M472.301,151L446.5,176.499c-16.2,16.502-25.5,40.002-25.5,62.8v101.4
	c0,87.601-65.4,162.601-148.801,170.4C266.8,511.7,261.4,512,256,512V0h30v61h60v120.601c13.801-18.6,35.4-30.601,60-30.601H472.301
	z"/>
<path style="fill:#ECECF1;" d="M358.599,338.599C356.499,335.9,313.001,272,256,272s-100.499,63.9-102.599,66.599l-5.4,8.401
	l5.4,8.401C155.501,358.1,198.999,422,256,422s100.499-63.9,102.599-66.599l5.4-8.401L358.599,338.599z"/>
<path style="fill:#E2E2E7;" d="M363.999,347l-5.4,8.401C356.499,358.1,313.001,422,256,422V272
	c57.001,0,100.499,63.9,102.599,66.599L363.999,347z"/>
<path style="fill:#725D57;" d="M256,317c-16.5,0-30,13.5-30,30s13.5,30,30,30s30-13.5,30-30S272.5,317,256,317z"/>
<rect x="91" y="91" style="fill:#FF7C96;" width="30" height="30"/>
<rect x="391" y="91" style="fill:#FF5C7D;" width="30" height="30"/>
<path style="fill:#68544F;" d="M286,347c0,16.5-13.5,30-30,30v-60C272.5,317,286,330.5,286,347z"/>
<g>
</g>
<g>
</g>
<g>
</g>
<g>
</g>
<g>
</g>
<g>
</g>
<g>
</g>
<g>
</g>
<g>
</g>
<g>
</g>
<g>
</g>
<g>
</g>
<g>
</g>
<g>
</g>
<g>
</g>
</svg>
