<?xml version="1.0" encoding="iso-8859-1"?>
<!-- Generator: Adobe Illustrator 19.0.0, SVG Export Plug-In . SVG Version: 6.00 Build 0)  -->
<svg version="1.1" id="Capa_1" xmlns="http://www.w3.org/2000/svg" xmlns:xlink="http://www.w3.org/1999/xlink" x="0px" y="0px"
	 viewBox="0 0 512 512" style="enable-background:new 0 0 512 512;" xml:space="preserve">
<path style="fill:#725D57;" d="M256,0C115.3,0,0,115.3,0,256s115.3,256,256,256s256-115.3,256-256S396.7,0,256,0z"/>
<path style="fill:#68544F;" d="M512,256c0,140.7-115.3,256-256,256V0C396.7,0,512,115.3,512,256z"/>
<g>
	<path style="fill:#FFE470;" d="M421,211v120c0,32.999-27.001,60-60,60s-60-27.001-60-60v-15h30v15c0,16.5,13.5,30,30,30
		s30-13.5,30-30V211c0-16.5-13.5-30-30-30s-30,13.5-30,30v60H225.7c9.3,12.599,15.3,28.2,15.3,45c0,41.4-33.6,75-75,75
		s-75-33.6-75-75h30c0,24.899,20.099,45,45,45s45-20.101,45-45c0-24.901-20.099-45-45-45v-30c24.901,0,45-20.101,45-45
		c0-24.901-20.099-45-45-45s-45,20.099-45,45H91c0-41.4,33.6-75,75-75s75,33.6,75,75c0,16.8-6,32.399-15.3,45H301v-30
		c0-33.001,27.001-60,60-60S421,177.999,421,211z"/>
	<path style="fill:#FFE470;" d="M339.101,129.099C325,143.2,306.099,151,286,151c-10.499,0-20.7-2.1-30-6.301
		c-8.401-3.6-16.5-9-23.101-15.601C218.8,115,211,96.099,211,76h30c0,11.999,4.799,23.399,13.2,31.8
		c0.601,0.599,1.199,1.199,1.8,1.5c17.1,15.601,45.3,15,61.8-1.5L339.101,129.099z"/>
</g>
<g>
	<rect x="271" y="61" style="fill:#FFD400;" width="30" height="30"/>
	<path style="fill:#FFD400;" d="M421,211v120c0,32.999-27.001,60-60,60s-60-27.001-60-60v-15h30v15c0,16.5,13.5,30,30,30
		s30-13.5,30-30V211c0-16.5-13.5-30-30-30s-30,13.5-30,30v60h-75v-30h45v-30c0-33.001,27.001-60,60-60S421,177.999,421,211z"/>
	<path style="fill:#FFD400;" d="M339.101,129.099C325,143.2,306.099,151,286,151c-10.499,0-20.7-2.1-30-6.301v-35.4
		c17.1,15.601,45.3,15,61.8-1.5L339.101,129.099z"/>
</g>
<g>
</g>
<g>
</g>
<g>
</g>
<g>
</g>
<g>
</g>
<g>
</g>
<g>
</g>
<g>
</g>
<g>
</g>
<g>
</g>
<g>
</g>
<g>
</g>
<g>
</g>
<g>
</g>
<g>
</g>
</svg>
