<?xml version="1.0" encoding="iso-8859-1"?>
<!-- Generator: Adobe Illustrator 19.0.0, SVG Export Plug-In . SVG Version: 6.00 Build 0)  -->
<svg version="1.1" id="Capa_1" xmlns="http://www.w3.org/2000/svg" xmlns:xlink="http://www.w3.org/1999/xlink" x="0px" y="0px"
	 viewBox="0 0 512.001 512.001" style="enable-background:new 0 0 512.001 512.001;" xml:space="preserve">
<polygon style="fill:#FF7816;" points="75.18,117.481 14.96,77.33 44.96,47.33 15.18,27.481 31.821,2.52 92.04,42.672 62.04,72.672 
	91.821,92.52 "/>
<path style="fill:#FED2A4;" d="M457.6,189.899C447.401,83.7,357.701-0.299,248.5,0.001c-10.201,0-20.099,0.599-30.3,2.1
	c-88.799,12.599-161.4,82.5-176.4,170.7c-11.7,68.099,8.701,135,56.4,183.9c19.501,19.799,30.3,45.899,30.3,73.198V512h210v-62h90
	V330h64.2C490.601,322.201,464.2,217.201,457.6,189.899z"/>
<path style="fill:#FFBD86;" d="M492.701,330.001h-64.2v120h-90v62h-90v-512c109.2-0.3,198.9,83.699,209.099,189.899
	C464.2,217.201,490.601,322.201,492.701,330.001z"/>
<path style="fill:#68544F;" d="M248.5,60.001c-24.901,0-45,20.099-45,45c0,24.899,20.099,45,45,45s45-20.101,45-45
	C293.5,80.1,273.401,60.001,248.5,60.001z M248.5,120.001c-8.401,0-15-6.601-15-15c0-8.401,6.599-15,15-15s15,6.599,15,15
	C263.5,113.4,256.901,120.001,248.5,120.001z"/>
<polygon style="fill:#FF4B00;" points="436.821,117.481 420.18,92.52 449.96,72.672 419.96,42.672 480.18,2.52 496.821,27.481 
	467.04,47.33 497.04,77.33 "/>
<path style="fill:#53433F;" d="M293.5,105.001c0,24.899-20.099,45-45,45v-30c8.401,0,15-6.601,15-15c0-8.401-6.599-15-15-15v-30
	C273.401,60.001,293.5,80.1,293.5,105.001z"/>
<path style="fill:#725D57;" d="M335.8,120.001H161.201l-36,180H371.8L335.8,120.001z"/>
<polygon style="fill:#68544F;" points="371.8,300.001 248.5,300.001 248.5,120.001 335.8,120.001 "/>
<g>
</g>
<g>
</g>
<g>
</g>
<g>
</g>
<g>
</g>
<g>
</g>
<g>
</g>
<g>
</g>
<g>
</g>
<g>
</g>
<g>
</g>
<g>
</g>
<g>
</g>
<g>
</g>
<g>
</g>
</svg>
