<?xml version="1.0" encoding="iso-8859-1"?>
<!-- Generator: Adobe Illustrator 19.0.0, SVG Export Plug-In . SVG Version: 6.00 Build 0)  -->
<svg version="1.1" id="Capa_1" xmlns="http://www.w3.org/2000/svg" xmlns:xlink="http://www.w3.org/1999/xlink" x="0px" y="0px"
	 viewBox="0 0 512 512" style="enable-background:new 0 0 512 512;" xml:space="preserve">
<polygon style="fill:#D3D3D8;" points="367.599,360.5 154.6,467 141.099,440.3 177.7,422 354.401,333.5 "/>
<path style="fill:#725D57;" d="M313.9,512l-12.9-7.2l-12.9-7.5c6.599-11.4,10.499-18.001,12.9-27.001
	c3.3-13.801,2.701-25.8,0-36.899c-2.999-12.001-8.401-22.8-14.099-34.501c-15.3-30.3-32.701-65.099,1.5-116.4L301,290.9
	l12.599,8.099C307.301,308.599,303.1,317,301,324.5c-3.3,11.4-2.999,21.599,0,31.5c2.701,9.6,7.2,19.2,12.599,29.7
	C329.2,416.6,348.401,451.7,313.9,512z"/>
<polygon style="fill:#BABAC0;" points="244.6,422 154.6,467 141.099,440.3 177.7,422 "/>
<g>
	<path style="fill:#68544F;" d="M313.599,298.999C307.301,308.599,303.1,317,301,324.5v-33.6L313.599,298.999z"/>
	<path style="fill:#68544F;" d="M313.9,512l-12.9-7.2V356c2.701,9.6,7.2,19.2,12.599,29.7C329.2,416.6,348.401,451.7,313.9,512z"/>
</g>
<path style="fill:#FF7816;" d="M301,0c-74.399,0-135,60.599-135,135c0,74.7,60.3,167,135,167s135-92.3,135-167
	C436,60.599,375.399,0,301,0z"/>
<path style="fill:#FF4B00;" d="M436,135c0,74.7-60.3,167-135,167V0C375.399,0,436,60.599,436,135z"/>
<path style="fill:#18DBDB;" d="M121,512c-24.814,0-45-20.186-45-45s20.186-45,45-45s45,20.186,45,45S145.814,512,121,512z M121,452
	c-8.276,0-15,6.724-15,15s6.724,15,15,15s15-6.724,15-15S129.276,452,121,452z"/>
<polygon style="fill:#E2E2E7;" points="366.4,452.899 355.6,481.099 198.1,422 143.8,401.6 154.3,373.4 283.9,422 "/>
<polygon style="fill:#D3D3D8;" points="366.4,452.899 355.6,481.099 198.1,422 283.9,422 "/>
<path style="fill:#68F2EE;" d="M121,422c-24.814,0-45-20.186-45-45s20.186-45,45-45s45,20.186,45,45S145.814,422,121,422z M121,362
	c-8.276,0-15,6.724-15,15s6.724,15,15,15s15-6.724,15-15S129.276,362,121,362z"/>
<g>
</g>
<g>
</g>
<g>
</g>
<g>
</g>
<g>
</g>
<g>
</g>
<g>
</g>
<g>
</g>
<g>
</g>
<g>
</g>
<g>
</g>
<g>
</g>
<g>
</g>
<g>
</g>
<g>
</g>
</svg>
