<?xml version="1.0" encoding="iso-8859-1"?>
<!-- Generator: Adobe Illustrator 19.0.0, SVG Export Plug-In . SVG Version: 6.00 Build 0)  -->
<svg version="1.1" id="Capa_1" xmlns="http://www.w3.org/2000/svg" xmlns:xlink="http://www.w3.org/1999/xlink" x="0px" y="0px"
	 viewBox="0 0 512 512" style="enable-background:new 0 0 512 512;" xml:space="preserve">
<path style="fill:#725D57;" d="M424.3,485.6l-6.6,26.4H361l-30-30H181l-30,30H94.3l-6.6-26.4c-16.8-66.899-6-138.001,29.7-197.1
	C100.3,267.8,91,241.4,91,214.699V181h330v33.699c0,26.7-9.3,53.101-26.4,73.801C430.3,347.599,441.099,418.7,424.3,485.6z"/>
<path style="fill:#68544F;" d="M424.3,485.6l-6.6,26.4H361l-30-30h-75V181h165v33.699c0,26.7-9.3,53.101-26.4,73.801
	C430.3,347.599,441.099,418.7,424.3,485.6z"/>
<path style="fill:#53433F;" d="M361,407v105H151V407c0-57.9,47.1-105,105-105c28.801,0,55.201,11.7,74.099,30.899
	C349.3,351.799,361,378.199,361,407z"/>
<path style="fill:#3E322E;" d="M361,407v105H256V302c28.801,0,55.201,11.7,74.099,30.899C349.3,351.799,361,378.199,361,407z"/>
<path style="fill:#FFD400;" d="M295,444.5L256,377l-39,67.5c-3.9,6.899-6,14.7-6,22.5c0,24.899,20.099,45,45,45s45-20.101,45-45
	C301,459.2,298.9,451.399,295,444.5z"/>
<g>
	<path style="fill:#FED2A4;" d="M173.427,148.55c-14.238-9.492-22.734-25.371-22.734-42.48s8.496-32.988,22.734-42.48
		c5.962-3.97,9.375-10.356,9.375-17.52s-3.413-17.139-9.375-21.108L190.067,0c14.238,9.492,22.734,28.96,22.734,46.069
		s-8.496,32.988-22.734,42.48c-5.962,3.97-9.375,10.356-9.375,17.52s3.413,13.55,9.375,17.52L173.427,148.55z"/>
	<path style="fill:#FED2A4;" d="M287.8,46.199c0,17.1-8.399,33.001-22.8,42.301c-5.4,3.3-8.399,9-9,15c-0.3,0.899-0.3,1.8-0.3,2.699
		c0,0.901,0,1.8,0.3,2.701c0.601,5.999,3.9,11.4,9,14.7l-9,13.5l-7.5,11.4c-14.399-9.3-22.8-25.201-22.8-42.301
		S234.101,73.2,248.5,63.6c3.6-2.401,6-5.4,7.5-9c1.199-2.701,1.8-5.4,1.8-8.401c0-2.999-0.601-6.599-1.8-9.901
		c-1.5-4.799-3.9-9-7.5-11.4L256,13.5L265,0C279.401,9.6,287.8,29.099,287.8,46.199z"/>
</g>
<g>
	<path style="fill:#FFBD86;" d="M323.427,148.55c-14.238-9.492-22.734-25.371-22.734-42.48s8.496-32.988,22.734-42.48
		c5.962-3.97,9.375-10.356,9.375-17.52s-3.413-17.139-9.375-21.108L340.067,0c14.238,9.492,22.734,28.96,22.734,46.069
		s-8.496,32.988-22.734,42.48c-5.962,3.97-9.375,10.356-9.375,17.52s3.413,13.55,9.375,17.52L323.427,148.55z"/>
	<path style="fill:#FFBD86;" d="M265,123.6l-9,13.5v-28.2C256.601,114.899,259.9,120.3,265,123.6z"/>
	<path style="fill:#FFBD86;" d="M287.8,46.199c0,17.1-8.399,33.001-22.8,42.301c-5.4,3.3-8.399,9-9,15V54.6
		c1.199-2.701,1.8-5.4,1.8-8.401c0-2.999-0.601-6.599-1.8-9.901V13.5L265,0C279.401,9.6,287.8,29.099,287.8,46.199z"/>
</g>
<path style="fill:#FDBF00;" d="M301,467c0,24.899-20.099,45-45,45V377l39,67.5C298.9,451.399,301,459.2,301,467z"/>
<g>
</g>
<g>
</g>
<g>
</g>
<g>
</g>
<g>
</g>
<g>
</g>
<g>
</g>
<g>
</g>
<g>
</g>
<g>
</g>
<g>
</g>
<g>
</g>
<g>
</g>
<g>
</g>
<g>
</g>
</svg>
