<?xml version="1.0" encoding="iso-8859-1"?>
<!-- Generator: Adobe Illustrator 19.0.0, SVG Export Plug-In . SVG Version: 6.00 Build 0)  -->
<svg version="1.1" id="Capa_1" xmlns="http://www.w3.org/2000/svg" xmlns:xlink="http://www.w3.org/1999/xlink" x="0px" y="0px"
	 viewBox="0 0 512 512" style="enable-background:new 0 0 512 512;" xml:space="preserve">
<polygon style="fill:#FFBD86;" points="512,248 512,316 450,316 450,383 390,383 390,451 131.4,451 0,385.3 0,181 84.375,151 
	158.1,181 330.3,181 255,137.199 188.101,98.5 255,72.4 263.101,69.099 390,132.4 390,197.199 324,248 "/>
<polygon style="fill:#F6A96C;" points="512,248 512,316 450,316 450,383 390,383 390,451 255,451 255,181 330.3,181 255,137.199 
	255,72.4 263.101,69.099 390,132.4 390,197.199 324,248 "/>
<path style="fill:#FED2A4;" d="M300,61c0,27.9-19.2,51.299-45,57.9c-4.799,1.5-9.901,2.1-15,2.1c0,0-51.301,0-55.201,0L158.1,181H0
	v-7.5L150,61c0,0,60,0,105,0H300z"/>
<path style="fill:#FFBD86;" d="M300,61c0,27.9-19.2,51.299-45,57.9V61H300z"/>
<g>
</g>
<g>
</g>
<g>
</g>
<g>
</g>
<g>
</g>
<g>
</g>
<g>
</g>
<g>
</g>
<g>
</g>
<g>
</g>
<g>
</g>
<g>
</g>
<g>
</g>
<g>
</g>
<g>
</g>
</svg>
