<?xml version="1.0" encoding="iso-8859-1"?>
<!-- Generator: Adobe Illustrator 19.0.0, SVG Export Plug-In . SVG Version: 6.00 Build 0)  -->
<svg version="1.1" id="Capa_1" xmlns="http://www.w3.org/2000/svg" xmlns:xlink="http://www.w3.org/1999/xlink" x="0px" y="0px"
	 viewBox="0 0 512 512" style="enable-background:new 0 0 512 512;" xml:space="preserve">
<rect x="272" y="143.5" style="fill:#725D57;" width="30" height="90"/>
<rect x="287" y="143.5" style="fill:#68544F;" width="15" height="90"/>
<path style="fill:#FFD400;" d="M326,106l-39-67.5L248,106c-3.9,6.899-6,14.7-6,22.5c0,24.899,20.099,45,45,45s45-20.101,45-45
	C332,120.7,329.9,112.899,326,106z"/>
<path style="fill:#FDBF00;" d="M287,173.5v-135l39,67.5c3.9,6.899,6,14.7,6,22.5C332,153.399,311.901,173.5,287,173.5z"/>
<path style="fill:#FF7816;" d="M452,203.5v45c0,91.199-73.801,165-165,165s-165-73.801-165-165v-45H452z"/>
<path style="fill:#FF4B00;" d="M452,203.5v45c0,91.199-73.801,165-165,165v-210H452z"/>
<path style="fill:#FED2A4;" d="M512,353.5l-159,120H0v-180h69.8c27.299-26.4,57.9-36,82.2-36c24.901,0,49.799,8.699,69.3,26.1
	c5.4,3.9,8.699,9.901,17.1,9.901H332c0,15.3-5.7,29.099-15,39.6c-7.8,9-18.3,15.298-30,18.3c-4.799,1.5-9.901,2.1-15,2.1h-90v30
	h179.099l69.001-45.3C457.7,319.9,493.7,327.7,512,353.5z"/>
<g>
	<path style="fill:#FFBD86;" d="M317,333.1c-7.8,9-18.3,15.298-30,18.3v-57.9h45C332,308.8,326.3,322.599,317,333.1z"/>
	<path style="fill:#FFBD86;" d="M512,353.5l-159,120h-66v-90h74.099l69.001-45.3C457.7,319.9,493.7,327.7,512,353.5z"/>
</g>
<g>
</g>
<g>
</g>
<g>
</g>
<g>
</g>
<g>
</g>
<g>
</g>
<g>
</g>
<g>
</g>
<g>
</g>
<g>
</g>
<g>
</g>
<g>
</g>
<g>
</g>
<g>
</g>
<g>
</g>
</svg>
