<?xml version="1.0" encoding="iso-8859-1"?>
<!-- Generator: Adobe Illustrator 19.0.0, SVG Export Plug-In . SVG Version: 6.00 Build 0)  -->
<svg version="1.1" id="Capa_1" xmlns="http://www.w3.org/2000/svg" xmlns:xlink="http://www.w3.org/1999/xlink" x="0px" y="0px"
	 viewBox="0 0 512 512" style="enable-background:new 0 0 512 512;" xml:space="preserve">
<polygon style="fill:#68F2EE;" points="421,452 91,452 121,181 241,121 271,121 391,181 "/>
<g>
	<polygon style="fill:#18DBDB;" points="421,452 256,452 256,121 271,121 391,181 	"/>
	<polygon style="fill:#18DBDB;" points="408.999,428.301 403.001,457.7 256,392.901 108.999,457.7 103.001,428.301 241,367.7 
		241,323.301 232.301,332 156.7,332 175,242.601 204.401,248.301 193.599,302 219.699,302 256,265.699 292.301,302 318.401,302 
		307.599,248.301 337,242.601 355.3,332 279.699,332 271,323.301 271,367.7 	"/>
</g>
<polygon style="fill:#00B3BD;" points="408.999,428.301 403.001,457.7 256,392.901 256,265.699 292.301,302 318.401,302 
	307.599,248.301 337,242.601 355.3,332 279.699,332 271,323.301 271,367.7 "/>
<path style="fill:#78FCF8;" d="M301,512v-60l-192.568-24.067C82.331,424.862,61,445.197,61,469.798
	C61,493.074,79.926,512,103.202,512H301z"/>
<path style="fill:#AEFDFF;" d="M316,60v31c0,32.999-27.001,60-60,60s-60-27.001-60-60V60c0-32.999,27.001-60,60-60
	S316,27.001,316,60z"/>
<path style="fill:#68F2EE;" d="M256,151V0c32.999,0,60,27.001,60,60v31C316,123.999,288.999,151,256,151z"/>
<path style="fill:#A8F3FA;" d="M451,469.701C451,493.1,432.1,512,408.701,512H211v-60l45-5.7L403.599,428
	C429.699,424.999,451,445.101,451,469.701z"/>
<path style="fill:#78FCF8;" d="M451,469.701C451,493.1,432.1,512,408.701,512H256v-65.7L403.599,428
	C429.699,424.999,451,445.101,451,469.701z"/>
<g>
</g>
<g>
</g>
<g>
</g>
<g>
</g>
<g>
</g>
<g>
</g>
<g>
</g>
<g>
</g>
<g>
</g>
<g>
</g>
<g>
</g>
<g>
</g>
<g>
</g>
<g>
</g>
<g>
</g>
</svg>
