<?xml version="1.0" encoding="iso-8859-1"?>
<!-- Generator: Adobe Illustrator 19.0.0, SVG Export Plug-In . SVG Version: 6.00 Build 0)  -->
<svg version="1.1" id="Capa_1" xmlns="http://www.w3.org/2000/svg" xmlns:xlink="http://www.w3.org/1999/xlink" x="0px" y="0px"
	 viewBox="0 0 512 512" style="enable-background:new 0 0 512 512;" xml:space="preserve">
<path style="fill:#FF7C96;" d="M344.401,153.537L256.059,15.615l-88.341,137.922c-10.817,17.125-16.827,36.958-16.827,57.391
	c0,57.993,47.176,105.168,105.168,105.168s105.168-47.176,105.168-105.168C361.227,190.495,355.217,170.662,344.401,153.537z"/>
<path style="fill:#FF5C7D;" d="M361.227,210.928c0,57.993-47.176,105.168-105.168,105.168V15.615L344.4,153.537
	C355.217,170.662,361.227,190.495,361.227,210.928z"/>
<path style="fill:#FF7C96;" d="M150.89,496.385H0c53.98-147.461,52.23-146.211,62.389-162.022
	c19.499-30.268,52.584-48.314,88.501-48.314c57.984,0,105.168,47.185,105.168,105.168S208.874,496.385,150.89,496.385z"/>
<path style="fill:#FF5C7D;" d="M512,496.385H361.227c-57.984,0-105.168-47.185-105.168-105.168s47.185-105.168,105.168-105.168
	c38.954,0,74.533,21.362,92.859,55.738C460.595,354.137,458.836,350.615,512,496.385z"/>
<g>
	<path style="fill:#ECECF1;" d="M256.058,167.057c-26.442,0-45.072,19.532-45.072,43.871c0,24.941,20.131,45.072,45.072,45.072
		s45.072-20.131,45.072-45.072C301.13,186.589,282.501,167.057,256.058,167.057z"/>
	<path style="fill:#ECECF1;" d="M150.89,436.289c-24.854,0-45.072-20.218-45.072-45.072c0-8.788,2.392-16.975,7.115-24.341
		c8.363-13,22.551-20.731,37.957-20.731c24.854,0,45.072,20.218,45.072,45.072S175.744,436.289,150.89,436.289z"/>
</g>
<g>
	<path style="fill:#E2E2E7;" d="M361.227,436.289c-24.854,0-45.072-20.218-45.072-45.072s20.218-45.072,45.072-45.072
		c19.969,0,33.658,12.354,39.82,23.93c3.478,6.499,5.252,13.616,5.252,21.142C406.299,416.07,386.081,436.289,361.227,436.289z"/>
	<path style="fill:#E2E2E7;" d="M301.13,210.928c0,24.941-20.131,45.072-45.072,45.072v-88.943
		C282.501,167.057,301.13,186.589,301.13,210.928z"/>
</g>
<g>
</g>
<g>
</g>
<g>
</g>
<g>
</g>
<g>
</g>
<g>
</g>
<g>
</g>
<g>
</g>
<g>
</g>
<g>
</g>
<g>
</g>
<g>
</g>
<g>
</g>
<g>
</g>
<g>
</g>
</svg>
