<?xml version="1.0" encoding="iso-8859-1"?>
<!-- Generator: Adobe Illustrator 19.0.0, SVG Export Plug-In . SVG Version: 6.00 Build 0)  -->
<svg version="1.1" id="Capa_1" xmlns="http://www.w3.org/2000/svg" xmlns:xlink="http://www.w3.org/1999/xlink" x="0px" y="0px"
	 viewBox="0 0 512 512" style="enable-background:new 0 0 512 512;" xml:space="preserve">
<path style="fill:#FF7816;" d="M256,0C148.661,0,61.114,87.548,61.114,194.886c0,42.274,13.492,82.752,38.977,116.632
	c1.799,2.398,3.598,4.796,5.397,6.895L256,512l150.513-193.287c1.799-2.4,3.598-4.798,5.397-7.196
	c25.484-33.88,38.977-74.357,38.977-116.632C450.885,87.548,363.338,0,256,0z"/>
<path style="fill:#FF4B00;" d="M450.885,194.886c0,42.274-13.492,82.752-38.977,116.632c-1.799,2.398-3.598,4.796-5.397,7.196
	L256,512V0C363.338,0,450.885,87.548,450.885,194.886z"/>
<path style="fill:#ECECF1;" d="M332.455,127.425c0,18.589-7.496,35.379-19.787,47.671c-12.294,12.294-29.084,19.789-47.673,19.789
	c-2.997,0-5.996,0.3-8.995,0.599c-14.991,2.099-28.483,8.996-38.676,19.189c-12.294,12.294-19.789,29.084-19.789,47.673
	c0,34.779,17.691,63.563,51.571,67.161c-71.058-3.598-128.026-62.664-128.026-134.621c0-74.656,61.163-134.921,134.921-134.921
	c2.4,0,4.498,0,6.895,0.3c15.892,1.499,38.978,8.694,49.772,19.488C324.959,92.046,332.455,108.836,332.455,127.425z"/>
<path style="fill:#E2E2E7;" d="M332.455,127.425c0,18.589-7.496,35.379-19.787,47.671c-12.294,12.294-29.084,19.789-47.673,19.789
	c-2.997,0-5.996,0.3-8.995,0.599V59.965c2.4,0,4.498,0,6.895,0.3c15.892,1.499,38.978,8.694,49.772,19.488
	C324.959,92.046,332.455,108.836,332.455,127.425z"/>
<path style="fill:#725D57;" d="M262.895,60.265c32.982,2.997,60.566,31.482,60.566,67.161c0,37.178-30.282,67.46-67.46,67.46
	c-36.877,0-67.46,29.982-67.46,67.46c0,34.779,26.684,63.563,60.566,67.161c1.499,0.3,4.197,0.3,6.895,0.3
	c2.698,0,5.397,0,6.895-0.3c71.058-3.598,128.026-62.664,128.026-134.621C390.92,122.927,333.953,63.863,262.895,60.265z"/>
<path style="fill:#68544F;" d="M390.92,194.886c0,71.957-56.968,131.023-128.026,134.621c-1.499,0.3-4.197,0.3-6.895,0.3V194.886
	c37.178,0,67.46-30.282,67.46-67.46c0-35.679-27.583-64.162-60.566-67.161C333.953,63.863,390.92,122.927,390.92,194.886z"/>
<rect x="241.008" y="119.93" style="fill:#725D57;" width="29.982" height="29.982"/>
<rect x="256" y="119.93" style="fill:#68544F;" width="14.991" height="29.982"/>
<rect x="241.008" y="239.859" style="fill:#ECECF1;" width="29.982" height="29.982"/>
<rect x="256" y="239.859" style="fill:#E2E2E7;" width="14.991" height="29.982"/>
<g>
</g>
<g>
</g>
<g>
</g>
<g>
</g>
<g>
</g>
<g>
</g>
<g>
</g>
<g>
</g>
<g>
</g>
<g>
</g>
<g>
</g>
<g>
</g>
<g>
</g>
<g>
</g>
<g>
</g>
</svg>
