<?xml version="1.0" encoding="iso-8859-1"?>
<!-- Generator: Adobe Illustrator 19.0.0, SVG Export Plug-In . SVG Version: 6.00 Build 0)  -->
<svg version="1.1" id="Capa_1" xmlns="http://www.w3.org/2000/svg" xmlns:xlink="http://www.w3.org/1999/xlink" x="0px" y="0px"
	 viewBox="0 0 512 512" style="enable-background:new 0 0 512 512;" xml:space="preserve">
<path style="fill:#AEFDFF;" d="M481,346v30H31v-30c0-5.101,0.3-9.901,0.901-15c0.298-4.501,30.599-8.701,30.899-13.2
	c0.901-5.7-28.5-11.4-27.299-16.8c2.098-10.201,5.099-20.4,8.699-30c1.8-5.101,33.6-10.201,35.7-15
	c2.401-5.101-25.201-10.201-22.8-15c5.7-10.501,12.301-20.4,19.2-30c3.9-4.801,37.8-9.6,41.7-14.101
	c4.799-5.7-19.801-10.8-14.401-15.899c40.201-37.2,93.6-60,152.401-60s112.2,22.8,152.401,60c5.099,4.499-20.101,9.3-15.601,14.399
	S431.499,205.6,435.7,211c6.899,9.6,13.5,19.499,19.2,30c2.401,4.799-25.201,9.899-22.8,15c2.1,4.799,33.9,9.899,35.7,15
	c3.6,9.6,6.601,19.799,8.699,30c0.901,4.799-28.2,9.6-27.599,14.399c0.601,5.099,30.901,10.499,31.199,15.601
	C480.7,336.099,481,340.899,481,346z"/>
<path style="fill:#68F2EE;" d="M481,346v30H256V121c58.801,0,112.2,22.8,152.401,60c5.099,4.499-20.101,9.3-15.601,14.399
	S431.499,205.6,435.7,211c6.899,9.6,13.5,19.499,19.2,30c2.401,4.799-25.201,9.899-22.8,15c2.1,4.799,33.9,9.899,35.7,15
	c3.6,9.6,6.601,19.799,8.699,30c0.901,4.799-28.2,9.6-27.599,14.399c0.601,5.099,30.901,10.499,31.199,15.601
	C480.7,336.099,481,340.899,481,346z"/>
<rect y="361" style="fill:#725D57;" width="512" height="30"/>
<g>
	<path style="fill:#68F2EE;" d="M480.099,331H31.901c0.599-10.201,1.5-20.101,3.6-30H476.5
		C478.599,310.899,479.5,320.799,480.099,331z"/>
	<path style="fill:#68F2EE;" d="M467.8,271H44.2c3.6-10.201,7.8-20.4,12.9-30h397.8C460,250.6,464.2,260.799,467.8,271z"/>
	<path style="fill:#68F2EE;" d="M435.7,211H76.3c8.399-10.8,17.401-20.7,27.299-30H408.4C418.299,190.3,427.301,200.2,435.7,211z"/>
</g>
<g>
	<path style="fill:#18DBDB;" d="M435.7,211H256v-30h152.401C418.299,190.3,427.301,200.2,435.7,211z"/>
	<path style="fill:#18DBDB;" d="M467.8,271H256v-30h198.9C460,250.6,464.2,260.799,467.8,271z"/>
	<path style="fill:#18DBDB;" d="M480.099,331H256v-30h220.499C478.599,310.899,479.5,320.799,480.099,331z"/>
</g>
<rect x="256" y="361" style="fill:#68544F;" width="256" height="30"/>
<g>
</g>
<g>
</g>
<g>
</g>
<g>
</g>
<g>
</g>
<g>
</g>
<g>
</g>
<g>
</g>
<g>
</g>
<g>
</g>
<g>
</g>
<g>
</g>
<g>
</g>
<g>
</g>
<g>
</g>
</svg>
