<?xml version="1.0" encoding="iso-8859-1"?>
<!-- Generator: Adobe Illustrator 19.0.0, SVG Export Plug-In . SVG Version: 6.00 Build 0)  -->
<svg version="1.1" id="Capa_1" xmlns="http://www.w3.org/2000/svg" xmlns:xlink="http://www.w3.org/1999/xlink" x="0px" y="0px"
	 viewBox="0 0 512 512" style="enable-background:new 0 0 512 512;" xml:space="preserve">
<path style="fill:#725D57;" d="M421,452c0,32.999-27.001,60-60,60h-15c-38.401,0-71.7-21-90-51.901C237.7,491,204.401,512,166,512
	h-15c-32.999,0-60-27.001-60-60c0-33.001,27.001-60,60-60s60,26.999,60,60h-30c0-16.5-13.5-30-30-30s-30,13.5-30,30s13.5,30,30,30
	h15c41.4,0,75-33.6,75-75v-30h30v30c0,41.4,33.6,75,75,75h15c16.5,0,30-13.5,30-30s-13.5-30-30-30s-30,13.5-30,30h-30
	c0-33.001,27.001-60,60-60S421,418.999,421,452z"/>
<path style="fill:#68544F;" d="M421,452c0,32.999-27.001,60-60,60h-15c-38.401,0-71.7-21-90-51.901V377h15v30c0,41.4,33.6,75,75,75
	h15c16.5,0,30-13.5,30-30s-13.5-30-30-30s-30,13.5-30,30h-30c0-33.001,27.001-60,60-60S421,418.999,421,452z"/>
<path style="fill:#FF7C96;" d="M328.9,104.5L256,190.3l-72.9-85.8c11.1-54.3,61.5-95.5,63.6-97L256,0l9.3,7.5
	C267.4,9,317.8,50.2,328.9,104.5z"/>
<path style="fill:#FF5C7D;" d="M328.9,104.5L256,190.3V0l9.3,7.5C267.4,9,317.8,50.2,328.9,104.5z"/>
<path style="fill:#FF9AAE;" d="M406,61c-66.599,0-123.9,39.6-150,96.299C229.9,100.6,172.599,61,106,61H39.699L65.5,86.499
	C101.201,122.5,121,170.2,121,220.899V256c0,74.399,60.601,136,135,136s135-61.601,135-136v-35.101
	c0-50.698,19.799-98.399,55.499-134.399L472.301,61H406z"/>
<path style="fill:#FF7C96;" d="M472.301,61L446.5,86.499C410.799,122.5,391,170.2,391,220.899V256c0,74.399-60.601,136-135,136
	V157.299C282.1,100.6,339.401,61,406,61H472.301z"/>
<g>
</g>
<g>
</g>
<g>
</g>
<g>
</g>
<g>
</g>
<g>
</g>
<g>
</g>
<g>
</g>
<g>
</g>
<g>
</g>
<g>
</g>
<g>
</g>
<g>
</g>
<g>
</g>
<g>
</g>
</svg>
