<?xml version="1.0" encoding="iso-8859-1"?>
<!-- Generator: Adobe Illustrator 19.0.0, SVG Export Plug-In . SVG Version: 6.00 Build 0)  -->
<svg version="1.1" id="Capa_1" xmlns="http://www.w3.org/2000/svg" xmlns:xlink="http://www.w3.org/1999/xlink" x="0px" y="0px"
	 viewBox="0 0 512 512" style="enable-background:new 0 0 512 512;" xml:space="preserve">
<path style="fill:#FFBD86;" d="M421,239.299c0,13.5-2.1,26.4-6.301,39.3l-21.299,63.3H118.599l-21.299-63.3
	c-4.2-12.9-6.301-25.8-6.301-39.3c0-20.4,5.099-40.499,14.7-58.5L202,0h108l96.3,180.799C415.901,198.8,421,218.899,421,239.299z"/>
<path style="fill:#F6A96C;" d="M421,239.299c0,13.5-2.1,26.4-6.301,39.3l-21.299,63.3H256V0h54l96.3,180.799
	C415.901,198.8,421,218.899,421,239.299z"/>
<path style="fill:#FED2A4;" d="M481,405.2L375.7,512L256,370.399L136.3,512L31,405.2l87.599-63.301L196,287V152
	c32.999,0,60,26.999,60,60c0-33.001,27.001-60,60-60v135l77.401,54.899L481,405.2z"/>
<path style="fill:#FFBD86;" d="M481,405.2L375.7,512L256,370.399V212c0-33.001,27.001-60,60-60v135l77.401,54.899L481,405.2z"/>
<g>
</g>
<g>
</g>
<g>
</g>
<g>
</g>
<g>
</g>
<g>
</g>
<g>
</g>
<g>
</g>
<g>
</g>
<g>
</g>
<g>
</g>
<g>
</g>
<g>
</g>
<g>
</g>
<g>
</g>
</svg>
