<?xml version="1.0" encoding="iso-8859-1"?>
<!-- Generator: Adobe Illustrator 19.0.0, SVG Export Plug-In . SVG Version: 6.00 Build 0)  -->
<svg version="1.1" id="Capa_1" xmlns="http://www.w3.org/2000/svg" xmlns:xlink="http://www.w3.org/1999/xlink" x="0px" y="0px"
	 viewBox="0 0 512 512" style="enable-background:new 0 0 512 512;" xml:space="preserve">
<path style="fill:#FF7816;" d="M346,0c-90.901,0-165,74.099-165,165c0,90.899,74.099,165,165,165s166-74.101,166-165
	C512,74.099,436.901,0,346,0z"/>
<path style="fill:#FF4B00;" d="M512,165c0,90.899-75.099,165-166,165V0C436.901,0,512,74.099,512,165z"/>
<rect x="301" y="60" style="fill:#725D57;" width="30" height="30"/>
<rect x="361" y="60" style="fill:#53433F;" width="30" height="30"/>
<path style="fill:#725D57;" d="M452,225h-30c0-41.4-34.6-75-76-75s-75,33.6-75,75h-30c0-57.9,47.1-105,105-105S452,167.1,452,225z"
	/>
<path style="fill:#53433F;" d="M452,225h-30c0-41.4-34.6-75-76-75v-30C403.9,120,452,167.1,452,225z"/>
<polygon style="fill:#725D57;" points="507.499,304.499 486.501,325.499 346,186 185.501,25.499 206.499,4.499 "/>
<polygon style="fill:#68544F;" points="507.499,304.499 486.501,325.499 346,186 346,144 "/>
<path style="fill:#FFD400;" d="M166,180C75.099,180,0,254.099,0,345c0,90.899,75.099,167,166,167s165-76.101,165-167
	C331,254.099,256.901,180,166,180z"/>
<path style="fill:#FDBF00;" d="M331,345c0,90.899-74.099,167-165,167V180C256.901,180,331,254.099,331,345z"/>
<g>
	<path style="fill:#725D57;" d="M271,345c0,57.9-47.1,105-105,105S61,402.9,61,345h30c0,41.4,33.6,75,75,75s75-33.6,75-75H271z"/>
	<rect x="121" y="300" style="fill:#725D57;" width="30" height="30"/>
</g>
<g>
	<rect x="181" y="300" style="fill:#53433F;" width="30" height="30"/>
	<path style="fill:#53433F;" d="M271,345c0,57.9-47.1,105-105,105v-30c41.4,0,75-33.6,75-75H271z"/>
</g>
<g>
</g>
<g>
</g>
<g>
</g>
<g>
</g>
<g>
</g>
<g>
</g>
<g>
</g>
<g>
</g>
<g>
</g>
<g>
</g>
<g>
</g>
<g>
</g>
<g>
</g>
<g>
</g>
<g>
</g>
</svg>
