<?xml version="1.0" encoding="iso-8859-1"?>
<!-- Generator: Adobe Illustrator 19.0.0, SVG Export Plug-In . SVG Version: 6.00 Build 0)  -->
<svg version="1.1" id="Capa_1" xmlns="http://www.w3.org/2000/svg" xmlns:xlink="http://www.w3.org/1999/xlink" x="0px" y="0px"
	 viewBox="0 0 512 512" style="enable-background:new 0 0 512 512;" xml:space="preserve">
<rect x="241" y="420" style="fill:#FDBF00;" width="30" height="92"/>
<rect x="256" y="420" style="fill:#FF9F00;" width="15" height="92"/>
<path style="fill:#FFD400;" d="M256,360c-24.901,0-45,20.099-45,45v45h90v-45C301,380.099,280.901,360,256,360z"/>
<path style="fill:#FDBF00;" d="M301,405v45h-45v-90C280.901,360,301,380.099,301,405z"/>
<path style="fill:#725D57;" d="M421,195c0-20.724-14.084-38.209-33.181-43.414C389.864,146.449,391,140.856,391,135
	c0-20.724-14.084-38.209-33.181-43.414C359.864,86.449,361,80.856,361,75c0-24.814-20.186-45-45-45
	c-5.852,0-11.44,1.135-16.573,3.176C294.249,14.036,276.805,0,256,0s-38.249,14.036-43.427,33.176C207.44,31.135,201.852,30,196,30
	c-24.814,0-45,20.186-45,45c0,5.856,1.136,11.449,3.181,16.586C135.084,96.791,121,114.276,121,135
	c0,5.856,1.136,11.449,3.181,16.586C105.084,156.791,91,174.276,91,195s14.084,38.209,33.181,43.414
	C122.136,243.551,121,249.144,121,255c0,20.724,14.084,38.209,33.181,43.414C152.136,303.551,151,309.144,151,315
	c0,24.814,20.186,45,45,45c5.852,0,11.44-1.135,16.573-3.176C217.752,375.963,235.195,390,256,390s38.248-14.037,43.427-33.176
	C304.56,358.865,310.148,360,316,360c24.814,0,45-20.186,45-45c0-5.856-1.136-11.449-3.181-16.586
	C376.916,293.209,391,275.724,391,255c0-5.856-1.136-11.449-3.181-16.586C406.916,233.209,421,215.724,421,195z M301,255
	c0,5.856,1.136,11.449,3.181,16.586c-15.32,4.175-27.405,16.255-31.589,31.572C267.459,301.127,261.866,300,256,300
	s-11.459,1.127-16.592,3.158c-4.183-15.317-16.268-27.397-31.588-31.572c2.044-5.137,3.18-10.73,3.18-16.586
	c0-20.724-14.084-38.209-33.181-43.414C179.864,206.449,181,200.856,181,195s-1.136-11.449-3.181-16.586
	C196.916,173.209,211,155.724,211,135c0-5.856-1.136-11.449-3.181-16.586c15.32-4.175,27.405-16.255,31.589-31.572
	C244.541,88.873,250.134,90,256,90s11.459-1.127,16.592-3.158c4.183,15.317,16.268,27.397,31.589,31.572
	C302.136,123.551,301,129.144,301,135c0,20.724,14.084,38.209,33.181,43.414C332.136,183.551,331,189.144,331,195
	s1.136,11.449,3.181,16.586C315.084,216.791,301,234.276,301,255z"/>
<path style="fill:#53433F;" d="M272.592,86.842c4.183,15.317,16.268,27.397,31.589,31.572C302.136,123.551,301,129.144,301,135
	c0,20.724,14.084,38.209,33.181,43.414C332.136,183.551,331,189.144,331,195s1.136,11.449,3.181,16.586
	C315.084,216.791,301,234.276,301,255c0,5.856,1.136,11.449,3.181,16.586c-15.32,4.175-27.405,16.255-31.589,31.572
	C267.459,301.127,261.866,300,256,300v90c20.805,0,38.248-14.037,43.427-33.176C304.56,358.865,310.148,360,316,360
	c24.814,0,45-20.186,45-45c0-5.856-1.136-11.449-3.181-16.586C376.916,293.209,391,275.724,391,255
	c0-5.856-1.136-11.449-3.181-16.586C406.916,233.209,421,215.724,421,195s-14.084-38.209-33.181-43.414
	C389.864,146.449,391,140.856,391,135c0-20.724-14.084-38.209-33.181-43.414C359.864,86.449,361,80.856,361,75
	c0-24.814-20.186-45-45-45c-5.852,0-11.44,1.135-16.573,3.176C294.249,14.036,276.805,0,256,0v90
	C261.866,90,267.459,88.873,272.592,86.842z"/>
<g>
</g>
<g>
</g>
<g>
</g>
<g>
</g>
<g>
</g>
<g>
</g>
<g>
</g>
<g>
</g>
<g>
</g>
<g>
</g>
<g>
</g>
<g>
</g>
<g>
</g>
<g>
</g>
<g>
</g>
</svg>
