<?xml version="1.0" encoding="iso-8859-1"?>
<!-- Generator: Adobe Illustrator 19.0.0, SVG Export Plug-In . SVG Version: 6.00 Build 0)  -->
<svg version="1.1" id="Capa_1" xmlns="http://www.w3.org/2000/svg" xmlns:xlink="http://www.w3.org/1999/xlink" x="0px" y="0px"
	 viewBox="0 0 512 512" style="enable-background:new 0 0 512 512;" xml:space="preserve">
<path style="fill:#FF7C96;" d="M256,0C115.3,0,0,116.3,0,257s115.3,255,256,255s256-114.3,256-255S396.7,0,256,0z M226,449.599
	c-35.099-5.4-68.2-20.099-94.3-42.001l94.3-93.3V449.599z M226,229.699l-134.5,133.5C71.7,332.599,60,296,60,257
	c0-96.301,72.4-180.5,166-194.601C226,67.2,226,229.699,226,229.699z M286,449.599v-135.3l94.3,93.3
	C354.2,429.5,321.099,444.2,286,449.599z M420.5,363.199c-3.3-3.3-134.5-133.5-134.5-133.5c0-11.4,0-167.3,0-167.3
	c93.3,14.101,166,98,166,194.601C452,296,440.3,332.599,420.5,363.199z"/>
<path style="fill:#FF5C7D;" d="M256,0v512c140.7,0,256-114.3,256-255S396.7,0,256,0z M286,449.599v-135.3l94.3,93.3
	C354.2,429.5,321.099,444.2,286,449.599z M420.5,363.199c-3.3-3.3-134.5-133.5-134.5-133.5c0-11.4,0-167.3,0-167.3
	c93.3,14.101,166,98,166,194.601C452,296,440.3,332.599,420.5,363.199z"/>
<g>
</g>
<g>
</g>
<g>
</g>
<g>
</g>
<g>
</g>
<g>
</g>
<g>
</g>
<g>
</g>
<g>
</g>
<g>
</g>
<g>
</g>
<g>
</g>
<g>
</g>
<g>
</g>
<g>
</g>
</svg>
