<?xml version="1.0" encoding="iso-8859-1"?>
<!-- Generator: Adobe Illustrator 19.0.0, SVG Export Plug-In . SVG Version: 6.00 Build 0)  -->
<svg version="1.1" id="Capa_1" xmlns="http://www.w3.org/2000/svg" xmlns:xlink="http://www.w3.org/1999/xlink" x="0px" y="0px"
	 viewBox="0 0 512 512" style="enable-background:new 0 0 512 512;" xml:space="preserve">
<path style="fill:#3E322E;" d="M331,332c-84.3,0-181,0-181,60c0,51.301,78.401,90,181,90s181-38.699,181-90
	C512,332,415.3,332,331,332z"/>
<path style="fill:#261F1D;" d="M512,392c0,51.301-78.401,90-181,90V332C415.3,332,512,332,512,392z"/>
<path style="fill:#53433F;" d="M481,287c0,41.4-67.2,75-150,75s-151-33.6-151-75s68.2-75,151-75S481,245.6,481,287z"/>
<path style="fill:#3E322E;" d="M481,287c0,41.4-67.2,75-150,75V212C413.8,212,481,245.6,481,287z"/>
<path style="fill:#68544F;" d="M331,92c-67.2,0-121,32.999-121,75s53.8,75,121,75s120-32.999,120-75S398.2,92,331,92z"/>
<path style="fill:#53433F;" d="M331,242V92c67.2,0,120,32.999,120,75S398.2,242,331,242z"/>
<path style="fill:#725D57;" d="M331,0c-50.4,0-91,27.4-91,61s40.6,61,91,61s90-27.4,90-61S381.4,0,331,0z"/>
<path style="fill:#68544F;" d="M331,122V0c50.4,0,90,27.4,90,61S381.4,122,331,122z"/>
<path style="fill:#FF9AAE;" d="M270,377c0-18.6-8.401-35.7-22.8-46.8c2.1-17.999-3.9-36-16.8-48.6
	c-12.599-12.9-30.601-18.9-48.6-16.8C170.7,250.401,153.6,242,135,242s-35.7,8.401-46.8,22.8c-17.999-2.1-36,3.9-48.6,16.8
	c-12.9,12.599-18.9,30.601-16.8,48.6C8.401,341.3,0,358.4,0,377s8.401,35.7,22.8,46.8c-2.1,17.999,3.9,36,16.8,48.6
	c12.599,12.9,30.601,18.9,48.6,16.8C99.3,503.599,116.4,512,135,512s35.7-8.401,46.8-22.8c17.999,2.1,36-3.9,48.6-16.8
	c12.9-12.599,18.9-30.601,16.8-48.6C261.599,412.7,270,395.6,270,377z"/>
<path style="fill:#FF7C96;" d="M247.2,423.8c2.1,17.999-3.9,36-16.8,48.6c-12.599,12.9-30.601,18.9-48.6,16.8
	C170.7,503.599,153.6,512,135,512V242c18.6,0,35.7,8.401,46.8,22.8c17.999-2.1,36,3.9,48.6,16.8c12.9,12.599,18.9,30.601,16.8,48.6
	c14.399,11.1,22.8,28.2,22.8,46.8S261.599,412.7,247.2,423.8z"/>
<path style="fill:#FFE470;" d="M135,332c-24.901,0-45,20.099-45,45s20.099,45,45,45s45-20.099,45-45S159.901,332,135,332z"/>
<path style="fill:#FFD400;" d="M180,377c0,24.901-20.099,45-45,45v-90C159.901,332,180,352.099,180,377z"/>
<g>
</g>
<g>
</g>
<g>
</g>
<g>
</g>
<g>
</g>
<g>
</g>
<g>
</g>
<g>
</g>
<g>
</g>
<g>
</g>
<g>
</g>
<g>
</g>
<g>
</g>
<g>
</g>
<g>
</g>
</svg>
