<?xml version="1.0" encoding="iso-8859-1"?>
<!-- Generator: Adobe Illustrator 19.0.0, SVG Export Plug-In . SVG Version: 6.00 Build 0)  -->
<svg version="1.1" id="Capa_1" xmlns="http://www.w3.org/2000/svg" xmlns:xlink="http://www.w3.org/1999/xlink" x="0px" y="0px"
	 viewBox="0 0 512 512" style="enable-background:new 0 0 512 512;" xml:space="preserve">
<path style="fill:#ECECF1;" d="M413.5,128.5c0,35.099-44.099,97.2-67.2,120.3c-23.1,22.801-24.9,7.2-60.3,7.2
	c-10.499,0-20.4,1.199-30,3.6c-23.401,5.4-44.099,17.401-60.3,33.6c-23.101,23.101-37.2,55.201-37.2,90.3s14.099,68.2,37.2,91.3
	c23.1,22.801,24.9,37.2,60.3,37.2C115.3,512,0,396.7,0,256S115.3,0,256,0C326.499,0,413.5,58.001,413.5,128.5z"/>
<path style="fill:#E2E2E7;" d="M413.5,128.5c0,35.099-44.099,97.2-67.2,120.3c-23.1,22.801-24.9,7.2-60.3,7.2
	c-10.499,0-20.4,1.199-30,3.6V0C326.499,0,413.5,58.001,413.5,128.5z"/>
<path style="fill:#725D57;" d="M512,256c0,140.7-115.3,256-256,256c-69.3,0-127.5-56.499-127.5-128.5S186.7,256,256,256
	s127.5-55.499,127.5-127.5C383.5,58.001,326.499,0,256,0C396.7,0,512,115.3,512,256z"/>
<path style="fill:#68544F;" d="M512,256c0,140.7-115.3,256-256,256V256c69.3,0,127.5-55.499,127.5-127.5
	C383.5,58.001,326.499,0,256,0C396.7,0,512,115.3,512,256z"/>
<path style="fill:#ECECF1;" d="M256,331c-24.901,0-45,20.099-45,45s20.099,45,45,45s45-20.099,45-45S280.901,331,256,331z"/>
<path style="fill:#E2E2E7;" d="M301,376c0,24.901-20.099,45-45,45v-90C280.901,331,301,351.099,301,376z"/>
<path style="fill:#725D57;" d="M256,91c-24.901,0-45,20.099-45,45s20.099,45,45,45s45-20.099,45-45S280.901,91,256,91z"/>
<path style="fill:#68544F;" d="M301,136c0,24.901-20.099,45-45,45V91C280.901,91,301,111.099,301,136z"/>
<g>
</g>
<g>
</g>
<g>
</g>
<g>
</g>
<g>
</g>
<g>
</g>
<g>
</g>
<g>
</g>
<g>
</g>
<g>
</g>
<g>
</g>
<g>
</g>
<g>
</g>
<g>
</g>
<g>
</g>
</svg>
