<?xml version="1.0" encoding="iso-8859-1"?>
<!-- Generator: Adobe Illustrator 19.0.0, SVG Export Plug-In . SVG Version: 6.00 Build 0)  -->
<svg version="1.1" id="Capa_1" xmlns="http://www.w3.org/2000/svg" xmlns:xlink="http://www.w3.org/1999/xlink" x="0px" y="0px"
	 viewBox="0 0 512 512" style="enable-background:new 0 0 512 512;" xml:space="preserve">
<polygon style="fill:#E2E2E7;" points="482,257 482,332 256,500.9 241,512 211,512 181,452 121,452 91,512 30,512 30,257 "/>
<polygon style="fill:#D3D3D8;" points="482,257 482,332 256,500.9 256,257 "/>
<rect x="241" y="332" style="fill:#725D57;" width="241" height="180"/>
<rect x="256" y="332" style="fill:#68544F;" width="226" height="180"/>
<rect y="150" style="fill:#ECECF1;" width="512" height="122"/>
<rect x="256" y="150" style="fill:#E2E2E7;" width="256" height="122"/>
<polygon points="211,497 181,497 181,362 121,362 121,497 91,497 91,332 211,332 "/>
<polygon style="fill:#68F2EE;" points="384.027,362 358.48,385.32 347.972,362 271,362 271,482 337.973,482 358.48,475.32 
	374.028,482 452,482 452,362 "/>
<g>
	<polygon style="fill:#AEFDFF;" points="328.48,445.32 384.027,362 347.972,362 303.52,428.68 	"/>
	<polygon style="fill:#AEFDFF;" points="393.52,398.68 337.973,482 374.028,482 418.48,415.32 	"/>
</g>
<path style="fill:#FF7C96;" d="M205.902,67.852C193.231,62.637,179.813,60,166,60h-45v45c0,57.891,47.109,105,105,105h30
	L205.902,67.852z"/>
<path style="fill:#FF5C7D;" d="M346,60c-13.813,0-27.231,2.637-39.902,7.852L256,210h30c57.891,0,105-47.109,105-105V60H346z"/>
<path style="fill:#FF9AAE;" d="M264.401,5.4L256,0l-8.401,5.4C244.9,7.5,181,47.999,181,105c0,57.299,64.2,98.101,67.2,99.6
	l7.8,5.099l7.8-5.099c2.999-1.5,67.2-42.301,67.2-99.6C331,47.999,267.1,7.5,264.401,5.4z"/>
<path style="fill:#FF7C96;" d="M331,105c0,57.299-64.2,98.101-67.2,99.6l-7.8,5.1V0l8.401,5.4C267.1,7.5,331,47.999,331,105z"/>
<rect x="91" y="332" style="fill:#02D9D5;" width="120" height="180"/>
<g>
</g>
<g>
</g>
<g>
</g>
<g>
</g>
<g>
</g>
<g>
</g>
<g>
</g>
<g>
</g>
<g>
</g>
<g>
</g>
<g>
</g>
<g>
</g>
<g>
</g>
<g>
</g>
<g>
</g>
</svg>
