<?xml version="1.0" encoding="iso-8859-1"?>
<!-- Generator: Adobe Illustrator 19.0.0, SVG Export Plug-In . SVG Version: 6.00 Build 0)  -->
<svg version="1.1" id="Capa_1" xmlns="http://www.w3.org/2000/svg" xmlns:xlink="http://www.w3.org/1999/xlink" x="0px" y="0px"
	 viewBox="0 0 512 512" style="enable-background:new 0 0 512 512;" xml:space="preserve">
<g>
	<polygon style="fill:#ECECF1;" points="421,452 421,512 91,512 91,452 256,422 	"/>
	<path style="fill:#ECECF1;" d="M361,30v242H151V30h30v16c0,41.4,33.6,75,75,75s75-33.6,75-75V30H361z"/>
</g>
<g>
	<path style="fill:#D3D3D8;" d="M361,272H256V121c41.4,0,75-33.6,75-75V30h30V272z"/>
	<polygon style="fill:#D3D3D8;" points="421,452 421,512 256,512 256,422 	"/>
</g>
<path style="fill:#725D57;" d="M451,181v183.699c0,35.4-13.2,51.301-30,87.301H91c-13.801-30.901-30-48.9-30-87.301V181h15
	c24.901,0,45-20.101,45-45V0h60v136c0,41.4,33.6,75,75,75s75-33.6,75-75V0h60v136c0,24.899,20.099,45,45,45H451z"/>
<path style="fill:#53433F;" d="M451,181v183.699c0,35.4-13.2,51.301-30,87.301H256V211c41.4,0,75-33.6,75-75V0h60v136
	c0,24.899,20.099,45,45,45H451z"/>
<g>
</g>
<g>
</g>
<g>
</g>
<g>
</g>
<g>
</g>
<g>
</g>
<g>
</g>
<g>
</g>
<g>
</g>
<g>
</g>
<g>
</g>
<g>
</g>
<g>
</g>
<g>
</g>
<g>
</g>
</svg>
