<?xml version="1.0" encoding="iso-8859-1"?>
<!-- Generator: Adobe Illustrator 19.0.0, SVG Export Plug-In . SVG Version: 6.00 Build 0)  -->
<svg version="1.1" id="Capa_1" xmlns="http://www.w3.org/2000/svg" xmlns:xlink="http://www.w3.org/1999/xlink" x="0px" y="0px"
	 viewBox="0 0 512 512" style="enable-background:new 0 0 512 512;" xml:space="preserve">
<polygon style="fill:#68544F;" points="327.1,229.9 256,262.899 82.301,343.9 69.699,316.599 256,229.9 314.5,202.599 "/>
<polygon style="fill:#53433F;" points="327.1,229.9 256,262.899 256,229.9 314.5,202.599 "/>
<path style="fill:#68544F;" d="M448.4,406c-24.901,41.1-58.5,76.5-96.601,89.099L349.401,496h-188.2
	C123.1,483.399,89.5,447.4,64.3,406L256,376L448.4,406z"/>
<path style="fill:#53433F;" d="M256,376l192.4,30c-24.901,41.1-58.5,76.5-96.601,89.099L349.401,496H256V376z"/>
<path style="fill:#FF9F00;" d="M481.099,335.799C473.599,358.9,462.201,383.2,448.4,406H64.3c-13.5-22.8-24.899-47.1-32.399-70.201
	H481.099z"/>
<g>
	<path style="fill:#FF7816;" d="M481.099,335.799C473.599,358.9,462.201,383.2,448.4,406H256v-70.201H481.099z"/>
	<path style="fill:#FF7816;" d="M326.137,263.354l-38.042-81.563l108.75-50.728l38.042,81.563L326.137,263.354z"/>
</g>
<path style="fill:#FED2A4;" d="M286,46h-30.3c-14.099-18.6-36.299-30-59.7-30H91v15c0,41.4,33.6,75,75,75h30.3
	c14.099,18.6,36.299,30,59.7,30h105v-15C361,79.6,327.4,46,286,46z"/>
<path style="fill:#FFBD86;" d="M361,136H256V46h30c41.4,0,75,33.6,75,75V136z"/>
<rect y="316" style="fill:#725D57;" width="512" height="30"/>
<rect x="256" y="316" style="fill:#68544F;" width="256" height="30"/>
<g>
</g>
<g>
</g>
<g>
</g>
<g>
</g>
<g>
</g>
<g>
</g>
<g>
</g>
<g>
</g>
<g>
</g>
<g>
</g>
<g>
</g>
<g>
</g>
<g>
</g>
<g>
</g>
<g>
</g>
</svg>
