<?xml version="1.0" encoding="iso-8859-1"?>
<!-- Generator: Adobe Illustrator 19.0.0, SVG Export Plug-In . SVG Version: 6.00 Build 0)  -->
<svg version="1.1" id="Capa_1" xmlns="http://www.w3.org/2000/svg" xmlns:xlink="http://www.w3.org/1999/xlink" x="0px" y="0px"
	 viewBox="0 0 512 512" style="enable-background:new 0 0 512 512;" xml:space="preserve">
<rect x="391" y="188.5" style="fill:#725D57;" width="30" height="90"/>
<rect x="406" y="188.5" style="fill:#68544F;" width="15" height="90"/>
<rect x="361" y="248.5" style="fill:#FF9F00;" width="90" height="135"/>
<rect x="406" y="248.5" style="fill:#FF7816;" width="45" height="135"/>
<path style="fill:#FFD400;" d="M445,151l-39-67.5L367,151c-3.9,6.899-6,14.7-6,22.5c0,24.899,20.099,45,45,45s45-20.101,45-45
	C451,165.7,448.9,157.899,445,151z"/>
<path style="fill:#FDBF00;" d="M406,218.5v-135l39,67.5c3.9,6.899,6,14.7,6,22.5C451,198.399,430.901,218.5,406,218.5z"/>
<rect x="241" y="158.5" style="fill:#725D57;" width="30" height="90"/>
<rect x="256" y="158.5" style="fill:#68544F;" width="15" height="90"/>
<path style="fill:#FFD400;" d="M295,121l-39-67.5L217,121c-3.9,6.899-6,14.7-6,22.5c0,24.899,20.099,45,45,45s45-20.101,45-45
	C301,135.7,298.9,127.899,295,121z"/>
<path style="fill:#FDBF00;" d="M256,188.5v-135l39,67.5c3.9,6.899,6,14.7,6,22.5C301,168.399,280.901,188.5,256,188.5z"/>
<polygon style="fill:#FF9F00;" points="331,239.799 331,383.5 187.301,383.5 211,353.5 181,347.199 181,218.5 309.699,218.5 
	301,248.5 "/>
<g>
	<polygon style="fill:#FF7816;" points="331,239.799 331,383.5 256,383.5 256,218.5 309.699,218.5 301,248.5 	"/>
	<polygon style="fill:#FF7816;" points="331,218.5 331,239.799 256,314.799 187.301,383.5 181,383.5 181,347.199 309.699,218.5 	"/>
</g>
<polygon style="fill:#FF4B00;" points="331,218.5 331,239.799 256,314.799 256,272.199 309.699,218.5 "/>
<rect x="91" y="188.5" style="fill:#725D57;" width="30" height="90"/>
<rect x="106" y="188.5" style="fill:#68544F;" width="15" height="90"/>
<rect x="61" y="248.5" style="fill:#FF9F00;" width="90" height="135"/>
<rect x="106" y="248.5" style="fill:#FF7816;" width="45" height="135"/>
<path style="fill:#68544F;" d="M481,383.5c0,41.4-33.6,75-75,75H106c-41.4,0-75-33.6-75-75H481z"/>
<path style="fill:#FFD400;" d="M145,151l-39-67.5L67,151c-3.9,6.899-6,14.7-6,22.5c0,24.899,20.099,45,45,45s45-20.101,45-45
	C151,165.7,148.9,157.899,145,151z"/>
<path style="fill:#FDBF00;" d="M106,218.5v-135l39,67.5c3.9,6.899,6,14.7,6,22.5C151,198.399,130.901,218.5,106,218.5z"/>
<path style="fill:#53433F;" d="M481,383.5c0,41.4-33.6,75-75,75H256v-75H481z"/>
<rect y="368.5" style="fill:#725D57;" width="512" height="30"/>
<rect x="256" y="368.5" style="fill:#68544F;" width="256" height="30"/>
<g>
</g>
<g>
</g>
<g>
</g>
<g>
</g>
<g>
</g>
<g>
</g>
<g>
</g>
<g>
</g>
<g>
</g>
<g>
</g>
<g>
</g>
<g>
</g>
<g>
</g>
<g>
</g>
<g>
</g>
</svg>
