<?xml version="1.0" encoding="iso-8859-1"?>
<!-- Generator: Adobe Illustrator 19.0.0, SVG Export Plug-In . SVG Version: 6.00 Build 0)  -->
<svg version="1.1" id="Capa_1" xmlns="http://www.w3.org/2000/svg" xmlns:xlink="http://www.w3.org/1999/xlink" x="0px" y="0px"
	 viewBox="0 0 512 512" style="enable-background:new 0 0 512 512;" xml:space="preserve">
<path style="fill:#725D57;" d="M418.001,432.8l-31.8,79.2H271l-15-45l-15,45H125.799l-31.8-79.2c-16.8-42.3-15.298-89.7,2.701-130.8
	L256,271l159.3,31C433.299,343.1,434.801,390.5,418.001,432.8z"/>
<path style="fill:#68544F;" d="M418.001,432.8l-31.8,79.2H271l-15-45V271l159.3,31C433.299,343.1,434.801,390.5,418.001,432.8z"/>
<polygon style="fill:#725D57;" points="393.401,0 371.8,151 256,181 140.2,151 118.599,0 "/>
<polygon style="fill:#68544F;" points="371.8,151 256,181 256,0 393.401,0 "/>
<path style="fill:#FED2A4;" d="M415.3,302H96.7c5.099-11.7,11.4-23.8,19.2-34.001c22.2-29.7,31.5-66.299,26.4-102.9L140.2,151h231.6
	l-2.1,14.099c-5.099,36.601,4.2,73.2,26.4,102.9C403.9,278.2,410.2,290.3,415.3,302z"/>
<path style="fill:#FFBD86;" d="M415.3,302H256V151h115.8l-2.1,14.099c-5.099,36.601,4.2,73.2,26.4,102.9
	C403.9,278.2,410.2,290.3,415.3,302z"/>
<rect x="241" y="377" style="fill:#53433F;" width="30" height="135"/>
<rect x="241" y="211" style="fill:#FFBD86;" width="30" height="30"/>
<rect x="256" y="377" style="fill:#3E322E;" width="15" height="135"/>
<rect x="256" y="211" style="fill:#F6A96C;" width="15" height="30"/>
<g>
</g>
<g>
</g>
<g>
</g>
<g>
</g>
<g>
</g>
<g>
</g>
<g>
</g>
<g>
</g>
<g>
</g>
<g>
</g>
<g>
</g>
<g>
</g>
<g>
</g>
<g>
</g>
<g>
</g>
</svg>
