<?xml version="1.0" encoding="iso-8859-1"?>
<!-- Generator: Adobe Illustrator 19.0.0, SVG Export Plug-In . SVG Version: 6.00 Build 0)  -->
<svg version="1.1" id="Capa_1" xmlns="http://www.w3.org/2000/svg" xmlns:xlink="http://www.w3.org/1999/xlink" x="0px" y="0px"
	 viewBox="0 0 512 512" style="enable-background:new 0 0 512 512;" xml:space="preserve">
<path style="fill:#18DBDB;" d="M411.91,200.183c-1.799-2.4-3.598-4.796-5.397-6.595L256,0L105.488,193.287
	c-1.799,2.099-3.598,4.496-5.397,6.895c-25.484,33.88-38.977,74.355-38.977,116.932C61.114,424.45,148.662,512,256,512
	s194.886-87.55,194.886-194.886C450.886,274.538,437.394,234.063,411.91,200.183z"/>
<path style="fill:#00B3BD;" d="M450.886,317.114C450.886,424.45,363.338,512,256,512V0l150.513,193.587
	c1.799,1.799,3.598,4.197,5.397,6.595C437.394,234.063,450.886,274.538,450.886,317.114z"/>
<path style="fill:#68F2EE;" d="M363.638,235.862L256,99.142l-107.936,137.02c-17.691,23.385-26.985,51.569-26.985,80.953
	c0,74.355,60.566,134.921,134.921,134.921s134.921-60.566,134.921-134.921C390.921,287.73,381.626,259.547,363.638,235.862z"/>
<path style="fill:#18DBDB;" d="M390.921,317.114c0,74.355-60.566,134.921-134.921,134.921V99.142l107.638,136.72
	C381.626,259.547,390.921,287.73,390.921,317.114z"/>
<path style="fill:#AEFDFF;" d="M316.566,273.039L256,195.984l-59.965,76.156c-9.895,13.192-14.991,28.483-14.991,44.974
	c0,41.376,33.58,74.956,74.956,74.956s74.956-33.58,74.956-74.956C330.956,300.625,326.16,285.634,316.566,273.039z"/>
<path style="fill:#68F2EE;" d="M330.956,317.114c0,41.376-33.58,74.956-74.956,74.956V195.984l60.566,77.055
	C326.16,285.634,330.956,300.625,330.956,317.114z"/>
<g>
</g>
<g>
</g>
<g>
</g>
<g>
</g>
<g>
</g>
<g>
</g>
<g>
</g>
<g>
</g>
<g>
</g>
<g>
</g>
<g>
</g>
<g>
</g>
<g>
</g>
<g>
</g>
<g>
</g>
</svg>
