<?xml version="1.0" encoding="iso-8859-1"?>
<!-- Generator: Adobe Illustrator 19.0.0, SVG Export Plug-In . SVG Version: 6.00 Build 0)  -->
<svg version="1.1" id="Capa_1" xmlns="http://www.w3.org/2000/svg" xmlns:xlink="http://www.w3.org/1999/xlink" x="0px" y="0px"
	 viewBox="0 0 512 512" style="enable-background:new 0 0 512 512;" xml:space="preserve">
<path style="fill:#FED2A4;" d="M447.963,189.901C437.764,83.401,348.064,0,238.864,0c-9.901,0-20.099,0.601-30.3,2.1
	c-88.799,12.599-161.4,82.5-176.4,170.7c-11.7,68.101,8.701,135,56.4,183.9c19.501,19.799,30.3,45.899,30.3,73.2V512h210v-62h90V330
	h64.2C480.964,322.2,454.564,217.2,447.963,189.901z"/>
<path style="fill:#FFBD86;" d="M483.064,330h-64.2v120h-90v62h-90V0c109.2,0,198.9,83.401,209.099,189.901
	C454.564,217.2,480.964,322.2,483.064,330z"/>
<path style="fill:#FF7C96;" d="M188.766,187.852c-12.671-5.215-26.089-7.852-39.902-7.852h-45v45c0,57.891,47.109,105,105,105h30
	L188.766,187.852z"/>
<path style="fill:#FF5C7D;" d="M328.864,180c-13.813,0-27.231,2.637-39.902,7.852L238.864,330h30c57.891,0,105-47.109,105-105v-45
	H328.864z"/>
<g>
	<rect x="148.86" y="120" style="fill:#FF7C96;" width="30" height="30"/>
	<rect x="223.86" y="60" style="fill:#FF7C96;" width="30" height="30"/>
</g>
<g>
	<rect x="298.86" y="120" style="fill:#FF5C7D;" width="30" height="30"/>
	<rect x="238.86" y="60" style="fill:#FF5C7D;" width="15" height="30"/>
</g>
<path style="fill:#FF9AAE;" d="M247.265,122.401l-8.401-5.4l-8.401,5.4c-2.699,2.1-66.599,45.599-66.599,102.599
	c0,57.299,64.2,98.101,67.2,99.6l7.8,5.099l7.8-5.099c2.999-1.5,67.2-42.301,67.2-99.6
	C313.864,167.999,249.964,124.501,247.265,122.401z"/>
<path style="fill:#FF7C96;" d="M313.864,225c0,57.299-64.2,98.101-67.2,99.6l-7.8,5.099V117.001l8.401,5.4
	C249.964,124.501,313.864,167.999,313.864,225z"/>
<g>
</g>
<g>
</g>
<g>
</g>
<g>
</g>
<g>
</g>
<g>
</g>
<g>
</g>
<g>
</g>
<g>
</g>
<g>
</g>
<g>
</g>
<g>
</g>
<g>
</g>
<g>
</g>
<g>
</g>
</svg>
