<?xml version="1.0" encoding="iso-8859-1"?>
<!-- Generator: Adobe Illustrator 19.0.0, SVG Export Plug-In . SVG Version: 6.00 Build 0)  -->
<svg version="1.1" id="Capa_1" xmlns="http://www.w3.org/2000/svg" xmlns:xlink="http://www.w3.org/1999/xlink" x="0px" y="0px"
	 viewBox="0 0 512 512" style="enable-background:new 0 0 512 512;" xml:space="preserve">
<path style="fill:#18DBDB;" d="M481,452v60H106c-36.301,0-66.599-25.8-73.5-60c-0.899-4.799-1.5-39.901-1.5-45
	c0-20.7,8.401-39.6,21.899-53.101C66.4,340.401,85.3,332,106,332s39.6,8.401,53.101,21.899C172.599,367.4,181,386.3,181,407
	c0,5.099-0.601,10.201-1.5,15L316,435.5L481,452z"/>
<polygon style="fill:#00B3BD;" points="316,435.5 481,452 481,512 316,512 "/>
<polygon style="fill:#18DBDB;" points="481,60 481,120 358.299,150 316,144 151,120 151,60 "/>
<polygon style="fill:#00B3BD;" points="481,60 481,120 358.299,150 316,144 316,60 "/>
<rect x="91" y="120" style="fill:#68F2EE;" width="390" height="332"/>
<rect x="316" y="120" style="fill:#18DBDB;" width="165" height="332"/>
<path style="fill:#00B3BD;" d="M159.101,21.899C145.6,8.401,126.7,0,106,0C64.6,0,31,33.6,31,75v90h150V75
	C181,54.3,172.599,35.4,159.101,21.899z"/>
<path style="fill:#18DBDB;" d="M106,60c-41.4,0-75,33.6-75,75v198.5h150V135C181,93.6,147.4,60,106,60z"/>
<path style="fill:#00B3BD;" d="M181,333.5V437c0-20.7-8.401-39.6-21.899-53.101C145.6,370.401,126.7,362,106,362
	s-39.6,8.401-53.101,21.899C39.401,397.4,31,416.3,31,437V333.5c19.799-20.1,46.8-31.5,75-31.5S161.201,313.4,181,333.5z"/>
<g>
</g>
<g>
</g>
<g>
</g>
<g>
</g>
<g>
</g>
<g>
</g>
<g>
</g>
<g>
</g>
<g>
</g>
<g>
</g>
<g>
</g>
<g>
</g>
<g>
</g>
<g>
</g>
<g>
</g>
</svg>
