<?xml version="1.0" encoding="iso-8859-1"?>
<!-- Generator: Adobe Illustrator 19.0.0, SVG Export Plug-In . SVG Version: 6.00 Build 0)  -->
<svg version="1.1" id="Capa_1" xmlns="http://www.w3.org/2000/svg" xmlns:xlink="http://www.w3.org/1999/xlink" x="0px" y="0px"
	 viewBox="0 0 512 512" style="enable-background:new 0 0 512 512;" xml:space="preserve">
<path style="fill:#AEFDFF;" d="M509.9,285.599c-3.6,30.3-12.599,58.801-25.8,85.201c-4.2,7.5-38.401,15-42.9,22.2
	c-5.4,8.101,19.2,16.201,12.9,23.401C407.3,473.399,335.501,512,256,512s-151.3-38.601-198.1-95.6
	c-6.599-8.101,17.1-16.501,11.7-25.501c-4.2-6.599-38.101-13.2-41.7-20.099c-13.2-26.4-22.2-54.901-25.8-85.499
	C0.901,275.4,30,295.199,30,285c0-3.3-29.399-36-29.399-39.3C1.5,219.899,6,195,14.099,171.899c2.1-6,34.501,17.999,36.901,12.301
	c2.1-4.801-25.501-39.6-23.401-44.401c10.501-20.4,23.701-39.3,39.3-56.1c5.101-5.7,40.201,48.9,45.601,43.801
	c2.701-2.701-21.301-58.801-21.301-67.2c0-0.3,0-0.901,0.3-0.901c18.3-15,38.401-27.599,60-37.2c3.001,0,33.3,27.599,36,27.599
	c4.799-2.1-20.099-33.9-15-35.7C193.2,6.599,227.8,0,256,0c31.199,0,64.6,7.2,83.5,14.099c2.999,0.901-24,32.1-21.301,33.001
	C322.4,48.9,356.3,20.4,360.5,22.2c21.599,9.6,41.7,22.2,59.7,37.2c3.3,2.701-23.699,65.4-20.7,68.101
	C404.9,132.6,440.3,78,445.401,83.7c15.298,16.8,28.499,35.7,38.699,56.1c3.3,6.301-23.699,42.9-21,49.501
	c1.8,4.2,33.3-21.601,34.801-17.1C506,195.3,510.5,219.6,511.399,245.099c0,3.6-29.399,36.601-29.399,39.901
	C482,295.499,511.099,275.4,509.9,285.599z"/>
<g>
	<path style="fill:#68F2EE;" d="M509.9,285.599c-3.6,30.3-12.599,58.801-25.8,85.201c-4.2,7.5-38.401,15-42.9,22.2
		c-5.4,8.101,19.2,16.201,12.9,23.401C407.3,473.399,335.501,512,256,512V0c31.199,0,64.6,7.2,83.5,14.099
		c2.999,0.901-24,32.1-21.301,33.001C322.4,48.9,356.3,20.4,360.5,22.2c21.599,9.6,41.7,22.2,59.7,37.2
		c3.3,2.701-23.699,65.4-20.7,68.101C404.9,132.6,440.3,78,445.401,83.7c15.298,16.8,28.499,35.7,38.699,56.1
		c3.3,6.301-23.699,42.9-21,49.501c1.8,4.2,33.3-21.601,34.801-17.1C506,195.3,510.5,219.6,511.399,245.099
		c0,3.6-29.399,36.601-29.399,39.901C482,295.499,511.099,275.4,509.9,285.599z"/>
	<path style="fill:#68F2EE;" d="M360.5,22.2C352.7,47.999,303.999,60,256,60s-96.7-12.001-104.5-37.8
		c6.901-2.999,13.801-5.7,21-8.101c13.5,7.2,33.1,12.001,53.2,14.101c4.2,0.599,8.101,0.899,12.301,1.199
		C243.701,29.7,249.699,30,256,30s12.299-0.3,17.999-0.601c4.2-0.3,8.101-0.601,12.301-1.199c20.1-2.1,39.7-6.901,53.2-14.101
		C346.7,16.5,353.599,19.2,360.5,22.2z"/>
	<path style="fill:#68F2EE;" d="M484.1,370.8c-8.401,16.199-18.3,31.8-30,45.601C394.999,438.6,328.299,450,256,450
		c-71.7,0-138.999-11.1-198.1-33.6c-11.7-13.801-21.599-29.401-30-45.601C93.6,403.2,170.799,420,256,420
		C341.499,420,418.7,403.2,484.1,370.8z"/>
	<path style="fill:#68F2EE;" d="M512,255c0,10.499-0.901,20.4-2.1,30.599C456.2,325.8,374.801,360,256,360
		c-120,0-201.4-35.4-253.9-74.7C0.901,275.4,0,265.199,0,255c0-3.3,0.3-6.301,0.601-9.3C47.401,287.399,127.599,330,256,330
		c127.2,0,207.1-41.1,255.399-84.901C511.7,248.399,512,251.7,512,255z"/>
	<path style="fill:#68F2EE;" d="M497.901,172.2C449.599,234.899,364.3,270,256,270c-107.701,0-193.001-35.4-241.901-98.101
		c3.9-11.1,8.401-21.599,13.5-32.1C68.401,203.699,150.399,240,256,240c106.5,0,187.899-36.301,228.1-100.201
		C489.5,150.3,494.001,161.1,497.901,172.2z"/>
	<path style="fill:#68F2EE;" d="M445.401,83.699C431.6,122.999,388.001,180,256,180c-95.099,0-143.5-30.901-166.3-57.001
		c-10.499-11.7-17.999-25.199-22.8-39.3c7.8-8.699,15.901-16.8,24.6-24.3c2.701,16.199,9.6,31.199,20.7,43.801
		c27,30.599,77.499,46.8,143.8,46.8c94.2,0,155.2-33.9,164.2-90.601C429.2,66.899,437.3,75,445.401,83.699z"/>
</g>
<g>
	<path style="fill:#18DBDB;" d="M256,60V30c6.301,0,12.299-0.3,17.999-0.601c4.2-0.3,8.101-0.601,12.301-1.199
		c20.1-2.1,39.7-6.901,53.2-14.101c7.2,2.401,14.099,5.101,21,8.101C352.7,47.999,303.999,60,256,60z"/>
	<path style="fill:#18DBDB;" d="M256,180v-30c94.2,0,155.2-33.9,164.2-90.601c9,7.5,17.1,15.601,25.201,24.3
		C431.6,122.999,388.001,180,256,180z"/>
	<path style="fill:#18DBDB;" d="M256,420c85.499,0,162.7-16.8,228.1-49.2c-8.401,16.199-18.3,31.8-30,45.601
		C394.999,438.6,328.299,450,256,450V420z"/>
	<path style="fill:#18DBDB;" d="M256,270v-30c106.5,0,187.899-36.301,228.1-100.201c5.4,10.501,9.901,21.301,13.801,32.401
		C449.599,234.899,364.3,270,256,270z"/>
	<path style="fill:#18DBDB;" d="M512,255c0,10.499-0.901,20.4-2.1,30.599C456.2,325.8,374.801,360,256,360v-30
		c127.2,0,207.1-41.1,255.399-84.901C511.7,248.399,512,251.7,512,255z"/>
</g>
<g>
</g>
<g>
</g>
<g>
</g>
<g>
</g>
<g>
</g>
<g>
</g>
<g>
</g>
<g>
</g>
<g>
</g>
<g>
</g>
<g>
</g>
<g>
</g>
<g>
</g>
<g>
</g>
<g>
</g>
</svg>
