<?xml version="1.0" encoding="iso-8859-1"?>
<!-- Generator: Adobe Illustrator 19.0.0, SVG Export Plug-In . SVG Version: 6.00 Build 0)  -->
<svg version="1.1" id="Capa_1" xmlns="http://www.w3.org/2000/svg" xmlns:xlink="http://www.w3.org/1999/xlink" x="0px" y="0px"
	 viewBox="0 0 512 512" style="enable-background:new 0 0 512 512;" xml:space="preserve">
<rect x="180" y="106" style="fill:#E2E2E7;" width="30" height="60"/>
<rect x="195" y="106" style="fill:#D3D3D8;" width="15" height="60"/>
<path style="fill:#E2E2E7;" d="M390,151c0,36-20.099,69.899-56.1,95.099l-17.401-24.6C344.7,202,360,177.1,360,151
	c0-57.9-74.099-105-165-105S30,93.1,30,151c0,26.1,15.3,51,43.5,70.499l-17.401,24.6C20.099,220.899,0,187,0,151
	C0,76.599,87.599,16,195,16S390,76.599,390,151z"/>
<path style="fill:#D3D3D8;" d="M390,151c0,36-20.099,69.899-56.1,95.099l-17.401-24.6C344.7,202,360,177.1,360,151
	c0-57.9-74.099-105-165-105V16C302.401,16,390,76.599,390,151z"/>
<path style="fill:#68544F;" d="M300,211H90c0-41.4,33.6-75,75-75h60C266.4,136,300,169.6,300,211z"/>
<g>
	<path style="fill:#53433F;" d="M300,211H195v-75h30C266.4,136,300,169.6,300,211z"/>
	<path style="fill:#53433F;" d="M439.189,226l-3.413,10.254c-10.737,32.197-54.067,57.422-72.202,66.782l1.084,126.87
		C450.234,407.89,512,330.722,512,241v-15H439.189z"/>
</g>
<path style="fill:#725D57;" d="M306.301,198.699l-3.9-2.699H87.599l-3.9,2.699C31.199,234.099,0,292.899,0,356.199
	C0,419.2,40.201,475.899,100.201,496h187.2C290.4,493.9,390,465.399,390,356.199C390,292.899,358.801,234.099,306.301,198.699z"/>
<path style="fill:#68544F;" d="M390,356.199C390,465.399,290.4,493.9,287.401,496H195V196h107.401l3.9,2.699
	C358.801,234.099,390,292.899,390,356.199z"/>
<path style="fill:#40DA80;" d="M240,436h-45c-57.9,0-105-47.1-105-105v-15h45c21.599,0,42.299,6.599,60,18.9
	c3.9,2.399,7.5,5.4,10.8,8.399L240,436z"/>
<path style="fill:#19BD9C;" d="M240,436h-45V334.9c3.9,2.399,7.5,5.4,10.8,8.399L240,436z"/>
<path style="fill:#6AE390;" d="M247.8,288.1l-7.8-4.501l-7.8,4.501c-3.3,2.1-23.101,14.399-37.2,32.999
	c-8.401,11.1-15,24.6-15,39.901s6.599,28.799,15,39.899c14.099,18.602,33.9,30.901,37.2,33.001l7.8,4.499l7.8-4.499
	c5.099-3.3,52.2-32.401,52.2-72.9C300,320.499,252.9,291.4,247.8,288.1z"/>
<path style="fill:#40DA80;" d="M300,361c0,40.499-47.1,69.6-52.2,72.9l-7.8,4.499l-7.8-4.499c-3.3-2.1-23.101-14.399-37.2-33.001
	V321.1c14.099-18.6,33.9-30.899,37.2-32.999l7.8-4.501l7.8,4.501C252.9,291.4,300,320.499,300,361z"/>
<g>
</g>
<g>
</g>
<g>
</g>
<g>
</g>
<g>
</g>
<g>
</g>
<g>
</g>
<g>
</g>
<g>
</g>
<g>
</g>
<g>
</g>
<g>
</g>
<g>
</g>
<g>
</g>
<g>
</g>
</svg>
