<?xml version="1.0" encoding="iso-8859-1"?>
<!-- Generator: Adobe Illustrator 19.0.0, SVG Export Plug-In . SVG Version: 6.00 Build 0)  -->
<svg version="1.1" id="Capa_1" xmlns="http://www.w3.org/2000/svg" xmlns:xlink="http://www.w3.org/1999/xlink" x="0px" y="0px"
	 viewBox="0 0 512 512" style="enable-background:new 0 0 512 512;" xml:space="preserve">
<path style="fill:#FF4B00;" d="M440.644,424.384c-0.161-1.875-4.292-46.582-24.712-102.949l-28.213,10.225l-56.045,56.074
	l-10.225,28.213c56.367,20.405,101.06,24.536,102.935,24.697l17.827,1.582L440.644,424.384z"/>
<path style="fill:#FF7816;" d="M87.616,71.356l-17.842-1.567l1.582,17.827c0.161,1.875,4.292,46.567,24.697,102.935l28.213-10.225
	l56.074-56.045l10.225-28.213C134.198,75.648,89.491,71.518,87.616,71.356z"/>
<path style="fill:#FF4B00;" d="M424.384,71.356c-1.875,0.161-46.567,4.292-102.935,24.697l10.225,28.213l56.06,56.06l28.213,10.225
	c20.405-56.367,24.536-101.06,24.697-102.935l1.582-17.842L424.384,71.356z"/>
<path style="fill:#FF7816;" d="M180.341,387.719l-56.06-56.06l-28.213-10.225c-20.42,56.367-24.551,101.074-24.712,102.949
	l-1.567,17.827l17.827-1.567c1.875-0.161,46.582-4.292,102.949-24.712L180.341,387.719z"/>
<path style="fill:#FF9F00;" d="M480.099,242.199c-18.6-8.101-33.6-21.301-42.299-37.2c-16.199-29.101-45.3-48.6-77.701-53.101
	c-4.499-32.399-24-61.5-53.099-77.699c-15.901-8.701-29.101-24.701-37.2-43.301L256,0l-13.801,30.899
	C234.401,48.6,220.6,64.9,202.301,76c-27.601,16.199-45.901,44.7-50.4,75.899C119.5,156.4,90.399,175.899,74.2,205
	c-8.699,15.899-24.699,29.099-43.299,37.2L0,256l30.901,13.799C48.6,277.599,64.9,291.4,76,309.699
	c16.199,27.599,44.7,45.901,75.901,50.4c4.499,31.201,22.798,59.7,50.4,75.901c18.3,11.1,32.1,26.4,39.899,44.099L256,512
	l13.801-31.901c8.099-18.6,21.299-33.6,37.2-42.299c29.099-16.201,48.6-45.3,53.099-77.701c31.201-4.499,59.702-22.8,75.901-50.4
	c11.1-18.3,26.4-32.1,44.099-39.901L512,256L480.099,242.199z"/>
<path style="fill:#FF7816;" d="M512,256l-31.901,13.799c-17.699,7.8-32.999,21.601-44.099,39.9
	c-16.199,27.599-44.7,45.901-75.901,50.4c-4.499,32.401-24,61.5-53.099,77.701c-15.901,8.699-29.101,23.699-37.2,42.299L256,512V0
	l13.801,30.899c8.099,18.6,21.299,34.6,37.2,43.301c29.099,16.199,48.6,45.3,53.099,77.699c32.401,4.501,61.501,24,77.701,53.101
	c8.699,15.899,23.699,29.099,42.299,37.2L512,256z"/>
<path style="fill:#FDBF00;" d="M256,121c-74.399,0-135,60.599-135,135c0,74.399,60.601,135,135,135s135-60.601,135-135
	C391,181.599,330.399,121,256,121z"/>
<path style="fill:#FF9F00;" d="M391,256c0,74.399-60.601,135-135,135V121C330.399,121,391,181.599,391,256z"/>
<path style="fill:#ECECF1;" d="M256,181c-41.4,0-75,33.6-75,75s33.6,75,75,75s75-33.6,75-75S297.4,181,256,181z"/>
<path style="fill:#E2E2E7;" d="M331,256c0,41.4-33.6,75-75,75V181C297.4,181,331,214.6,331,256z"/>
<g>
</g>
<g>
</g>
<g>
</g>
<g>
</g>
<g>
</g>
<g>
</g>
<g>
</g>
<g>
</g>
<g>
</g>
<g>
</g>
<g>
</g>
<g>
</g>
<g>
</g>
<g>
</g>
<g>
</g>
</svg>
