<?xml version="1.0" encoding="iso-8859-1"?>
<!-- Generator: Adobe Illustrator 19.0.0, SVG Export Plug-In . SVG Version: 6.00 Build 0)  -->
<svg version="1.1" id="Capa_1" xmlns="http://www.w3.org/2000/svg" xmlns:xlink="http://www.w3.org/1999/xlink" x="0px" y="0px"
	 viewBox="0 0 512 512" style="enable-background:new 0 0 512 512;" xml:space="preserve">
<polygon style="fill:#FF7C96;" points="512,331 0,331 16.199,186.099 151,119.2 256,171.7 361,119.2 495.801,186.099 "/>
<polygon style="fill:#FF5C87;" points="512,331 256,331 256,171.7 361,119.2 495.801,186.099 "/>
<polygon style="fill:#78FCF8;" points="410.501,512 101.499,512 122.199,366.099 213.401,320.499 298.599,320.499 389.801,366.099 
	"/>
<polygon style="fill:#02D9D5;" points="410.501,512 256,512 256,320.499 298.599,320.499 389.801,366.099 "/>
<path style="fill:#ECECF1;" d="M286,371.199c-11.4,0-21.899,4.2-30,11.4c-8.101-7.2-18.6-11.4-30-11.4c-26.1,0-45,20.4-45,48.9
	c0,34.2,30,53.8,58.5,78.701L256,512l22.2-16.8c27.301-23.701,52.8-43.301,52.8-75.101C331,391.599,312.1,371.199,286,371.199z"/>
<path style="fill:#E2E2E7;" d="M331,420.099c0,31.8-25.499,51.4-52.8,75.101L256,512V382.599c8.101-7.2,18.6-11.4,30-11.4
	C312.1,371.199,331,391.599,331,420.099z"/>
<path style="fill:#78FCF8;" d="M316,271v30c0,32.999-27.001,60-60,60s-60-27.001-60-60v-30c0-33.001,27.001-60,60-60
	c16.5,0,31.5,6.599,42.299,17.699C309.401,239.5,316,254.5,316,271z"/>
<path style="fill:#02D9D5;" d="M316,271v30c0,32.999-27.001,60-60,60V211c16.5,0,31.5,6.599,42.299,17.699
	C309.401,239.5,316,254.5,316,271z"/>
<path style="fill:#FF7C96;" d="M211,60v31c0,32.999-27.001,60-60,60s-60-27.001-60-60V60c0-33.001,27.001-60,60-60
	c16.5,0,31.5,6.599,42.299,17.699C204.401,28.5,211,43.5,211,60z"/>
<path style="fill:#FF5C87;" d="M421,60v31c0,32.999-27.001,60-60,60s-60-27.001-60-60V60c0-33.001,27.001-60,60-60
	c16.5,0,31.5,6.599,42.299,17.699C414.401,28.5,421,43.5,421,60z"/>
<g>
</g>
<g>
</g>
<g>
</g>
<g>
</g>
<g>
</g>
<g>
</g>
<g>
</g>
<g>
</g>
<g>
</g>
<g>
</g>
<g>
</g>
<g>
</g>
<g>
</g>
<g>
</g>
<g>
</g>
</svg>
