<?xml version="1.0" encoding="iso-8859-1"?>
<!-- Generator: Adobe Illustrator 19.0.0, SVG Export Plug-In . SVG Version: 6.00 Build 0)  -->
<svg version="1.1" id="Capa_1" xmlns="http://www.w3.org/2000/svg" xmlns:xlink="http://www.w3.org/1999/xlink" x="0px" y="0px"
	 viewBox="0 0 512 512" style="enable-background:new 0 0 512 512;" xml:space="preserve">
<polygon style="fill:#FFBD86;" points="421,90 421,350.499 361,440.499 361,512 241,512 151,271 151,30 218.5,30 218.5,0 286,0 
	286,30 353.5,30 353.5,90 "/>
<polygon style="fill:#F6A96C;" points="421,90 421,350.499 361,440.499 361,512 256,512 256,0 286,0 286,30 353.5,30 353.5,90 "/>
<path style="fill:#FED2A4;" d="M151,271c0-3.333,0-63.246,0-60c0-32.741-26.735-61-60-61c0,13.135,0,210.094,0,202.299l90,90V512h60
	V361C241,311.499,200.501,271,151,271z"/>
<g>
</g>
<g>
</g>
<g>
</g>
<g>
</g>
<g>
</g>
<g>
</g>
<g>
</g>
<g>
</g>
<g>
</g>
<g>
</g>
<g>
</g>
<g>
</g>
<g>
</g>
<g>
</g>
<g>
</g>
</svg>
