<?xml version="1.0" encoding="iso-8859-1"?>
<!-- Generator: Adobe Illustrator 19.0.0, SVG Export Plug-In . SVG Version: 6.00 Build 0)  -->
<svg version="1.1" id="Capa_1" xmlns="http://www.w3.org/2000/svg" xmlns:xlink="http://www.w3.org/1999/xlink" x="0px" y="0px"
	 viewBox="0 0 512 512" style="enable-background:new 0 0 512 512;" xml:space="preserve">
<g>
	<path style="fill:#19BD9C;" d="M378.1,271h-75v-15c0-41.353,33.647-75,75-75h75v15C453.1,237.353,419.453,271,378.1,271z"/>
	<path style="fill:#19BD9C;" d="M378.1,451h-75v-15c0-41.353,33.647-75,75-75h75v15C453.1,417.353,419.453,451,378.1,451z"/>
	<path style="fill:#19BD9C;" d="M228.1,150h-75v-15c0-41.353,33.647-75,75-75h75v15C303.1,116.353,269.453,150,228.1,150z"/>
</g>
<path style="fill:#6AE390;" d="M182.5,493.4l4.801,18.6H58.9l4.801-18.6C81.7,421.099,82.301,343.599,66.1,271l26.4-15l-26.4-15
	c16.201-72.9,15.6-150.101-2.399-222.4L58.9,0h128.401L182.5,18.6c-18,72.299-18.6,149.5-2.399,222.4l-26.4,15l26.4,15
	C163.9,343.599,164.5,421.099,182.5,493.4z"/>
<g>
	<path style="fill:#40DA80;" d="M182.5,493.4l4.801,18.6h-64.2V0h64.2L182.5,18.6c-18,72.299-18.6,149.5-2.399,222.4l-26.4,15
		l26.4,15C163.9,343.599,164.5,421.099,182.5,493.4z"/>
	<path style="fill:#40DA80;" d="M183.701,256l-1.201,3.6c-0.899,3.9-1.5,7.5-2.399,11.4H66.099c-0.899-3.9-1.5-7.5-2.399-11.4
		l-1.2-3.6l1.201-3.6c0.899-3.9,1.5-7.5,2.399-11.4h114.001c0.899,3.9,1.5,7.5,2.399,11.4L183.701,256z"/>
</g>
<path style="fill:#19BD9C;" d="M183.701,256l-1.201,3.6c-0.899,3.9-1.5,7.5-2.399,11.4H123.1v-30h57.001
	c0.899,3.9,1.5,7.5,2.399,11.4L183.701,256z"/>
<path style="fill:#6AE390;" d="M332.5,259.6l4.801-18.6H208.9l4.801,18.6c18.9,76.199,18.9,157.599,0,233.8L208.9,512h128.401
	l-4.801-18.6C313.599,417.199,313.599,335.799,332.5,259.6z"/>
<path style="fill:#40DA80;" d="M332.5,493.4l4.801,18.6h-64.2V241h64.2l-4.801,18.6C313.599,335.799,313.599,417.199,332.5,493.4z"
	/>
<g>
</g>
<g>
</g>
<g>
</g>
<g>
</g>
<g>
</g>
<g>
</g>
<g>
</g>
<g>
</g>
<g>
</g>
<g>
</g>
<g>
</g>
<g>
</g>
<g>
</g>
<g>
</g>
<g>
</g>
</svg>
