<?xml version="1.0" encoding="iso-8859-1"?>
<!-- Generator: Adobe Illustrator 19.0.0, SVG Export Plug-In . SVG Version: 6.00 Build 0)  -->
<svg version="1.1" id="Capa_1" xmlns="http://www.w3.org/2000/svg" xmlns:xlink="http://www.w3.org/1999/xlink" x="0px" y="0px"
	 viewBox="0 0 512 512" style="enable-background:new 0 0 512 512;" xml:space="preserve">
<g>
	<rect x="241" style="fill:#FDBF00;" width="30" height="76"/>
	
		<rect x="30.149" y="132.242" transform="matrix(-0.8661 -0.4999 0.4999 -0.8661 52.6141 308.5795)" style="fill:#FDBF00;" width="74.98" height="30"/>
	
		<rect x="52.618" y="327.264" transform="matrix(-0.4999 -0.8661 0.8661 -0.4999 -214.4891 605.6552)" style="fill:#FDBF00;" width="30" height="74.98"/>
	<rect y="241" style="fill:#FDBF00;" width="76" height="30"/>
</g>
<g>
	
		<rect x="429.356" y="109.764" transform="matrix(-0.4999 -0.8661 0.8661 -0.4999 538.9522 605.7165)" style="fill:#FF9F00;" width="30" height="74.98"/>
	<rect x="436" y="241" style="fill:#FF9F00;" width="76" height="30"/>
</g>
<g>
	
		<rect x="132.254" y="406.884" transform="matrix(-0.8661 -0.4999 0.4999 -0.8661 52.6501 902.8515)" style="fill:#FDBF00;" width="30" height="74.98"/>
	<rect x="241" y="436" style="fill:#FDBF00;" width="30" height="76"/>
</g>
<g>
	
		<rect x="349.762" y="30.132" transform="matrix(-0.8661 -0.4999 0.4999 -0.8661 646.8738 308.5313)" style="fill:#FF9F00;" width="30" height="74.98"/>
	
		<rect x="327.234" y="429.369" transform="matrix(-0.4999 -0.8661 0.8661 -0.4999 162.1853 982.3887)" style="fill:#FF9F00;" width="74.98" height="30"/>
	
		<rect x="406.92" y="349.75" transform="matrix(-0.8661 -0.4999 0.4999 -0.8661 646.9717 902.8132)" style="fill:#FF9F00;" width="74.98" height="30"/>
</g>
<rect x="109.744" y="52.63" transform="matrix(-0.4999 -0.8661 0.8661 -0.4999 162.2616 228.9559)" style="fill:#FDBF00;" width="74.98" height="30"/>
<g>
	<rect x="256" style="fill:#FF9F00;" width="15" height="76"/>
	<rect x="256" y="436" style="fill:#FF9F00;" width="15" height="76"/>
</g>
<path style="fill:#FDBF00;" d="M256,61C148.599,61,61,148.599,61,256c0,107.399,87.599,195,195,195s195-87.601,195-195
	C451,148.599,363.401,61,256,61z"/>
<path style="fill:#FF9F00;" d="M451,256c0,107.399-87.599,195-195,195V61C363.401,61,451,148.599,451,256z"/>
<path style="fill:#FFD400;" d="M256,91c-90.901,0-165,74.099-165,165c0,90.899,74.099,165,165,165s165-74.101,165-165
	C421,165.099,346.901,91,256,91z"/>
<g>
	<path style="fill:#FDBF00;" d="M421,256c0,90.899-74.099,165-165,165V91C346.901,91,421,165.099,421,256z"/>
	<path style="fill:#FDBF00;" d="M391,286v30c0,74.399-60.601,135-135,135v-30c57.9,0,105-47.1,105-105v-30c0-57.9-47.1-105-105-105
		c-41.4,0-75,33.6-75,75v3.3c0,39.6,32.1,71.7,71.7,71.7c1.199,0,2.1,0,3.3-0.3c20.099-0.901,37.5-13.2,42.9-30.3
		c4.2-14.399,1.8-29.399-6.599-41.1C283.6,247.6,270.4,241,256,241c-8.401,0-15,6.599-15,15c0,8.399,6.599,15,15,15v30
		c-24.901,0-45-20.101-45-45c0-24.901,20.099-45,45-45c23.699,0,46.199,11.4,60.3,30.599c14.399,19.2,18.3,44.101,11.1,67.8
		c-9,29.401-38.101,50.101-71.4,51.301c-1.199,0.3-2.1,0.3-3.3,0.3C196.6,361,151,315.399,151,259.3V256c0-57.9,47.1-105,105-105
		C330.399,151,391,211.599,391,286z"/>
</g>
<g>
	<path style="fill:#FF9F00;" d="M327.4,309.399c-9,29.401-38.101,50.101-71.4,51.301v-30c20.099-0.901,37.5-13.2,42.9-30.3
		c4.2-14.399,1.8-29.399-6.599-41.1C283.6,247.6,270.4,241,256,241v-30c23.699,0,46.199,11.4,60.3,30.599
		C330.7,260.799,334.6,285.7,327.4,309.399z"/>
	<path style="fill:#FF9F00;" d="M391,286v30c0,74.399-60.601,135-135,135v-30c57.9,0,105-47.1,105-105v-30c0-57.9-47.1-105-105-105
		v-30C330.399,151,391,211.599,391,286z"/>
</g>
<g>
</g>
<g>
</g>
<g>
</g>
<g>
</g>
<g>
</g>
<g>
</g>
<g>
</g>
<g>
</g>
<g>
</g>
<g>
</g>
<g>
</g>
<g>
</g>
<g>
</g>
<g>
</g>
<g>
</g>
</svg>
