<?xml version="1.0" encoding="iso-8859-1"?>
<!-- Generator: Adobe Illustrator 19.0.0, SVG Export Plug-In . SVG Version: 6.00 Build 0)  -->
<svg version="1.1" id="Capa_1" xmlns="http://www.w3.org/2000/svg" xmlns:xlink="http://www.w3.org/1999/xlink" x="0px" y="0px"
	 viewBox="0 0 512 512" style="enable-background:new 0 0 512 512;" xml:space="preserve">
<polygon style="fill:#FFBD86;" points="421,91 421,350.501 361,440.501 361,512 241,512 187.899,241 353,241 353,91 "/>
<g>
	<polygon style="fill:#F6A96C;" points="421,91 421,350.501 361,440.501 361,512 256,512 256,241 353,241 353,91 	"/>
	<rect x="151" y="30" style="fill:#F6A96C;" width="67" height="211"/>
	<rect x="218" style="fill:#F6A96C;" width="68" height="241"/>
</g>
<g>
	<rect x="286" y="151" style="fill:#EA9B58;" width="67" height="120"/>
	<rect x="256" style="fill:#EA9B58;" width="30" height="241"/>
</g>
<path style="fill:#FED2A4;" d="M301,211c0,27.9-19.2,51.301-45,57.9c-4.799,1.5-9.901,2.1-15,2.1h-23.101
	C232.301,286.901,241,308.2,241,331v181h-60v-69.699l-90-90V211H301z"/>
<path style="fill:#FFBD86;" d="M301,211c0,27.9-19.2,51.301-45,57.9V211H301z"/>
<g>
</g>
<g>
</g>
<g>
</g>
<g>
</g>
<g>
</g>
<g>
</g>
<g>
</g>
<g>
</g>
<g>
</g>
<g>
</g>
<g>
</g>
<g>
</g>
<g>
</g>
<g>
</g>
<g>
</g>
</svg>
