<?xml version="1.0" encoding="iso-8859-1"?>
<!-- Generator: Adobe Illustrator 19.0.0, SVG Export Plug-In . SVG Version: 6.00 Build 0)  -->
<svg version="1.1" id="Capa_1" xmlns="http://www.w3.org/2000/svg" xmlns:xlink="http://www.w3.org/1999/xlink" x="0px" y="0px"
	 viewBox="0 0 512 512" style="enable-background:new 0 0 512 512;" xml:space="preserve">
<path style="fill:#68544F;" d="M301,0h-90c-32.999,0-60,29.001-60,62s27.001,60,60,60h90c32.999,0,60-27.001,60-60S333.999,0,301,0z
	"/>
<path style="fill:#53433F;" d="M301,122h-45V0h45c32.999,0,60,29.001,60,62S333.999,122,301,122z"/>
<path style="fill:#725D57;" d="M481,227v105H31V227c0-74.399,60.601-135,135-135h180C420.399,92,481,152.601,481,227z"/>
<path style="fill:#68544F;" d="M481,227v105H256V92h90C420.399,92,481,152.601,481,227z"/>
<path style="fill:#F6A96C;" d="M121,392H91c-33.091,0-60-26.909-60-60s26.909-60,60-60h30V392z"/>
<path style="fill:#EA9B58;" d="M421,392h-30V272h30c33.091,0,60,26.909,60,60S454.091,392,421,392z"/>
<path style="fill:#FED2A4;" d="M299.2,212l-4.501,7.5C286.601,233.599,271.901,242,256,242s-30.601-8.401-38.699-22.5L212.8,212H91
	v135c0,27.599,6.899,54.901,20.099,78.9C139.9,479.001,195.7,512,256,512c90.901,0,165-74.099,165-165V212H299.2z"/>
<path style="fill:#FFBD86;" d="M421,212v135c0,90.901-74.099,165-165,165V242c15.901,0,30.601-8.401,38.699-22.5l4.501-7.5H421z"/>
<path style="fill:#725D57;" d="M196,362c-24.814,0-45-20.186-45-45h30c0,8.276,6.724,15,15,15s15-6.724,15-15h30
	C241,341.814,220.814,362,196,362z"/>
<path style="fill:#68544F;" d="M316,362c-24.814,0-45-20.186-45-45h30c0,8.276,6.724,15,15,15s15-6.724,15-15h30
	C361,341.814,340.814,362,316,362z"/>
<path style="fill:#725D57;" d="M309.101,430.101C295,444.2,276.099,452,256,452s-39-7.8-53.101-21.899L224.2,408.8
	c8.399,8.401,20.099,12.9,31.8,12.9c11.701,0,23.401-4.499,31.8-12.9L309.101,430.101z"/>
<path style="fill:#68544F;" d="M309.101,430.101C295,444.2,276.099,452,256,452v-30.3c11.7,0,23.401-4.499,31.8-12.9
	L309.101,430.101z"/>
<g>
</g>
<g>
</g>
<g>
</g>
<g>
</g>
<g>
</g>
<g>
</g>
<g>
</g>
<g>
</g>
<g>
</g>
<g>
</g>
<g>
</g>
<g>
</g>
<g>
</g>
<g>
</g>
<g>
</g>
</svg>
