<?xml version="1.0" encoding="iso-8859-1"?>
<!-- Generator: Adobe Illustrator 19.0.0, SVG Export Plug-In . SVG Version: 6.00 Build 0)  -->
<svg version="1.1" id="Capa_1" xmlns="http://www.w3.org/2000/svg" xmlns:xlink="http://www.w3.org/1999/xlink" x="0px" y="0px"
	 viewBox="0 0 512 512" style="enable-background:new 0 0 512 512;" xml:space="preserve">
<path style="fill:#FF7C96;" d="M512,177.008c0,71.482-43.049,121.041-88.403,163.691c-30.636,28.835-66.679,59.471-108.428,94.912
	l-56.166,48.055l-3.003-2.702l-36.344-30.937c-19.222-16.218-37.544-31.537-54.664-45.655C66.177,323.279,0,269.515,0,177.008
	C0,89.306,56.565,28.333,135.859,28.333c42.95,0,80.495,20.424,105.123,51.96l14.717,74.188l0.3-1.503l15.018-73.886
	c24.629-30.637,62.474-50.76,105.123-50.76C455.435,28.333,512,89.306,512,177.008z"/>
<path style="fill:#FF5C87;" d="M512,177.008c0,71.482-43.049,121.041-88.403,163.691c-30.636,28.835-66.679,59.471-108.428,94.912
	l-56.166,48.055l-3.003-2.702V152.979l15.018-73.886c24.629-30.637,62.474-50.76,105.123-50.76
	C455.435,28.333,512,89.306,512,177.008z"/>
<path style="fill:#E2E2E7;" d="M120.842,268.615c0,33.13,26.941,60.07,60.071,60.07l30.035-60.07l-30.035-60.071
	C147.782,208.545,120.842,235.485,120.842,268.615z"/>
<path style="fill:#D3D3D8;" d="M331.089,208.545l-30.035,55.69l30.035,64.451c33.13,0,60.071-26.941,60.071-60.07
	S364.219,208.545,331.089,208.545z"/>
<g>
	<polygon style="fill:#725D57;" points="288.74,316.671 270.717,406.777 256.001,403.774 241.283,400.769 256.001,327.184 
		259.303,310.664 	"/>
	<path style="fill:#725D57;" d="M271.018,79.093l-0.3,75.388c-0.901,9.011-1.502,17.721-3.604,26.131l-11.113,44.152l-0.601,2.403
		l-28.834-7.208l11.413-46.555c1.802-7.208,1.802-14.717,2.703-22.226l0.3-3.304V80.294c2.853,3.454,8.94,4.886,15.018,4.575
		C262.078,84.569,268.165,82.547,271.018,79.093z"/>
</g>
<g>
	<path style="fill:#68544F;" d="M271.018,79.093l-0.3,75.388c-0.901,9.011-1.502,17.721-3.604,26.131l-11.113,44.152V84.87
		C262.078,84.569,268.165,82.547,271.018,79.093z"/>
	<polygon style="fill:#68544F;" points="288.74,316.671 270.717,406.777 256.001,403.774 256.001,327.184 259.303,310.664 	"/>
</g>
<rect x="180.912" y="208.545" style="fill:#ECECF1;" width="150.176" height="120.141"/>
<rect x="256.001" y="208.545" style="fill:#E2E2E7;" width="75.088" height="120.141"/>
<g>
</g>
<g>
</g>
<g>
</g>
<g>
</g>
<g>
</g>
<g>
</g>
<g>
</g>
<g>
</g>
<g>
</g>
<g>
</g>
<g>
</g>
<g>
</g>
<g>
</g>
<g>
</g>
<g>
</g>
</svg>
