<?xml version="1.0" encoding="iso-8859-1"?>
<!-- Generator: Adobe Illustrator 19.0.0, SVG Export Plug-In . SVG Version: 6.00 Build 0)  -->
<svg version="1.1" id="Capa_1" xmlns="http://www.w3.org/2000/svg" xmlns:xlink="http://www.w3.org/1999/xlink" x="0px" y="0px"
	 viewBox="0 0 512 512" style="enable-background:new 0 0 512 512;" xml:space="preserve">
<polygon style="fill:#ECECF1;" points="121,512 211,512 211,452 166,422 121,452 "/>
<polygon style="fill:#D3D3D8;" points="301,512 391,512 391,452 347.802,422 301,452 "/>
<path style="fill:#725D57;" d="M421,61v191.199c0,77.401-13.2,120.3-30,199.801h-90l-5.7-30c-8.101-25.201-21-57.001-31.199-108.3
	L256,273.199l-8.101,41.1C237.7,364.699,224.801,396.2,216.7,422l-5.7,30h-90c-17.1-81.301-30-122.1-30-199.801V61l30-30h270L421,61
	z"/>
<path style="fill:#53433F;" d="M421,61v191.199c0,77.401-13.2,120.3-30,199.801h-90l-5.7-30c-8.101-25.201-21-57.001-31.199-108.3
	L256,273.199V31h135L421,61z"/>
<polygon style="fill:#E2E2E7;" points="299.5,99.399 272.5,112.599 256,79.6 239.5,112.599 212.5,99.399 242.5,39.399 256,46 
	269.5,39.399 "/>
<polygon style="fill:#D3D3D8;" points="299.5,99.399 272.5,112.599 256,79.6 256,46 269.5,39.399 "/>
<rect x="91" style="fill:#ECECF1;" width="330" height="61"/>
<rect x="256" style="fill:#D3D3D8;" width="165" height="61"/>
<g>
</g>
<g>
</g>
<g>
</g>
<g>
</g>
<g>
</g>
<g>
</g>
<g>
</g>
<g>
</g>
<g>
</g>
<g>
</g>
<g>
</g>
<g>
</g>
<g>
</g>
<g>
</g>
<g>
</g>
</svg>
