<?xml version="1.0" encoding="iso-8859-1"?>
<!-- Generator: Adobe Illustrator 19.0.0, SVG Export Plug-In . SVG Version: 6.00 Build 0)  -->
<svg version="1.1" id="Capa_1" xmlns="http://www.w3.org/2000/svg" xmlns:xlink="http://www.w3.org/1999/xlink" x="0px" y="0px"
	 viewBox="0 0 512 512" style="enable-background:new 0 0 512 512;" xml:space="preserve">
<path style="fill:#68544F;" d="M500.6,332c-10.8,31.8-28.5,61.199-53.101,85.499L443.301,422H189.699l-4.199-4.501
	c-24.599-24.3-42.3-53.699-53.1-85.499L316,302h0.601L500.6,332z"/>
<path style="fill:#53433F;" d="M500.6,332c-10.8,31.8-28.5,61.199-53.101,85.499L443.301,422H316V302h0.601L500.6,332z"/>
<path style="fill:#725D57;" d="M512,180v82.099c0,24.3-4.2,47.701-11.4,69.901H132.4c-7.2-22.2-11.4-45.601-11.4-69.901V180H512z"/>
<path style="fill:#68544F;" d="M512,180v82.099c0,24.3-4.2,47.701-11.4,69.901H316V180H512z"/>
<path style="fill:#FF7C96;" d="M271,377c0-18.6-8.401-35.7-22.8-46.8c2.1-17.999-3.9-36-16.8-48.6
	c-12.599-12.9-30.601-18.9-48.6-16.8C171.7,250.401,154.6,242,136,242s-35.7,8.401-46.8,22.8c-17.999-2.1-37,3.9-49.6,16.8
	c-12.9,12.599-18.9,30.601-16.8,48.6C8.401,341.3,0,358.4,0,377s8.401,35.7,22.8,46.8c-2.1,17.999,3.9,36,16.8,48.6
	c12.599,12.9,31.601,18.9,49.6,16.8c11.1,14.399,28.2,22.8,46.8,22.8s35.7-8.401,46.8-22.8c17.999,2.1,36-3.9,48.6-16.8
	c12.9-12.599,18.9-30.601,16.8-48.6C262.599,412.7,271,395.6,271,377z"/>
<path style="fill:#FF5C87;" d="M248.2,423.8c2.1,17.999-3.9,36-16.8,48.6c-12.599,12.9-30.601,18.9-48.6,16.8
	C171.7,503.599,154.6,512,136,512V242c18.6,0,35.7,8.401,46.8,22.8c17.999-2.1,36,3.9,48.6,16.8c12.9,12.599,18.9,30.601,16.8,48.6
	c14.399,11.1,22.8,28.2,22.8,46.8S262.599,412.7,248.2,423.8z"/>
<path style="fill:#FFE470;" d="M136,332c-24.901,0-45,20.099-45,45s20.099,45,45,45s45-20.099,45-45S160.901,332,136,332z"/>
<path style="fill:#FFD400;" d="M181,377c0,24.901-20.099,45-45,45v-90C160.901,332,181,352.099,181,377z"/>
<g>
	<path style="fill:#AEFDFF;" d="M233.427,148.55c-14.238-9.492-22.734-25.371-22.734-42.48s8.496-32.988,22.734-42.48
		c5.962-3.97,9.375-10.356,9.375-17.52s-3.413-17.139-9.375-21.108L250.067,0c14.238,9.492,22.734,28.96,22.734,46.069
		s-8.496,32.988-22.734,42.48c-5.962,3.97-9.375,10.356-9.375,17.52s3.413,13.55,9.375,17.52L233.427,148.55z"/>
	<path style="fill:#AEFDFF;" d="M347.8,46.199c0,17.1-8.399,33.001-22.8,42.301c-5.4,3.3-8.399,9-9,15c-0.3,0.899-0.3,1.8-0.3,2.699
		c0,0.901,0,1.8,0.3,2.701c0.601,5.999,3.9,11.4,9,14.7l-9,13.5l-7.5,11.4c-14.399-9.3-22.8-25.201-22.8-42.301
		S294.101,73.2,308.5,63.6c3.6-2.401,6-5.4,7.5-9c1.199-2.701,1.8-5.4,1.8-8.401c0-2.999-0.601-6.599-1.8-9.901
		c-1.5-4.799-3.9-9-7.5-11.4L316,13.5L325,0C339.401,9.6,347.8,29.099,347.8,46.199z"/>
</g>
<g>
	<path style="fill:#68F2EE;" d="M383.427,148.55c-14.238-9.492-22.734-25.371-22.734-42.48s8.496-32.988,22.734-42.48
		c5.962-3.97,9.375-10.356,9.375-17.52s-3.413-17.139-9.375-21.108L400.067,0c14.238,9.492,22.734,28.96,22.734,46.069
		s-8.496,32.988-22.734,42.48c-5.962,3.97-9.375,10.356-9.375,17.52s3.413,13.55,9.375,17.52L383.427,148.55z"/>
	<path style="fill:#68F2EE;" d="M325,123.6l-9,13.5v-28.2C316.601,114.899,319.9,120.3,325,123.6z"/>
	<path style="fill:#68F2EE;" d="M347.8,46.199c0,17.1-8.399,33.001-22.8,42.301c-5.4,3.3-8.399,9-9,15V54.6
		c1.199-2.701,1.8-5.4,1.8-8.401c0-2.999-0.601-6.599-1.8-9.901V13.5L325,0C339.401,9.6,347.8,29.099,347.8,46.199z"/>
</g>
<g>
</g>
<g>
</g>
<g>
</g>
<g>
</g>
<g>
</g>
<g>
</g>
<g>
</g>
<g>
</g>
<g>
</g>
<g>
</g>
<g>
</g>
<g>
</g>
<g>
</g>
<g>
</g>
<g>
</g>
</svg>
