<?xml version="1.0" encoding="iso-8859-1"?>
<!-- Generator: Adobe Illustrator 19.0.0, SVG Export Plug-In . SVG Version: 6.00 Build 0)  -->
<svg version="1.1" id="Capa_1" xmlns="http://www.w3.org/2000/svg" xmlns:xlink="http://www.w3.org/1999/xlink" x="0px" y="0px"
	 viewBox="0 0 512 512" style="enable-background:new 0 0 512 512;" xml:space="preserve">
<rect x="391" y="106" style="fill:#00B3BD;" width="30" height="241"/>
<rect x="91" y="106" style="fill:#18DBDB;" width="30" height="241"/>
<g>
	<path style="fill:#68F2EE;" d="M256,182c-90.901,0-165,74.099-165,165c0,90.899,74.099,165,165,165s165-74.101,165-165
		C421,256.099,346.901,182,256,182z M256,482c-74.399,0-135-60.601-135-135c0-74.401,60.601-135,135-135s135,60.599,135,135
		C391,421.399,330.399,482,256,482z"/>
	<path style="fill:#68F2EE;" d="M256,272c-66.301,0-120,53.699-120,120c0,66.299,53.699,120,120,120s120-53.701,120-120
		C376,325.699,322.301,272,256,272z M256,482c-49.501,0-90-40.501-90-90c0-49.501,40.499-90,90-90s90,40.499,90,90
		C346,441.499,305.501,482,256,482z"/>
</g>
<g>
	<path style="fill:#18DBDB;" d="M421,347c0,90.899-74.099,165-165,165v-30c74.399,0,135-60.601,135-135c0-74.401-60.601-135-135-135
		v-30C346.901,182,421,256.099,421,347z"/>
	<path style="fill:#18DBDB;" d="M376,392c0,66.299-53.699,120-120,120v-30c49.501,0,90-40.501,90-90c0-49.501-40.499-90-90-90v-30
		C322.301,272,376,325.699,376,392z"/>
</g>
<path style="fill:#725D57;" d="M106,121.806L0,86.811V0h211v86.811L106,121.806z M30,65.189l76,25.005l75-25.005V30H30V65.189z"/>
<path style="fill:#68544F;" d="M406,121.806L301,86.811V0h211v86.811L406,121.806z M331,65.189l75,25.005l76-25.005V30H331V65.189z"
	/>
<g>
</g>
<g>
</g>
<g>
</g>
<g>
</g>
<g>
</g>
<g>
</g>
<g>
</g>
<g>
</g>
<g>
</g>
<g>
</g>
<g>
</g>
<g>
</g>
<g>
</g>
<g>
</g>
<g>
</g>
</svg>
