<?xml version="1.0" encoding="iso-8859-1"?>
<!-- Generator: Adobe Illustrator 19.0.0, SVG Export Plug-In . SVG Version: 6.00 Build 0)  -->
<svg version="1.1" id="Capa_1" xmlns="http://www.w3.org/2000/svg" xmlns:xlink="http://www.w3.org/1999/xlink" x="0px" y="0px"
	 viewBox="0 0 512 512" style="enable-background:new 0 0 512 512;" xml:space="preserve">
<g>
	<path style="fill:#FFD400;" d="M61,0v121h30v39.3l78.6-39.3H241V0H61z"/>
	<path style="fill:#FFD400;" d="M271,0v121h71.4l78.6,39.3V121h30V0H271z"/>
</g>
<polygon style="fill:#FF7C96;" points="241,512 0,512 15,361 91,301 151,301 226,361 "/>
<polygon style="fill:#FF5C87;" points="241,512 121,512 121,301 151,301 226,361 "/>
<polygon style="fill:#FDBF00;" points="241,0 241,121 169.6,121 121,145.3 121,0 "/>
<path style="fill:#FF7C96;" d="M181,241v30c0,32.999-27.001,60-60,60s-60-27.001-60-60v-30c0-33.001,27.001-60,60-60
	c16.5,0,31.5,6.599,42.299,17.699C174.401,209.5,181,224.5,181,241z"/>
<path style="fill:#FF5C87;" d="M181,241v30c0,32.999-27.001,60-60,60V181c16.5,0,31.5,6.599,42.299,17.699
	C174.401,209.5,181,224.5,181,241z"/>
<polygon style="fill:#78FCF8;" points="512,512 271,512 286,361 361,301 421,301 497,361 "/>
<polygon style="fill:#02D9D5;" points="512,512 391,512 391,301 421,301 497,361 "/>
<path style="fill:#78FCF8;" d="M451,241v30c0,32.999-27.001,60-60,60s-60-27.001-60-60v-30c0-33.001,27.001-60,60-60
	c16.5,0,31.5,6.599,42.299,17.699C444.401,209.5,451,224.5,451,241z"/>
<path style="fill:#02D9D5;" d="M451,241v30c0,32.999-27.001,60-60,60V181c16.5,0,31.5,6.599,42.299,17.699
	C444.401,209.5,451,224.5,451,241z"/>
<polygon style="fill:#FDBF00;" points="451,0 451,121 421,121 421,160.3 391,145.3 391,0 "/>
<g>
</g>
<g>
</g>
<g>
</g>
<g>
</g>
<g>
</g>
<g>
</g>
<g>
</g>
<g>
</g>
<g>
</g>
<g>
</g>
<g>
</g>
<g>
</g>
<g>
</g>
<g>
</g>
<g>
</g>
</svg>
