<?xml version="1.0" encoding="iso-8859-1"?>
<!-- Generator: Adobe Illustrator 19.0.0, SVG Export Plug-In . SVG Version: 6.00 Build 0)  -->
<svg version="1.1" id="Capa_1" xmlns="http://www.w3.org/2000/svg" xmlns:xlink="http://www.w3.org/1999/xlink" x="0px" y="0px"
	 viewBox="0 0 512 512" style="enable-background:new 0 0 512 512;" xml:space="preserve">
<polygon style="fill:#ECECF1;" points="512,120 512,512 0,512 0,120 256,90 "/>
<polygon style="fill:#E2E2E7;" points="512,120 512,512 256,512 256,90 "/>
<rect y="30" style="fill:#FF7816;" width="512" height="90"/>
<rect x="256" y="30" style="fill:#FF4B00;" width="256" height="90"/>
<g>
	<rect x="61" style="fill:#725D57;" width="30" height="90"/>
	<rect x="151" style="fill:#725D57;" width="30" height="90"/>
	<rect x="241" style="fill:#725D57;" width="30" height="90"/>
</g>
<g>
	<rect x="331" style="fill:#68544F;" width="30" height="90"/>
	<rect x="421" style="fill:#68544F;" width="30" height="90"/>
</g>
<path style="fill:#FF7C96;" d="M205.902,308.852C193.231,303.637,179.813,301,166,301h-45v45c0,57.891,47.109,105,105,105h30
	L205.902,308.852z"/>
<path style="fill:#FF5C7D;" d="M346,301c-13.813,0-27.231,2.637-39.902,7.852L256,451h30c57.891,0,105-47.109,105-105v-45H346z"/>
<g>
	<rect x="151" y="241" style="fill:#FF7C96;" width="30" height="30"/>
	<rect x="241" y="181" style="fill:#FF7C96;" width="30" height="30"/>
</g>
<g>
	<rect x="331" y="241" style="fill:#FF5C7D;" width="30" height="30"/>
	<rect x="256" y="181" style="fill:#FF5C7D;" width="15" height="30"/>
</g>
<path style="fill:#FF9AAE;" d="M264.401,243.401l-8.401-5.4l-8.401,5.4C244.9,245.501,181,288.999,181,346
	c0,57.299,64.2,98.101,67.2,99.6l7.8,5.099l7.8-5.099c2.999-1.5,67.2-42.301,67.2-99.6C331,288.999,267.1,245.501,264.401,243.401z"
	/>
<path style="fill:#FF7C96;" d="M331,346c0,57.299-64.2,98.101-67.2,99.6l-7.8,5.1V238.001l8.401,5.4
	C267.1,245.501,331,288.999,331,346z"/>
<rect x="256" style="fill:#68544F;" width="15" height="90"/>
<g>
</g>
<g>
</g>
<g>
</g>
<g>
</g>
<g>
</g>
<g>
</g>
<g>
</g>
<g>
</g>
<g>
</g>
<g>
</g>
<g>
</g>
<g>
</g>
<g>
</g>
<g>
</g>
<g>
</g>
</svg>
