<?xml version="1.0" encoding="iso-8859-1"?>
<!-- Generator: Adobe Illustrator 21.0.0, SVG Export Plug-In . SVG Version: 6.00 Build 0)  -->
<svg xmlns="http://www.w3.org/2000/svg" xmlns:xlink="http://www.w3.org/1999/xlink" version="1.1" id="Capa_1" x="0px" y="0px" viewBox="0 0 512 512" style="enable-background:new 0 0 512 512;" xml:space="preserve" width="512" height="512">
<g>
	<path style="fill:#FDE4E4;" d="M512,181v148.5c0,13.499-3.6,26.699-10.8,38.399L383.8,506.6c-2.701,3.6-6.899,5.4-11.4,5.4H139.6   c-4.501,0-8.699-1.8-11.4-5.4L10.8,367.899C3.6,356.199,0,342.999,0,329.5V181c0-16.5,14.5-30,31-30s30,13.5,30,30v105   c0,11.999,4.799,23.399,13.2,31.8l81.301,81.299c5.099,5.7,15.899,5.7,20.999,0c6-5.999,6-15.298,0-21.299l-80.999-81.301   c-7.202-6-10.801-26.999,2.399-39.6c11.7-11.999,30.601-11.999,42.301,0L242.8,359.5c8.401,8.399,13.2,19.799,13.2,31.8   c0-12.001,4.799-23.401,13.2-31.8L371.8,256.899c11.7-11.999,30.601-11.999,42.301,0c13.2,12.601,9.6,33.6,2.399,39.6   L335.501,377.8c-6,6-6,15.3,0,21.299c5.099,5.7,15.899,5.7,20.999,0L437.8,317.8c8.401-8.401,13.2-19.801,13.2-31.8V181   c0-16.5,14.5-30,31-30S512,164.5,512,181z"/>
	<path style="fill:#F2F2FC;" d="M353.8,60c-19.501,0-37.2,10.8-46.201,28.2C297.7,61.5,279.401,38.399,256,23.099   C234.401,8.399,208.599,0,181,0h-60c-6,0-11.4,3.6-13.801,9.3c-2.399,5.7-1.199,11.999,3.301,16.199   C112.599,28.5,136,45.3,136,79.499c0,71.1,65.7,88.001,68.699,90.101C187.899,177.1,169.6,181,151,181c-6,0-11.4,3.6-13.801,9.3   c-2.399,5.7-1.199,11.999,3.301,16.199C159.699,221.8,187.301,271,252.7,271h3.3c51.599-1.5,96-37.2,108.6-87.301L372.7,151H391   c8.401,0,15-6.601,15-15v-23.8C406,83.399,382.599,60,353.8,60z"/>
	<path style="fill:#D8D8FC;" d="M256,271V23.099c23.401,15.3,41.7,38.401,51.599,65.101C316.601,70.8,334.3,60,353.8,60   c28.799,0,52.2,23.399,52.2,52.2V136c0,8.399-6.599,15-15,15h-18.3l-8.101,32.699C352,233.8,307.599,269.5,256,271z"/>
	<path style="fill:#FCCED3;" d="M512,181v148.5c0,13.499-3.6,26.699-10.8,38.399L383.8,506.6c-2.701,3.6-6.899,5.4-11.4,5.4H256   V391.3c0-12.001,4.799-23.401,13.2-31.8L371.8,256.899c11.7-11.999,30.601-11.999,42.301,0c13.2,12.601,9.6,33.6,2.399,39.6   L335.501,377.8c-6,6-6,15.3,0,21.299c5.099,5.7,15.899,5.7,20.999,0L437.8,317.8c8.401-8.401,13.2-19.801,13.2-31.8V181   c0-16.5,14.5-30,31-30S512,164.5,512,181z"/>
</g>















</svg>
