<svg height="512pt" viewBox="0 0 512 512" width="512pt" xmlns="http://www.w3.org/2000/svg" xmlns:xlink="http://www.w3.org/1999/xlink"><linearGradient id="a" gradientUnits="userSpaceOnUse" x1="74.9807" x2="437.0193" y1="74.9807" y2="437.0193"><stop offset="0" stop-color="#ff9d49"/><stop offset="1" stop-color="#ff6e1d"/></linearGradient><linearGradient id="b"><stop offset="0" stop-color="#185f8d"/><stop offset="1" stop-color="#082947"/></linearGradient><linearGradient id="c" gradientUnits="userSpaceOnUse" x1="175.5541" x2="336.4459" xlink:href="#b" y1="212.3219" y2="373.2136"/><linearGradient id="d"><stop offset="0" stop-color="#c1e8e6"/><stop offset="1" stop-color="#77c0bc"/></linearGradient><linearGradient id="e" gradientUnits="userSpaceOnUse" x1="151.8265" x2="242.1242" xlink:href="#d" y1="219.676" y2="309.9736"/><linearGradient id="f" gradientUnits="userSpaceOnUse" x1="253.394" x2="376.6553" xlink:href="#d" y1="203.1942" y2="326.4555"/><linearGradient id="g"><stop offset="0" stop-color="#98d9d5"/><stop offset="1" stop-color="#3b7d84"/></linearGradient><linearGradient id="h" gradientUnits="userSpaceOnUse" x1="234.823" x2="386.8962" xlink:href="#g" y1="244.6857" y2="396.7589"/><linearGradient id="i" gradientUnits="userSpaceOnUse" x1="160.4877" x2="241.793" xlink:href="#g" y1="280.0697" y2="361.3749"/><linearGradient id="j" gradientUnits="userSpaceOnUse" x1="232.6146" x2="279.3854" xlink:href="#b" y1="83.5862" y2="130.357"/><linearGradient id="k" gradientUnits="userSpaceOnUse" x1="224.2501" x2="287.7499" xlink:href="#b" y1="140.7008" y2="204.2006"/><path d="m512 256c0 141.386719-114.613281 256-256 256s-256-114.613281-256-256 114.613281-256 256-256 256 114.613281 256 256zm0 0" fill="url(#a)"/><path d="m256 281.542969h-149.667969v22.449219h299.335938v-22.449219zm0 0" fill="url(#c)"/><path d="m213.457031 158.046875-56.605469 152.980469c-8.566406 23.160156 3.371094 49.121094 26.53125 57.6875l57.027344-154.140625zm0 0" fill="url(#e)"/><path d="m355.148438 311.027344-56.605469-152.980469-26.953125 56.527344 57.027344 154.140625c23.160156-8.566406 35.097656-34.527344 26.53125-57.6875zm0 0" fill="url(#f)"/><path d="m339.609375 430.777344-78.554687-212.320313 21.054687-7.792969 78.558594 212.324219zm0 0" fill="url(#h)"/><path d="m172.390625 430.777344-21.058594-7.789063 78.558594-212.324219 21.054687 7.792969zm0 0" fill="url(#i)"/><path d="m244.773438 71.425781h22.453124v71.09375h-22.453124zm0 0" fill="url(#j)"/><path d="m300.898438 172.449219c0 24.800781-20.101563 44.902343-44.898438 44.902343s-44.898438-20.101562-44.898438-44.902343c0-24.796875 20.101563-44.898438 44.898438-44.898438s44.898438 20.101563 44.898438 44.898438zm0 0" fill="url(#k)"/><path d="m267.226562 172.449219c0 6.203125-5.027343 11.226562-11.226562 11.226562s-11.226562-5.023437-11.226562-11.226562c0-6.199219 5.027343-11.222657 11.226562-11.222657s11.226562 5.023438 11.226562 11.222657zm0 0" fill="#c1e8e6"/></svg>