<svg id="圖層_1" data-name="圖層 1" xmlns="http://www.w3.org/2000/svg" viewBox="0 0 216.37 228.06"><defs><style>.cls-1{fill:#fff;}.cls-2{fill:#231815;}</style></defs><title>工作區域 2</title><rect class="cls-1" x="42.97" y="56.03" width="17.46" height="144.72"/><path class="cls-2" d="M60.93,201.25H42.47V55.53H60.93Zm-17.46-1H59.93V56.53H43.47Z"/><rect class="cls-1" x="154.17" y="56.03" width="17.46" height="144.72"/><path class="cls-2" d="M172.13,201.25H153.67V55.53h18.46Zm-17.46-1h16.46V56.53H154.67Z"/><rect class="cls-2" x="15.41" y="72.97" width="185.54" height="55.42" rx="11.46"/><path class="cls-2" d="M189.49,128.89H26.87a12,12,0,0,1-12-12V84.43a12,12,0,0,1,12-12H189.49a12,12,0,0,1,12,12v32.5A12,12,0,0,1,189.49,128.89ZM26.87,73.47a11,11,0,0,0-11,11v32.5a11,11,0,0,0,11,11H189.49a11,11,0,0,0,11-11V84.43a11,11,0,0,0-11-11Z"/><polygon class="cls-1" points="29.17 128.39 65.31 128.39 116.46 72.97 80.33 72.97 29.17 128.39"/><path class="cls-2" d="M65.52,128.89H28L80.11,72.47h37.5Zm-35.21-1H65.09l50.23-54.42H80.55Z"/><polygon class="cls-1" points="129.7 128.39 180.86 72.97 141.32 72.97 142.27 74 92.06 128.39 129.7 128.39"/><path class="cls-2" d="M129.92,128.89h-39L141.59,74l-1.41-1.53H182Zm-36.71-1h36.27l50.24-54.42H142.47L143,74Z"/><path class="cls-1" d="M156.46,128.39h33A11.46,11.46,0,0,0,201,116.93V84.43a11.55,11.55,0,0,0-.58-3.6Z"/><path class="cls-2" d="M189.49,128.89H155.32l45.26-49,.26.81a11.8,11.8,0,0,1,.61,3.76v32.5A12,12,0,0,1,189.49,128.89Zm-31.89-1h31.89a11,11,0,0,0,11-11V84.43a10.48,10.48,0,0,0-.32-2.61Z"/><path class="cls-1" d="M53.57,73H26.87A11.46,11.46,0,0,0,15.41,84.43v29.88Z"/><path class="cls-2" d="M14.91,115.59V84.43a12,12,0,0,1,12-12H54.72Zm12-42.12a11,11,0,0,0-11,11V113L52.43,73.47Z"/></svg>