<svg height="464pt" viewBox="-31 0 463 464" width="464pt" xmlns="http://www.w3.org/2000/svg"><path d="m30.21875 110.929688 27.722656 16c2.476563 1.449218 5.539063 1.464843 8.027344.035156 2.492188-1.429688 4.023438-4.085938 4.015625-6.957032-.003906-2.871093-1.546875-5.515624-4.042969-6.9375l-27.722656-16c-3.820312-2.171874-8.683594-.851562-10.882812 2.957032-2.195313 3.808594-.910157 8.675781 2.882812 10.902344zm0 0"/><path d="m57.941406 273.070312-27.722656 16c-2.496094 1.421876-4.039062 4.066407-4.042969 6.9375-.007812 2.871094 1.523438 5.527344 4.015625 6.957032 2.488282 1.429687 5.550782 1.414062 8.027344-.035156l27.722656-16c2.496094-1.421876 4.039063-4.066407 4.042969-6.9375.007813-2.871094-1.523437-5.527344-4.015625-6.957032-2.488281-1.429687-5.550781-1.414062-8.027344.035156zm0 0"/><path d="m370.78125 289.070312-27.722656-16c-2.476563-1.449218-5.539063-1.464843-8.027344-.035156-2.492188 1.429688-4.023438 4.085938-4.015625 6.957032.003906 2.871093 1.546875 5.515624 4.042969 6.9375l27.722656 16c2.476562 1.449218 5.539062 1.464843 8.027344.035156 2.492187-1.429688 4.023437-4.085938 4.015625-6.957032-.003907-2.871093-1.546875-5.515624-4.042969-6.9375zm0 0"/><path d="m339.066406 128c1.40625.003906 2.785156-.367188 4-1.070312l27.722656-16c2.496094-1.421876 4.039063-4.066407 4.042969-6.9375.007813-2.871094-1.523437-5.527344-4.011719-6.957032-2.492187-1.429687-5.554687-1.414062-8.03125.035156l-27.722656 16c-3.132812 1.8125-4.664062 5.503907-3.726562 9 .9375 3.496094 4.109375 5.929688 7.726562 5.929688zm0 0"/><path d="m276.5 68.367188c3.828125 2.210937 8.71875.898437 10.929688-2.925782l16-27.722656c2.171874-3.820312.851562-8.683594-2.957032-10.882812-3.808594-2.195313-8.675781-.910157-10.902344 2.882812l-16 27.722656c-2.207031 3.824219-.894531 8.71875 2.929688 10.925782zm0 0"/><path d="m200.5 48c4.417969 0 8-3.582031 8-8v-32c0-4.417969-3.582031-8-8-8s-8 3.582031-8 8v32c0 4.417969 3.582031 8 8 8zm0 0"/><path d="m113.570312 65.441406c1.421876 2.496094 4.066407 4.039063 6.9375 4.042969 2.871094.007813 5.527344-1.523437 6.957032-4.015625 1.429687-2.488281 1.414062-5.550781-.035156-8.027344l-16-27.722656c-2.226563-3.792969-7.09375-5.078125-10.902344-2.882812-3.808594 2.199218-5.128906 7.0625-2.957032 10.882812zm0 0"/><path d="m48.5 200c0-4.417969-3.582031-8-8-8h-32c-4.417969 0-8 3.582031-8 8s3.582031 8 8 8h32c4.417969 0 8-3.582031 8-8zm0 0"/><path d="m392.5 192h-32c-4.417969 0-8 3.582031-8 8s3.582031 8 8 8h32c4.417969 0 8-3.582031 8-8s-3.582031-8-8-8zm0 0"/><path d="m240.5 376h-80v16.425781c11.664062-.304687 34.398438-.226562 80 0zm0 0"/><path d="m240.5 408.40625c-28.472656-.117188-64.648438-.222656-80-.125v15.71875h80zm0 0"/><path d="m176.5 440c0 13.253906 10.746094 24 24 24s24-10.746094 24-24zm0 0"/><path d="m259.875 304.273438c47.277344-26.910157 70.542969-82.257813 56.683594-134.859376-13.855469-52.605468-61.367188-89.308593-115.765625-89.433593-54.402344-.125-102.078125 36.363281-116.175781 88.902343-14.097657 52.542969 8.914062 107.992188 56.066406 135.117188 8.992187 5.210938 15.578125 13.746094 18.335937 23.769531l82.863281.230469c2.578126-10 9.058594-18.546875 17.992188-23.726562zm-83.375-32.273438c-2.121094 0-4.15625-.84375-5.65625-2.34375l-45.253906-45.257812c-3.035156-3.136719-2.992188-8.128907.09375-11.214844 3.085937-3.085938 8.078125-3.128906 11.214844-.09375l39.601562 39.597656 84.847656-84.855469c3.125-3.125 8.195313-3.125 11.320313 0s3.125 8.195313 0 11.320313l-90.511719 90.503906c-1.5 1.5-3.535156 2.34375-5.65625 2.34375zm0 0"/><path d="m240.5 343.984375-80-.199219v16.214844h80zm0 0"/></svg>