<svg xmlns="http://www.w3.org/2000/svg" xmlns:xlink="http://www.w3.org/1999/xlink" width="849" height="482" viewBox="0 0 849 482">
  <defs>
    <filter id="Rectangle_7" x="565" y="43" width="218" height="126" filterUnits="userSpaceOnUse">
      <feOffset dy="3" input="SourceAlpha"/>
      <feGaussianBlur stdDeviation="3" result="blur"/>
      <feFlood flood-opacity="0.161"/>
      <feComposite operator="in" in2="blur"/>
      <feComposite in="SourceGraphic"/>
    </filter>
    <filter id="Union_3" x="388" y="43" width="218" height="126" filterUnits="userSpaceOnUse">
      <feOffset dy="3" input="SourceAlpha"/>
      <feGaussianBlur stdDeviation="3" result="blur-2"/>
      <feFlood flood-opacity="0.161"/>
      <feComposite operator="in" in2="blur-2"/>
      <feComposite in="SourceGraphic"/>
    </filter>
    <filter id="Union_2" x="212" y="43" width="218" height="126" filterUnits="userSpaceOnUse">
      <feOffset dy="3" input="SourceAlpha"/>
      <feGaussianBlur stdDeviation="3" result="blur-3"/>
      <feFlood flood-opacity="0.161"/>
      <feComposite operator="in" in2="blur-3"/>
      <feComposite in="SourceGraphic"/>
    </filter>
    <filter id="Union_1" x="36" y="43" width="218" height="126" filterUnits="userSpaceOnUse">
      <feOffset dy="3" input="SourceAlpha"/>
      <feGaussianBlur stdDeviation="3" result="blur-4"/>
      <feFlood flood-opacity="0.161"/>
      <feComposite operator="in" in2="blur-4"/>
      <feComposite in="SourceGraphic"/>
    </filter>
    <clipPath id="clip-Artboard_2">
      <rect width="849" height="482"/>
    </clipPath>
  </defs>
  <g id="Artboard_2" data-name="Artboard – 2" clip-path="url(#clip-Artboard_2)">
    <rect width="849" height="482" fill="#fff"/>
    <g id="Group_6" data-name="Group 6" transform="translate(316 396.5) rotate(180)">
      <line id="Line_2" data-name="Line 2" y2="23" transform="translate(167.5 214.5)" fill="none" stroke="#707070" stroke-width="2"/>
      <g id="Ellipse_7" data-name="Ellipse 7" transform="translate(159 197)" fill="#ff7676" stroke="#707070" stroke-width="2">
        <circle cx="9" cy="9" r="9" stroke="none"/>
        <circle cx="9" cy="9" r="8" fill="none"/>
      </g>
    </g>
    <g id="Group_4" data-name="Group 4" transform="translate(89 -187)">
      <line id="Line_4" data-name="Line 4" y2="42" transform="translate(584.5 344.5)" fill="none" stroke="#707070" stroke-width="2"/>
      <g id="Ellipse_10" data-name="Ellipse 10" transform="translate(576 385)" fill="#b1f482" stroke="#707070" stroke-width="2">
        <circle cx="9" cy="9" r="9" stroke="none"/>
        <circle cx="9" cy="9" r="8" fill="none"/>
      </g>
    </g>
    <g transform="matrix(1, 0, 0, 1, 0, 0)" filter="url(#Rectangle_7)">
      <path id="Rectangle_7-2" data-name="Rectangle 7" d="M0,0H180a20,20,0,0,1,20,20V88a20,20,0,0,1-20,20H0a0,0,0,0,1,0,0V0A0,0,0,0,1,0,0Z" transform="translate(574 49)" fill="#eaffdb"/>
    </g>
    <g transform="matrix(1, 0, 0, 1, 0, 0)" filter="url(#Union_3)">
      <path id="Union_3-2" data-name="Union 3" d="M854-159V-267h177.215v41.616L1054-213l-22.785,12.384V-159Z" transform="translate(-457 316)" fill="#fff5d3"/>
    </g>
    <g transform="matrix(1, 0, 0, 1, 0, 0)" filter="url(#Union_2)">
      <path id="Union_2-2" data-name="Union 2" d="M854-159V-267h177.215v41.616L1054-213l-22.785,12.384V-159Z" transform="translate(-633 316)" fill="#ffcdb2"/>
    </g>
    <g transform="matrix(1, 0, 0, 1, 0, 0)" filter="url(#Union_1)">
      <path id="Union_1-2" data-name="Union 1" d="M874-159a20,20,0,0,1-20-20v-68a20,20,0,0,1,20-20h156.1v40.929L1054-213l-23.9,13.071V-159Z" transform="translate(-809 316)" fill="#ffb2b2"/>
    </g>
    <text id="EXPLORE" transform="translate(145 109)" fill="#007aff" font-size="17" font-family="Raleway-Bold, Raleway" font-weight="700" letter-spacing="0em"><tspan x="-37.643" y="0">EXPLORE</tspan></text>
    <text id="RESEARCH" transform="translate(321 109)" fill="#007aff" font-size="17" font-family="Raleway-Bold, Raleway" font-weight="700" letter-spacing="0em"><tspan x="-44.456" y="0">RESEARCH</tspan></text>
    <text id="PLAN" transform="translate(497 109)" fill="#007aff" font-size="17" font-family="Raleway-Bold, Raleway" font-weight="700" letter-spacing="0em"><tspan x="-22.447" y="0">PLAN</tspan></text>
    <text id="DESIGN" transform="translate(674 109)" fill="#007aff" font-size="17" font-family="Raleway-Bold, Raleway" font-weight="700" letter-spacing="0em"><tspan x="-31.339" y="0">DESIGN</tspan></text>
    <text id="Understanding" transform="translate(148 223)" fill="#007aff" font-size="17" font-family="Raleway-Bold, Raleway" font-weight="700" letter-spacing="0em"><tspan x="-61.005" y="0">Understanding</tspan></text>
    <g id="Group_3" data-name="Group 3" transform="translate(4 -241)">
      <text id="Hand_sketches" data-name="Hand sketches" transform="translate(623 480)" fill="#007aff" font-size="17" font-family="Raleway-Bold, Raleway" font-weight="700" letter-spacing="0em"><tspan x="-59.977" y="0">Hand sketches</tspan></text>
      <text id="Middle-fidelity_wireframes" data-name="Middle-fidelity wireframes" transform="translate(670 511)" fill="#007aff" font-size="17" font-family="Raleway-Bold, Raleway" font-weight="700" letter-spacing="0em"><tspan x="-107.424" y="0">Middle-fidelity wireframes</tspan></text>
    </g>
    <g id="Group_1" data-name="Group 1" transform="translate(13 -159)">
      <text id="Competitive_analysis" data-name="Competitive analysis" transform="translate(302 430)" fill="#007aff" font-size="17" font-family="Raleway-Bold, Raleway" font-weight="700" letter-spacing="0em"><tspan x="-84.466" y="0">Competitive analysis</tspan></text>
      <text id="Theories_reivew" data-name="Theories reivew" transform="translate(282 460)" fill="#007aff" font-size="17" font-family="Raleway-Bold, Raleway" font-weight="700" letter-spacing="0em"><tspan x="-64.347" y="0">Theories reivew</tspan></text>
      <text id="Problem_identification" data-name="Problem identification" transform="translate(308 492)" fill="#007aff" font-size="17" font-family="Raleway-Bold, Raleway" font-weight="700" letter-spacing="0em"><tspan x="-90.022" y="0">Problem identification</tspan></text>
    </g>
    <g id="Group_7" data-name="Group 7" transform="translate(35 269)">
      <text id="Information_architecture" data-name="Information architecture" transform="translate(461 180)" fill="#007aff" font-size="17" font-family="Raleway-Bold, Raleway" font-weight="700" letter-spacing="0em"><tspan x="-99.081" y="0">Information architecture</tspan></text>
      <text id="Brainstorming" transform="translate(420 149)" fill="#007aff" font-size="17" font-family="Raleway-Bold, Raleway" font-weight="700" letter-spacing="0em"><tspan x="-57.571" y="0">Brainstorming</tspan></text>
      <text id="Solution_proposal" data-name="Solution proposal" transform="translate(434 118)" fill="#007aff" font-size="17" font-family="Raleway-Bold, Raleway" font-weight="700" letter-spacing="0em"><tspan x="-71.956" y="0">Solution proposal</tspan></text>
    </g>
    <g id="Group_2" data-name="Group 2" transform="translate(22 -187)">
      <line id="Line_1" data-name="Line 1" y2="73" transform="translate(298.5 344.5)" fill="none" stroke="#707070" stroke-width="2"/>
      <g id="Ellipse_8" data-name="Ellipse 8" transform="translate(290 417)" fill="#eaa078" stroke="#707070" stroke-width="2">
        <circle cx="9" cy="9" r="9" stroke="none"/>
        <circle cx="9" cy="9" r="8" fill="none"/>
      </g>
    </g>
    <g id="Group_5" data-name="Group 5" transform="translate(943 394.5) rotate(180)">
      <line id="Line_3" data-name="Line 3" y2="187.5" transform="translate(447.5 48)" fill="none" stroke="#707070" stroke-width="2"/>
      <g id="Ellipse_9" data-name="Ellipse 9" transform="translate(438 31)" fill="#fade7d" stroke="#707070" stroke-width="2">
        <circle cx="9" cy="9" r="9" stroke="none"/>
        <circle cx="9" cy="9" r="8" fill="none"/>
      </g>
    </g>
  </g>
</svg>
