<svg height="464pt" viewBox="0 0 464 464" width="464pt" xmlns="http://www.w3.org/2000/svg"><path d="m416 368-10.289062 13.710938 58.289062 58.289062v-264l-48 29.761719zm0 0" fill="#ffb655"/><path d="m416 205.761719 48-29.761719h-48zm0 0" fill="#ff9811"/><path d="m80 176v49.679688l-16-9.917969-64-39.761719zm0 0" fill="#ff9811"/><path d="m162.886719 277.113281-82.886719-51.433593-80-49.679688v264zm0 0" fill="#ffb655"/><path d="m301.121094 277.121094-69.121094 42.878906-69.113281-42.886719-162.886719 162.886719v8c.0273438 8.824219 7.175781 15.972656 16 16h432c8.824219-.027344 15.972656-7.175781 16-16v-8zm0 0" fill="#ff9811"/><path d="m384 16v64h-16v32h-8c-4.417969 0-8 3.582031-8 8v125.519531l-50.878906 31.601563-69.121094 42.878906-121.761719-75.519531-30.238281-18.800781v-209.679688c.027344-8.824219 7.175781-15.9726562 16-16h272c4.476562.0117188 8.738281 1.898438 11.761719 5.199219 2.734375 2.929687 4.253906 6.792969 4.238281 10.800781zm0 0" fill="#e6e7e8"/><path d="m301.121094 277.121094 50.878906 50.878906v-82.480469zm0 0" fill="#ffb655"/><path d="m360 112c-4.417969 0-8 3.582031-8 8v24h64v-24c0-4.417969-3.582031-8-8-8zm0 0" fill="#898890"/><path d="m384 144h-32v224h64v-224zm0 0" fill="#c6c5ca"/><path d="m368 112h32v-32h-32zm0 0" fill="#787680"/><path d="m312 48 24 16v-64h-48v64zm0 0" fill="#ff6243"/><path d="m80 96v80h-80zm0 0" fill="#ee8700"/><path d="m416 176h48l-48-48zm0 0" fill="#ee8700"/><path d="m384 16v64h-16v32h-8c-4.417969 0-8 3.582031-8 8v125.519531l-50.878906 31.601563-69.121094 42.878906-121.761719-75.519531c92-44.242188 200-118.402344 269.523438-239.28125 2.734375 2.929687 4.253906 6.792969 4.238281 10.800781zm0 0" fill="#d8d7da"/><path d="m80 96v80h-16v-64zm0 0" fill="#cc7400"/><path d="m80 176v49.679688l-16-9.917969v-39.761719zm0 0" fill="#ee8700"/><path d="m384 440c-4.417969 0-8-3.582031-8-8v-32c0-4.417969 3.582031-8 8-8s8 3.582031 8 8v32c0 4.417969-3.582031 8-8 8zm0 0" fill="#787680"/><path d="m416 136h-64v16h24v56h16v-56h24zm0 0" fill="#787680"/><path d="m120 40h32v16h-32zm0 0" fill="#898890"/><path d="m168 40h64v16h-64zm0 0" fill="#acabb1"/><path d="m120 72h128v16h-128zm0 0" fill="#898890"/><path d="m120 104h48v16h-48zm0 0" fill="#898890"/><path d="m184 104h144v16h-144zm0 0" fill="#acabb1"/><path d="m120 136h112v16h-112zm0 0" fill="#c6c5ca"/><path d="m248 136h80v16h-80zm0 0" fill="#898890"/><path d="m120 168h160v16h-160zm0 0" fill="#acabb1"/><path d="m296 168h32v16h-32zm0 0" fill="#c6c5ca"/><path d="m120 200h128v16h-128zm0 0" fill="#c6c5ca"/><g fill="#898890"><path d="m264 200h64v16h-64zm0 0"/><path d="m376 400h16l13.710938-18.289062-.03125-.03125.03125.03125 10.289062-13.710938h-64zm0 0"/></g></svg>