<svg height="464pt" viewBox="-56 0 464 464" width="464pt" xmlns="http://www.w3.org/2000/svg"><path d="m32 0h288c17.671875 0 32 14.328125 32 32v400c0 17.671875-14.328125 32-32 32h-288c-17.671875 0-32-14.328125-32-32v-400c0-17.671875 14.328125-32 32-32zm0 0" fill="#e6e7e8"/><path d="m352 57.199219v374.800781c0 17.671875-14.328125 32-32 32h-288c-17.671875 0-32-14.328125-32-32v-18.398438c120.320312-50.082031 286.640625-153.761718 352-356.402343zm0 0" fill="#d8d7da"/><path d="m224 349.9375v82.0625l32-24 32 24v-82.0625c-4.550781-.25-59.449219-.25-64 0zm0 0" fill="#00ccb3"/><path d="m272 72 32 24v-96h-64v96zm0 0" fill="#ff6243"/><path d="m317.601562 312c0 7.601562-12.320312 12.71875-15.042968 19.28125-2.796875 6.878906 2.160156 19.117188-3.039063 24.238281-3.34375 2.355469-7.511719 3.226563-11.519531 2.402344-4.242188-.621094-8.5625-.402344-12.71875.636719-6.5625 2.722656-11.679688 15.042968-19.28125 15.042968s-12.71875-12.320312-19.28125-15.042968c-4.15625-1.039063-8.476562-1.257813-12.71875-.636719-4.007812.824219-8.175781-.046875-11.519531-2.402344-5.199219-5.121093-.242188-17.359375-3.039063-24.238281-2.722656-6.5625-15.042968-11.679688-15.042968-19.28125s12.320312-12.71875 15.042968-19.28125c2.796875-6.878906-2.160156-19.117188 3.039063-24.238281 5.199219-5.121094 17.359375-.242188 24.238281-3.039063 6.5625-2.722656 11.679688-15.042968 19.28125-15.042968s12.71875 12.320312 19.28125 15.042968c6.878906 2.796875 19.117188-2.160156 24.238281 3.039063 5.121094 5.199219.242188 17.359375 3.039063 24.238281 2.722656 6.5625 15.042968 11.679688 15.042968 19.28125zm0 0" fill="#ffa733"/><path d="m280 312c0 13.253906-10.746094 24-24 24s-24-10.746094-24-24 10.746094-24 24-24 24 10.746094 24 24zm0 0" fill="#ffd422"/><path d="m56 64h32v16h-32zm0 0" fill="#898890"/><path d="m104 64h80v16h-80zm0 0" fill="#acabb1"/><path d="m56 96h128v16h-128zm0 0" fill="#898890"/><path d="m56 160h144v16h-144zm0 0" fill="#acabb1"/><path d="m216 160h32v16h-32zm0 0" fill="#898890"/><path d="m264 160h32v16h-32zm0 0" fill="#acabb1"/><path d="m56 192h240v16h-240zm0 0" fill="#898890"/><path d="m56 224h96v16h-96zm0 0" fill="#acabb1"/><path d="m56 288h80v16h-80zm0 0" fill="#acabb1"/><path d="m56 320h80v16h-80zm0 0" fill="#c6c5ca"/></svg>