<svg height="464pt" viewBox="0 0 464 464" width="464pt" xmlns="http://www.w3.org/2000/svg"><path d="m248 136c-12.246094 12.246094-47.855469 19.792969-63.921875 22.664062-.066406.441407-.09375.890626-.078125 1.335938v32c0 26.507812 21.492188 48 48 48s48-21.492188 48-48v-32c.011719-.3125-.015625-.628906-.078125-.9375-12.941406-3.863281-24.1875-11.992188-31.921875-23.0625zm0 0" fill="#ffdaaa"/><path d="m184 312 8-56c-35.347656 0-64 28.652344-64 64v64h104v-80zm0 0" fill="#3d9ae2"/><path d="m272 256 8 56-48-8v80h104v-64c0-35.347656-28.652344-64-64-64zm0 0" fill="#1e81ce"/><path d="m272 256h-80l40 48zm0 0" fill="#ffdaaa"/><path d="m232 104c-30.914062.035156-55.964844 25.085938-56 56 0 0 3.152344-.457031 8.078125-1.335938 16.066406-2.871093 51.675781-10.398437 63.921875-22.664062 7.734375 11.070312 18.980469 19.199219 31.921875 23.0625 2.648437.613281 5.359375.929688 8.078125.9375-.035156-30.914062-25.085938-55.964844-56-56zm0 0" fill="#898890"/><path d="m280 312-8-56-40 48zm0 0" fill="#1a6fb0"/><path d="m232 304-40-48-8 56zm0 0" fill="#1e81ce"/><path d="m296 384h-296v32h464v-32zm0 0" fill="#754c29"/><path d="m24 416h416v48h-416zm0 0" fill="#a97c50"/><path d="m456 0h-192c-4.417969 0-8 3.582031-8 8v64c0 4.417969 3.582031 8 8 8h56v32l32-32h104c4.417969 0 8-3.582031 8-8v-64c0-4.417969-3.582031-8-8-8zm0 0" fill="#00ccb3"/><path d="m120 32h-112c-4.417969 0-8 3.582031-8 8v80c0 4.417969 3.582031 8 8 8h88l32 32v-120c0-4.417969-3.582031-8-8-8zm0 0" fill="#ffd422"/><path d="m24 416h416v16h-416zm0 0" fill="#8b5e3c"/><path d="m288 320h16v64h-16zm0 0" fill="#1a6fb0"/><path d="m160 320h16v64h-16zm0 0" fill="#1e81ce"/><g fill="#ffd422"><path d="m296 32h32v16h-32zm0 0"/><path d="m344 32h32v16h-32zm0 0"/><path d="m392 32h32v16h-32zm0 0"/></g><path d="m24 56h80v16h-80zm0 0" fill="#ff7956"/><path d="m24 88h80v16h-80zm0 0" fill="#ff7956"/></svg>