<svg height="464pt" viewBox="0 0 464 464" width="464pt" xmlns="http://www.w3.org/2000/svg"><path d="m401.839844 278.238281c-3.9375 14.378907-9.691406 28.195313-17.121094 41.121094l39.601562 48.402344-56.558593 56.558593-48.402344-39.601562c-11.054687 6.371094-22.777344 11.492188-34.960937 15.28125h-104.796876c-12.183593-3.789062-23.90625-8.910156-34.960937-15.28125l-48.402344 39.601562-56.558593-56.558593 39.601562-48.402344c-7.429688-12.925781-13.183594-26.742187-17.121094-41.121094l-62.160156-6.238281v-80l62.160156-6.238281c3.9375-14.378907 9.691406-28.195313 17.121094-41.121094l-39.601562-48.402344 56.558593-56.558593 48.402344 39.601562c12.925781-7.429688 26.742187-13.183594 41.121094-17.121094l6.238281-62.160156h80l6.238281 62.160156c14.378907 3.9375 28.195313 9.691406 41.121094 17.121094l48.402344-39.601562 56.558593 56.558593-39.601562 48.402344c7.429688 12.925781 13.183594 26.742187 17.121094 41.121094l62.160156 6.238281v80zm0 0" fill="#ffa733"/><path d="m226.320312 112.160156c-54.042968 2.527344-99.707031 40.925782-111.46875 93.734375-11.761718 52.8125 13.285157 106.957031 61.148438 132.183594v29.921875h112v-29.921875c49.730469-26.21875 74.574219-83.460937 59.769531-137.695313-14.808593-54.234374-65.292969-90.910156-121.449219-88.222656zm0 0" fill="#ffd422"/><path d="m288 400v16c0 26.507812-21.492188 48-48 48h-16c-26.507812 0-48-21.492188-48-48v-16zm0 0" fill="#d1d3d4"/><path d="m160 384c0 8.835938 7.164062 16 16 16h112c8.835938 0 16-7.164062 16-16s-7.164062-16-16-16h-112c-8.835938 0-16 7.164062-16 16zm0 0" fill="#a7a9ac"/><path d="m176 400h112v16h-112zm0 0" fill="#bcbec0"/><g fill="#ee8700"><path d="m224 72h16v16h-16zm0 0"/><path d="m113.207031 124.515625 11.316407-11.308594 11.308593 11.316407-11.316406 11.3125zm0 0"/><path d="m72 224h16v16h-16zm0 0"/><path d="m113.210938 339.484375 11.308593-11.316406 11.316407 11.308593-11.308594 11.320313zm0 0"/><path d="m328.164062 339.480469 11.316407-11.3125 11.3125 11.320312-11.320313 11.308594zm0 0"/><path d="m376 224h16v16h-16zm0 0"/><path d="m328.167969 124.527344 11.308593-11.320313 11.320313 11.3125-11.3125 11.316407zm0 0"/></g><path d="m268 264c-1.960938.003906-3.855469-.714844-5.320312-2.015625l-30.679688-27.28125-30.71875 27.273437c-3.03125 2.695313-7.601562 2.695313-10.632812 0l-36-32 10.640624-11.953124 30.710938 27.273437 30.679688-27.273437c3.03125-2.691407 7.59375-2.691407 10.625 0l30.710937 27.28125 30.703125-27.28125 10.625 12-36 32c-1.476562 1.292968-3.378906 1.996093-5.34375 1.976562zm0 0" fill="#ffa733"/></svg>