<svg height="472pt" viewBox="-3 0 471 472" width="472pt" xmlns="http://www.w3.org/2000/svg"><path d="m232.5 56c-52.972656.03125-95.898438 42.988281-95.886719 95.960938.007813 52.976562 42.949219 95.917968 95.925781 95.925781 52.972657.011719 95.929688-42.914063 95.960938-95.886719 0-53.019531-42.980469-96-96-96zm0 0" fill="#ffd422"/><path d="m119.058594 344-45.757813-79.199219c-4.285156-7.4375-12.21875-12.015625-20.800781-12-1.34375-.03125-2.6875.105469-4 .398438v-61.199219c0-13.253906-10.746094-24-24-24s-24 10.746094-24 24v176l32 40v16h96v-63.601562zm0 0" fill="#ffdaaa"/><path d="m440.5 168c-13.253906 0-24 10.746094-24 24v61.199219c-1.3125-.292969-2.65625-.429688-4-.398438-8.582031-.015625-16.515625 4.5625-20.800781 12l-45.757813 79.199219-9.441406 16.398438v63.601562h96v-16l32-40v-176c0-13.253906-10.746094-24-24-24zm0 0" fill="#ffdaaa"/><path d="m16.5 424v48h128v-48zm0 0" fill="#3d9ae2"/><path d="m320.5 424v48h128v-48zm0 0" fill="#3d9ae2"/><path d="m232.5 328 40 16v-104.800781c-12.539062 5.796875-26.1875 8.796875-40 8.800781zm0 0" fill="#00ccb3"/><path d="m272.5 344-40-16-40 16 24 48h32zm0 0" fill="#ffa733"/><path d="m232.5 440c8.835938 0 16-7.164062 16-16v-32h-32v32c0 8.835938 7.164062 16 16 16zm0 0" fill="#898890"/><path d="m192.5 216v128l40-16v-112zm0 0" fill="#0b7"/><path d="m232.5 216v32c13.8125-.003906 27.460938-3.003906 40-8.800781v-23.199219zm0 0" fill="#00ccb3"/><path d="m272.5 184h-80v32h80zm0 0" fill="#ffa733"/><path d="m272.5 152c0-17.671875-14.328125-32-32-32h-16c-17.671875 0-32 14.328125-32 32v32h80zm0 0" fill="#e6e7e8"/><g fill="#ffa733"><path d="m224.5 0h16v32h-16zm0 0"/><path d="m119.367188 50.171875 11.316406-11.3125 22.625 22.628906-11.316406 11.3125zm0 0"/><path d="m80.5 144h32v16h-32zm0 0"/><path d="m119.371094 253.820312 22.628906-22.628906 11.3125 11.316406-22.625 22.625zm0 0"/><path d="m311.695312 242.507812 11.3125-11.3125 22.628907 22.628907-11.316407 11.3125zm0 0"/><path d="m352.5 144h32v16h-32zm0 0"/><path d="m311.695312 61.484375 22.625-22.625 11.316407 11.3125-22.628907 22.628906zm0 0"/></g><path d="m80.226562 260.800781c-5.730468-9.890625-16.292968-15.988281-27.726562-16-1.851562-.027343-3.699219.152344-5.511719.535157-3.695312.613281-7.253906 1.878906-10.503906 3.742187-15.253906 8.882813-20.484375 28.40625-11.710937 43.722656l41.726562 72.269531c2.210938 3.828126 7.101562 5.140626 10.929688 2.929688 3.824218-2.210938 5.136718-7.101562 2.925781-10.929688l-41.703125-72.269531c-4.425782-7.613281-1.867188-17.367187 5.71875-21.832031 1.621094-.957031 3.410156-1.59375 5.273437-1.878906.261719-.042969.535157-.097656.800781-.160156.679688-.113282 1.367188-.15625 2.054688-.128907 5.730469-.042969 11.03125 3.019531 13.863281 8l41.433594 71.726563c1.070313 1.859375 2.84375 3.207031 4.917969 3.746094 2.078125.539062 4.28125.21875 6.121094-.882813 3.746093-2.242187 5-7.078125 2.816406-10.863281zm0 0" fill="#ffc477"/><path d="m428.421875 249.023438c-3.222656-1.839844-6.742187-3.085938-10.402344-3.6875-1.8125-.382813-3.664062-.5625-5.519531-.535157-11.433594.015625-21.992188 6.109375-27.726562 16l-40.847657 70.734375c-1.453125 2.476563-1.46875 5.542969-.039062 8.03125 1.429687 2.488282 4.085937 4.023438 6.957031 4.015625 2.871094-.007812 5.515625-1.550781 6.9375-4.046875l40.855469-70.734375c2.832031-4.980469 8.136719-8.039062 13.863281-8 .691406-.015625 1.382812.035157 2.0625.160157.257812.0625.53125.117187.800781.160156 2.019531.308594 3.953125 1.03125 5.679688 2.117187 7.316406 4.6875 9.613281 14.324219 5.191406 21.800781l-41.597656 72c-1.070313 1.84375-1.363281 4.035157-.8125 6.089844.550781 2.058594 1.898437 3.8125 3.746093 4.871094 3.828126 2.210938 8.71875.898438 10.929688-2.929688l41.726562-72.269531c8.78125-15.355469 3.503907-34.917969-11.804687-43.777343zm0 0" fill="#ffc477"/></svg>