<svg height="464pt" viewBox="0 0 464.55917 464" width="464pt" xmlns="http://www.w3.org/2000/svg"><path d="m336 32.28125c-1.746094-.003906-3.484375.15625-5.199219.476562-15.453125 2.515626-26.804687 15.867188-26.800781 31.523438v336h-304v-336c0-17.675781 14.328125-32 32-32zm0 0" fill="#e6e7e8"/><path d="m304 95v305.28125h-304v-33.203125c101.679688-45.039063 230-127.359375 304-272.078125zm0 0" fill="#d8d7da"/><path d="m358.640625 41.640625c5.980469 6.019531 9.34375 14.152344 9.359375 22.640625v40c0 17.671875 14.328125 32 32 32s32-14.328125 32-32v-96c0-4.421875-3.582031-8-8-8h-352c-4.417969 0-8 3.578125-8 8v24h272c8.484375.011719 16.621094 3.378906 22.640625 9.359375zm0 0" fill="#d1d3d4"/><path d="m368 104.28125v-40c0-17.675781-14.328125-32-32-32s-32 14.324219-32 32v72h96c-17.671875 0-32-14.328125-32-32zm0 0" fill="#bcbec0"/><path d="m208 432.28125 32 32v-90.082031c-19.214844 13.441406-44.785156 13.441406-64 0v90.082031zm0 0" fill="#00ccb3"/><path d="m264 328.28125c0 30.925781-25.070312 56-56 56s-56-25.074219-56-56c0-30.929688 25.070312-56 56-56s56 25.070312 56 56zm0 0" fill="#ffa733"/><path d="m240 328.28125c0 17.671875-14.328125 32-32 32s-32-14.328125-32-32c0-17.675781 14.328125-32 32-32s32 14.324219 32 32zm0 0" fill="#ffd422"/><path d="m460.449219 167.273438s-35.105469-6.921876-64.464844 31.054687c-14.539063 20.304687-19.578125 45.90625-13.824219 70.207031 1.324219.214844 2.660156.347656 4 .410156 9.984375.542969 37.015625-1.160156 60.449219-31.472656 29.390625-37.992187 13.839844-70.199218 13.839844-70.199218zm0 0" fill="#8b5e3c"/><path d="m88 72.28125h176v16h-176zm0 0" fill="#acabb1"/><path d="m40 120.28125h224v16h-224zm0 0" fill="#898890"/><path d="m40 168.28125h176v16h-176zm0 0" fill="#898890"/><path d="m232 168.28125h32v16h-32zm0 0" fill="#acabb1"/><path d="m40 72.28125h32v16h-32zm0 0" fill="#898890"/><path d="m40 216.28125h16v16h-16zm0 0" fill="#acabb1"/><path d="m72 216.28125h192v16h-192zm0 0" fill="#898890"/><path d="m64 312.28125c-6.101562.28125-12.089844-1.714844-16.800781-5.601562-1.949219-1.785157-4.566407-2.660157-7.199219-2.398438v-16c6.101562-.285156 12.089844 1.710938 16.800781 5.597656 1.949219 1.789063 4.566407 2.660156 7.199219 2.402344 3.527344 0 6.398438-2.3125 10.792969-6.074219 5.554687-5.875 13.136719-9.425781 21.207031-9.925781 6.101562-.285156 12.089844 1.710938 16.800781 5.597656 1.945313 1.792969 4.566407 2.667969 7.199219 2.402344v16c-6.101562.28125-12.089844-1.714844-16.800781-5.601562-1.945313-1.792969-4.566407-2.667969-7.199219-2.398438-3.527344 0-6.398438 2.308594-10.792969 6.070312-5.554687 5.878907-13.136719 9.425782-21.207031 9.929688zm0 0" fill="#787680"/><path d="m40 328.28125h80v16h-80zm0 0" fill="#898890"/><path d="m336 440.808594-16-1.058594c8.078125-121.191406 91.65625-223.199219 95.199219-227.519531l12.3125 10.210937c-.808594 1.039063-83.800781 102.453125-91.511719 218.367188zm0 0" fill="#898890"/><path d="m400 384.28125h-96c-17.671875 0-32 14.324219-32 32v11.199219c26.65625 0 26.65625 9.597656 53.3125 9.597656 1.046875 0 2-.039063 2.96875-.070313 23.671875-.695312 24.796875-9.527343 50.398438-9.527343 26.671874 0 26.671874 9.597656 53.34375 9.597656v-20.796875c0-17.683594-14.339844-32.015625-32.023438-32zm0 0" fill="#f1f2f2"/><path d="m384 352.28125h-64c-4.417969 0-8 3.578125-8 8v24h80v-24c0-4.421875-3.582031-8-8-8zm0 0" fill="#e6e7e8"/><path d="m378.65625 427.480469c-25.601562 0-26.703125 8.800781-50.398438 9.527343-.96875 0-1.921874.070313-2.96875.070313-26.65625 0-26.65625-9.597656-53.3125-9.597656v28.800781c0 4.417969 3.582032 8 8 8h144.023438c4.417969 0 8-3.582031 8-8v-19.203125c-26.671875 0-26.671875-9.597656-53.34375-9.597656zm0 0" fill="#1e81ce"/></svg>