<svg height="464pt" viewBox="-11 0 463 464" width="464pt" xmlns="http://www.w3.org/2000/svg"><path d="m304.578125 215.046875c-.0625.3125-.089844.632813-.078125.953125v16c0 22.089844 17.910156 40 40 40s40-17.910156 40-40v-16c.011719-.371094-.011719-.738281-.078125-1.105469-11.304687-3.398437-22.058594-8.414062-31.921875-14.894531-8.800781 8.800781-34.648438 13.265625-47.921875 15.046875zm0 0" fill="#ffdaaa"/><path d="m48.578125 214.894531c-.066406.367188-.089844.734375-.078125 1.105469v16c0 22.089844 17.910156 40 40 40s40-17.910156 40-40v-16c.011719-.320312-.015625-.640625-.078125-.953125-13.273437-1.78125-39.121094-6.246094-47.921875-15.046875-9.863281 6.480469-20.617188 11.496094-31.921875 14.894531zm0 0" fill="#ffdaaa"/><path d="m344.5 168c-26.5.027344-47.972656 21.5-48 48 0 0 3.199219-.304688 8.078125-.953125 13.273437-1.78125 39.121094-6.246094 47.921875-15.046875 9.863281 6.480469 20.617188 11.496094 31.921875 14.894531 2.640625.679688 5.351563 1.050781 8.078125 1.105469-.027344-26.5-21.5-47.972656-48-48zm0 0" fill="#898890"/><path d="m368.5 288h-48l24 48zm0 0" fill="#ffdaaa"/><path d="m312.5 344 8-56c-35.347656 0-64 28.652344-64 64v112h88v-128zm0 0" fill="#00ccb3"/><path d="m368.5 288 8 56-32-8v128h88v-112c0-35.347656-28.652344-64-64-64zm0 0" fill="#0b7"/><path d="m344.5 336-24-48-8 56zm0 0" fill="#0b7"/><path d="m376.5 344-8-56-24 48zm0 0" fill="#00a468"/><path d="m88.5 168c-26.5.027344-47.972656 21.5-48 48 2.726562-.054688 5.4375-.425781 8.078125-1.105469 11.304687-3.398437 22.058594-8.414062 31.921875-14.894531 8.800781 8.800781 34.648438 13.265625 47.921875 15.046875 4.878906.648437 8.078125.953125 8.078125.953125-.027344-26.5-21.5-47.972656-48-48zm0 0" fill="#898890"/><path d="m112.5 288h-48l24 48zm0 0" fill="#ffdaaa"/><path d="m112.5 288 8 56-32-8v128h88v-112c0-35.347656-28.652344-64-64-64zm0 0" fill="#1e81ce"/><path d="m56.5 344 8-56c-35.347656 0-64 28.652344-64 64v112h88v-128zm0 0" fill="#3d9ae2"/><path d="m88.5 336-24-48-8 56zm0 0" fill="#1e81ce"/><path d="m120.5 344-8-56-24 48zm0 0" fill="#1a6fb0"/><path d="m104.5 0c-44.183594 0-80 25.070312-80 56 0 30.175781 34.128906 54.710938 76.800781 55.886719l-4.800781 24.113281 30.710938-26.320312c33.113281-6.855469 57.289062-28.28125 57.289062-53.679688 0-30.929688-35.816406-56-80-56zm0 0" fill="#ffd422"/><path d="m360.5 0c-44.183594 0-80 25.070312-80 56 0 30.304688 34.398438 54.921875 77.351562 55.902344l-5.351562 32.097656 35.457031-35.457031c30.640625-7.847657 52.542969-28.375 52.542969-52.542969 0-30.929688-35.816406-56-80-56zm0 0" fill="#00ccb3"/><path d="m392.5 352h16v112h-16zm0 0" fill="#00a468"/><path d="m280.5 352h16v112h-16zm0 0" fill="#00b39d"/><path d="m136.5 352h16v112h-16zm0 0" fill="#1a6fb0"/><path d="m24.5 352h16v112h-16zm0 0" fill="#1e81ce"/><g fill="#ffb655"><path d="m160.5 224h40v16h-40zm0 0"/><path d="m156.917969 271.160156 7.15625-14.3125 32 16-7.15625 14.308594zm0 0"/><path d="m156.925781 192.84375 32-16 7.152344 14.308594-31.996094 16zm0 0"/><path d="m232.5 224h40v16h-40zm0 0"/><path d="m236.921875 272.84375 31.996094-16 7.15625 14.3125-32 16zm0 0"/><path d="m236.925781 191.15625 7.15625-14.3125 32 16-7.15625 14.3125zm0 0"/></g><path d="m320.5 32h80v16h-80zm0 0" fill="#ffd422"/><path d="m320.5 64h80v16h-80zm0 0" fill="#ffd422"/><path d="m96.5 48h16v16h-16zm0 0" fill="#ff6243"/><path d="m128.5 48h16v16h-16zm0 0" fill="#ff6243"/><path d="m64.5 48h16v16h-16zm0 0" fill="#ff6243"/></svg>