<svg height="464pt" viewBox="0 0 464 464.00282" width="464pt" xmlns="http://www.w3.org/2000/svg"><path d="m368 16v208h-116.480469c-6.890625-.015625-13.003906-4.425781-15.199219-10.960938l-8.640624-26.078124c-2.191407-6.535157-8.304688-10.945313-15.199219-10.960938h-148.480469v-160c.027344-8.824219 7.175781-15.9726562 16-16h272c8.828125.0273438 15.976562 7.175781 16 16zm0 0" fill="#e6e7e8"/><path d="m368 17.761719v206.238281h-116.480469c-6.890625-.015625-13.003906-4.425781-15.199219-10.960938l-8.640624-26.078124c-2.191407-6.535157-8.304688-10.945313-15.199219-10.960938h-71.277344c71.4375-31.359375 156.636719-81.121094 226.796875-158.238281zm0 0" fill="#d8d7da"/><path d="m448 96h-80v128h16c8.839844 0 16 7.164062 16 16v190.625c-.277344 16.820312 12.164062 31.144531 28.855469 33.222656 8.992187.886719 17.941406-2.066406 24.632812-8.132812 6.695313-6.066406 10.515625-14.679688 10.511719-23.714844v-320c0-8.835938-7.160156-16-16-16zm0 0" fill="#ffa733"/><path d="m296 48 24 16v-64h-48v64zm0 0" fill="#ff6243"/><path d="m432 464h-400c-17.671875 0-32-14.328125-32-32v-240c.0273438-8.824219 7.175781-15.972656 16-16h196.480469c6.894531.015625 13.007812 4.425781 15.199219 10.960938l8.640624 26.078124c2.195313 6.535157 8.308594 10.945313 15.199219 10.960938h132.480469c8.828125.027344 15.976562 7.175781 16 16v190.640625c-.265625 16.816406 12.1875 31.132813 28.882812 33.199219 1.039063.082031 2.078126.160156 3.117188.160156zm0 0" fill="#ffb655"/><path d="m48 352h112v64h-112zm0 0" fill="#e6e7e8"/><path d="m368 96h16v128h-16zm0 0" fill="#ff9811"/><path d="m104 32h32v16h-32zm0 0" fill="#acabb1"/><path d="m152 32h64v16h-64zm0 0" fill="#c6c5ca"/><path d="m104 64h128v16h-128zm0 0" fill="#acabb1"/><path d="m104 96h48v16h-48zm0 0" fill="#acabb1"/><path d="m168 96h160v16h-160zm0 0" fill="#c6c5ca"/><path d="m104 128h128v16h-128zm0 0" fill="#c6c5ca"/><path d="m248 128h80v16h-80zm0 0" fill="#acabb1"/></svg>