<svg height="465pt" viewBox="-42 0 465 465.04462" width="465pt" xmlns="http://www.w3.org/2000/svg"><path d="m16.023438 0h256c8.835937 0 16 7.164062 16 16v352c0 8.835938-7.164063 16-16 16h-256c-8.835938 0-16.0000005-7.164062-16.0000005-16v-352c0-8.835938 7.1640625-16 16.0000005-16zm0 0" fill="#acabb1"/><path d="m379.574219 383.320312-11.632813-20.921874.082032-82.398438-50.402344-90.960938c-6.425782-11.597656-21.039063-15.789062-32.640625-9.359374-11.597657 6.429687-15.785157 21.042968-9.359375 32.640624l23.273437 41.976563c-23.1875 12.851563-31.566406 42.066406-18.710937 65.253906l7.839844 12.097657v36.351562c-.027344 8.824219-7.175782 15.972656-16 16h-120.722657l10.722657 19.359375 66 36.5625 11.640624 21c2.140626 3.867187 7.011719 5.261719 10.878907 3.117187l125.917969-69.839843c3.867187-2.144531 5.257812-7.015625 3.113281-10.878907zm0 0" fill="#ffdaaa"/><path d="m32.023438 32h224v288h-224zm0 0" fill="#78b9eb"/><path d="m256.023438 54.238281v265.761719h-224v-23.28125c84.078124-51.359375 170.800781-128.480469 224-242.480469zm0 0" fill="#5aaae7"/><path d="m120.023438 344h48v16h-48zm0 0" fill="#898890"/><path d="m72.023438 64h32v16h-32zm0 0" fill="#3d9ae2"/><path d="m120.023438 64h96v16h-96zm0 0" fill="#1e81ce"/><path d="m72.023438 96h144v16h-144zm0 0" fill="#1e81ce"/><path d="m72.023438 128h96v16h-96zm0 0" fill="#3d9ae2"/><path d="m184.023438 128h32v16h-32zm0 0" fill="#1e81ce"/><path d="m72.023438 160h144v16h-144zm0 0" fill="#1e81ce"/><g fill="#3d9ae2"><path d="m72.023438 224h96v16h-96zm0 0"/><path d="m184.023438 224h32v16h-32zm0 0"/><path d="m72.023438 256h144v16h-144zm0 0"/></g><path d="m72.023438 192h64v16h-64zm0 0" fill="#1e81ce"/><path d="m152.023438 192h32v16h-32zm0 0" fill="#3d9ae2"/><path d="m200.023438 192h16v16h-16zm0 0" fill="#3d9ae2"/><path d="m298.902344 254.320312c-3.992188 2.195313-7.65625 4.941407-10.878906 8.160157v-27.761719zm0 0" fill="#ffc477"/></svg>