<svg height="464pt" viewBox="0 0 464.55917 464" width="464pt" xmlns="http://www.w3.org/2000/svg"><path d="m32 .28125h288c17.671875 0 32 14.324219 32 32v400c0 17.671875-14.328125 32-32 32h-288c-17.671875 0-32-14.328125-32-32v-400c0-17.675781 14.328125-32 32-32zm0 0" fill="#e6e7e8"/><path d="m352 84.441406v347.839844c0 17.671875-14.328125 32-32 32h-288c-17.671875 0-32-14.328125-32-32v-27.921875c112.558594-44.078125 274.960938-136.878906 352-319.917969zm0 0" fill="#d8d7da"/><path d="m460.449219 167.273438s-35.105469-6.921876-64.464844 31.054687c-14.539063 20.304687-19.578125 45.90625-13.824219 70.207031 1.324219.214844 2.660156.347656 4 .410156 9.984375.542969 37.015625-1.160156 60.449219-31.472656 29.390625-37.992187 13.839844-70.199218 13.839844-70.199218zm0 0" fill="#8b5e3c"/><path d="m280 56.28125 24 24v-80h-48v80zm0 0" fill="#ff6243"/><path d="m336 440.808594-16-1.058594c8.078125-121.191406 91.648438-223.199219 95.199219-227.527344l12.3125 10.21875c-.816407 1.039063-83.800781 102.445313-91.511719 218.367188zm0 0" fill="#898890"/><path d="m112 136.28125h176v16h-176zm0 0" fill="#c6c5ca"/><path d="m64 184.28125h224v16h-224zm0 0" fill="#c6c5ca"/><path d="m64 232.28125h176v16h-176zm0 0" fill="#898890"/><path d="m256 232.28125h32v16h-32zm0 0" fill="#c6c5ca"/><path d="m64 136.28125h32v16h-32zm0 0" fill="#898890"/><path d="m64 280.28125h16v16h-16zm0 0" fill="#acabb1"/><path d="m96 280.28125h192v16h-192zm0 0" fill="#c6c5ca"/><path d="m200 376.28125c-6.101562.277344-12.085938-1.71875-16.800781-5.601562-1.945313-1.792969-4.566407-2.664063-7.199219-2.398438v-16c6.101562-.28125 12.085938 1.714844 16.800781 5.597656 1.945313 1.792969 4.566407 2.664063 7.199219 2.402344 3.527344 0 6.398438-2.304688 10.792969-6.074219 5.554687-5.875 13.136719-9.421875 21.207031-9.925781 6.101562-.289062 12.089844 1.707031 16.800781 5.597656 1.949219 1.789063 4.566407 2.664063 7.199219 2.402344v16c-6.101562.285156-12.089844-1.710938-16.800781-5.601562-1.949219-1.789063-4.566407-2.660157-7.199219-2.398438-3.527344 0-6.398438 2.300781-10.792969 6.070312-5.554687 5.875-13.136719 9.421876-21.207031 9.929688zm0 0" fill="#898890"/><path d="m176 392.28125h80v16h-80zm0 0" fill="#acabb1"/><path d="m64 40.28125h32v16h-32zm0 0" fill="#898890"/><path d="m112 40.28125h48v16h-48zm0 0" fill="#c6c5ca"/><path d="m64 72.28125h96v16h-96zm0 0" fill="#c6c5ca"/><path d="m378.65625 427.480469c-25.601562 0-26.703125 8.800781-50.398438 9.527343-.96875 0-1.921874.070313-2.96875.070313-26.65625 0-26.65625-9.597656-53.3125-9.597656v28.800781c0 4.417969 3.582032 8 8 8h144.023438c4.417969 0 8-3.582031 8-8v-19.203125c-26.671875 0-26.671875-9.597656-53.34375-9.597656zm0 0" fill="#1e81ce"/><path d="m400 384.28125h-96c-17.671875 0-32 14.324219-32 32v11.199219c26.65625 0 26.65625 9.597656 53.3125 9.597656 1.046875 0 2-.039063 2.96875-.070313 23.671875-.695312 24.796875-9.527343 50.398438-9.527343 26.671874 0 26.671874 9.597656 53.34375 9.597656v-20.796875c0-17.683594-14.339844-32.015625-32.023438-32zm0 0" fill="#f1f2f2"/><path d="m384 352.28125h-64c-4.417969 0-8 3.578125-8 8v24h80v-24c0-4.421875-3.582031-8-8-8zm0 0" fill="#e6e7e8"/></svg>