<svg height="464pt" viewBox="0 0 464 464" width="464pt" xmlns="http://www.w3.org/2000/svg"><path d="m400 360c-4.417969 0-8-3.582031-8-8v-32c0-4.417969 3.582031-8 8-8s8 3.582031 8 8v32c0 4.417969-3.582031 8-8 8zm0 0" fill="#1a6fb0"/><path d="m304 0v288h-272c-17.671875 0-32 14.328125-32 32v-288c0-17.671875 14.328125-32 32-32zm0 0" fill="#8b5e3c"/><path d="m448 384h-432c-8.835938 0-16 7.164062-16 16v64h464v-64c0-8.835938-7.164062-16-16-16zm0 0" fill="#ffd422"/><path d="m64 40h192v64h-192zm0 0" fill="#e6e7e8"/><path d="m400 64h-32v224h64v-224zm0 0" fill="#5aaae7"/><path d="m392 320h16l24-32h-64zm0 0" fill="#1e81ce"/><path d="m376 32c-4.417969 0-8 3.582031-8 8v24h64v-24c0-4.417969-3.582031-8-8-8zm0 0" fill="#1e81ce"/><path d="m384 0h32v32h-32zm0 0" fill="#1a6fb0"/><path d="m32 288h272v64h-272c-17.671875 0-32-14.328125-32-32s14.328125-32 32-32zm0 0" fill="#603913"/><g fill="#e6bf1f"><path d="m224 424h16v40h-16zm0 0"/><path d="m272 440h16v24h-16zm0 0"/><path d="m320 440h16v24h-16zm0 0"/><path d="m368 440h16v24h-16zm0 0"/><path d="m416 440h16v24h-16zm0 0"/><path d="m176 440h16v24h-16zm0 0"/><path d="m128 440h16v24h-16zm0 0"/><path d="m80 440h16v24h-16zm0 0"/><path d="m32 440h16v24h-16zm0 0"/></g><path d="m40 312h264v16h-264zm0 0" fill="#45290e"/><path d="m96 160h128v16h-128zm0 0" fill="#754c29"/><path d="m80 192h160v16h-160zm0 0" fill="#754c29"/><path d="m432 56h-64v16h24v56h16v-56h24zm0 0" fill="#1a6fb0"/></svg>