<svg height="464pt" viewBox="0 0 464 464" width="464pt" xmlns="http://www.w3.org/2000/svg"><path d="m464 64v368c0 17.671875-14.328125 32-32 32h-400c-17.671875 0-32-14.328125-32-32v-368zm0 0" fill="#78b9eb"/><path d="m464 64v368c0 17.671875-14.328125 32-32 32h-400c-17.671875 0-32-14.328125-32-32v-45.28125c77.519531-18.878906 323.359375-95.4375 435.28125-322.71875zm0 0" fill="#5aaae7"/><path d="m392 280v-48l-44-6.289062c-2.761719-10.640626-6.988281-20.847657-12.550781-30.328126l26.664062-35.550781-33.9375-33.9375-35.558593 26.664063c-37.394532-22.082032-83.839844-22.082032-121.234376 0l-35.550781-26.664063-33.9375 33.9375 26.664063 35.550781c-5.566406 9.480469-9.792969 19.6875-12.558594 30.328126l-44 6.289062v48l44 6.289062c2.761719 10.640626 6.988281 20.847657 12.550781 30.328126l-26.664062 35.550781 33.9375 33.9375 35.550781-26.664063c37.394531 22.082032 83.839844 22.082032 121.234375 0l35.550781 26.664063 33.9375-33.9375-26.65625-35.550781c5.566406-9.480469 9.792969-19.6875 12.558594-30.328126zm0 0" fill="#ffa733"/><path d="m320 256c0 48.601562-39.398438 88-88 88s-88-39.398438-88-88 39.398438-88 88-88 88 39.398438 88 88zm0 0" fill="#ff7956"/><path d="m432 0h-400c-17.671875 0-32 14.328125-32 32v32h464v-32c0-17.671875-14.328125-32-32-32zm0 0" fill="#ff6243"/><path d="m232 312 40 16v-128h-40zm0 0" fill="#0b7"/><path d="m248 376 24-48-40-16-40 16 24 48zm0 0" fill="#ffc477"/><path d="m232 200h-40v128l40-16zm0 0" fill="#00ccb3"/><path d="m216 408c0 8.835938 7.164062 16 16 16s16-7.164062 16-16v-32h-32zm0 0" fill="#787680"/><path d="m272 200v-32h-80v32zm0 0" fill="#ffc477"/><path d="m272 136c0-17.671875-14.328125-32-32-32h-16c-17.671875 0-32 14.328125-32 32v32h80zm0 0" fill="#e6e7e8"/><path d="m48 40c-1.046875-.011719-2.078125-.230469-3.039062-.640625-.96875-.40625-1.863282-.972656-2.640626-1.679687-2.289062-2.289063-2.957031-5.742188-1.679687-8.71875.386719-.980469.957031-1.875 1.679687-2.640626.390626-.363281.820313-.6875 1.28125-.960937.40625-.316406.867188-.558594 1.359376-.71875.453124-.230469.9375-.394531 1.4375-.480469 1.558593-.332031 3.183593-.164062 4.640624.480469.96875.40625 1.863282.972656 2.640626 1.679687.722656.765626 1.292968 1.660157 1.679687 2.640626 1.277344 2.976562.609375 6.429687-1.679687 8.71875-.777344.707031-1.671876 1.273437-2.640626 1.679687-.960937.410156-1.992187.628906-3.039062.640625zm0 0" fill="#ffd422"/><path d="m80 40c-1.046875-.011719-2.078125-.230469-3.039062-.640625-.96875-.40625-1.863282-.972656-2.640626-1.679687-2.289062-2.289063-2.957031-5.742188-1.679687-8.71875.386719-.980469.957031-1.875 1.679687-2.640626.777344-.707031 1.671876-1.273437 2.640626-1.679687 1.457031-.644531 3.082031-.8125 4.640624-.480469.5.085938.984376.25 1.4375.480469.511719.175781.996094.417969 1.441407.71875.417969.296875.820312.617187 1.199219.960937.707031.777344 1.273437 1.671876 1.679687 2.640626.449219.949218.667969 1.988281.640625 3.039062.019531 2.128906-.816406 4.175781-2.320312 5.679688-.777344.707031-1.671876 1.273437-2.640626 1.679687-.960937.410156-1.992187.628906-3.039062.640625zm0 0" fill="#00ccb3"/><path d="m112 40c-1.046875-.011719-2.078125-.230469-3.039062-.640625-.96875-.40625-1.863282-.972656-2.640626-1.679687-.703124-.777344-1.273437-1.671876-1.679687-2.640626-.449219-.949218-.667969-1.988281-.640625-3.039062.011719-1.046875.230469-2.078125.640625-3.039062.386719-.980469.957031-1.875 1.679687-2.640626.390626-.363281.820313-.6875 1.28125-.960937.40625-.316406.867188-.558594 1.359376-.71875.453124-.230469.9375-.394531 1.4375-.480469 1.558593-.332031 3.183593-.164062 4.640624.480469.96875.40625 1.863282.972656 2.640626 1.679687.722656.765626 1.292968 1.660157 1.679687 2.640626 1.277344 2.976562.609375 6.429687-1.679687 8.71875-.777344.707031-1.671876 1.273437-2.640626 1.679687-.960937.410156-1.992187.628906-3.039062.640625zm0 0" fill="#ffa733"/><g fill="#ff5023"><path d="m168.289062 316.128906c-1.667968 1.550782-3.910156 2.324219-6.179687 2.136719s-4.355469-1.324219-5.742187-3.128906c-27.167969-34.742188-27.167969-83.53125 0-118.273438 1.386718-1.804687 3.472656-2.941406 5.742187-3.128906s4.511719.585937 6.179687 2.136719c2.992188 2.769531 3.375 7.367187.878907 10.59375-22.890625 29.054687-22.890625 70.015625 0 99.070312 2.496093 3.226563 2.113281 7.824219-.878907 10.59375zm0 0"/><path d="m295.710938 316.128906c-2.992188-2.769531-3.375-7.367187-.878907-10.59375 22.890625-29.054687 22.890625-70.015625 0-99.070312-2.496093-3.226563-2.113281-7.824219.878907-10.59375 1.667968-1.550782 3.910156-2.324219 6.179687-2.136719s4.355469 1.324219 5.742187 3.128906c27.167969 34.742188 27.167969 83.53125 0 118.273438-1.386718 1.804687-3.472656 2.941406-5.742187 3.128906s-4.511719-.585937-6.179687-2.136719zm0 0"/></g></svg>