<svg height="464pt" viewBox="-8 0 464 464" width="464pt" xmlns="http://www.w3.org/2000/svg"><path d="m192 0h-144v224h144c17.671875 0 32 14.328125 32 32v-224c0-17.671875-14.328125-32-32-32zm0 0" fill="#d1d3d4"/><path d="m256 0c-17.671875 0-32 14.328125-32 32v224c0-17.671875 14.328125-32 32-32h144v-224zm0 0" fill="#e6e7e8"/><path d="m400 256h32v-224h-32zm0 0" fill="#8b5e3c"/><path d="m400 224h-144c-17.671875 0-32 14.328125-32 32h176zm0 0" fill="#8b5e3c"/><path d="m48 32h-32v224h32zm0 0" fill="#8b5e3c"/><path d="m192 224h-144v32h176c0-17.671875-14.328125-32-32-32zm0 0" fill="#8b5e3c"/><path d="m16 304h416c8.835938 0 16 7.164062 16 16v128c0 8.835938-7.164062 16-16 16h-416c-8.835938 0-16-7.164062-16-16v-128c0-8.835938 7.164062-16 16-16zm0 0" fill="#ffb655"/><path d="m32 336h32v32h-32zm0 0" fill="#ff6243"/><path d="m96 336h32v32h-32zm0 0" fill="#ff6243"/><path d="m160 336h32v32h-32zm0 0" fill="#ff6243"/><path d="m224 336h32v32h-32zm0 0" fill="#ff6243"/><path d="m288 336h32v32h-32zm0 0" fill="#ff6243"/><path d="m32 400h288v32h-288zm0 0" fill="#ff6243"/><path d="m416 352h-32v48h-32v32h64zm0 0" fill="#ff6243"/><g fill="#898890"><path d="m264 32h112v16h-112zm0 0"/><path d="m264 80h112v16h-112zm0 0"/><path d="m264 128h112v16h-112zm0 0"/><path d="m264 176h112v16h-112zm0 0"/><path d="m72 32h112v16h-112zm0 0"/><path d="m72 80h112v16h-112zm0 0"/><path d="m72 128h112v16h-112zm0 0"/><path d="m72 176h112v16h-112zm0 0"/></g><path d="m376 304h-16v-16h-128c-8.835938 0-16-7.164062-16-16v-16h16v16h128c8.835938 0 16 7.164062 16 16zm0 0" fill="#1e81ce"/></svg>