<svg height="464pt" viewBox="0 0 464 464" width="464pt" xmlns="http://www.w3.org/2000/svg"><path d="m240 0c-17.671875 0-32 14.328125-32 32v240c0-17.671875 14.328125-32 32-32v-48c.027344-8.824219 7.175781-15.972656 16-16h112v-176zm0 0" fill="#e6e7e8"/><path d="m176 0h-144v240h144c17.671875 0 32 14.328125 32 32v-240c0-17.671875-14.328125-32-32-32zm0 0" fill="#d1d3d4"/><path d="m256 176h192c8.835938 0 16 7.164062 16 16v256c0 8.835938-7.164062 16-16 16h-192c-8.835938 0-16-7.164062-16-16v-256c0-8.835938 7.164062-16 16-16zm0 0" fill="#ffb655"/><path d="m208 272v32h32v-64c-17.671875 0-32 14.328125-32 32zm0 0" fill="#8b5e3c"/><path d="m176 240h-144v-208h-32v272h208v-32c0-17.671875-14.328125-32-32-32zm0 0" fill="#8b5e3c"/><path d="m368 32h32v144h-32zm0 0" fill="#8b5e3c"/><path d="m80 272v80l24-24 24 24v-80zm0 0" fill="#ff6243"/><path d="m280 208h144c4.417969 0 8 3.582031 8 8v32c0 4.417969-3.582031 8-8 8h-144c-4.417969 0-8-3.582031-8-8v-32c0-4.417969 3.582031-8 8-8zm0 0" fill="#ffd422"/><g fill="#ff6243"><path d="m304 304c0 8.835938-7.164062 16-16 16s-16-7.164062-16-16 7.164062-16 16-16 16 7.164062 16 16zm0 0"/><path d="m368 304c0 8.835938-7.164062 16-16 16s-16-7.164062-16-16 7.164062-16 16-16 16 7.164062 16 16zm0 0"/><path d="m432 304c0 8.835938-7.164062 16-16 16s-16-7.164062-16-16 7.164062-16 16-16 16 7.164062 16 16zm0 0"/><path d="m304 360c0 8.835938-7.164062 16-16 16s-16-7.164062-16-16 7.164062-16 16-16 16 7.164062 16 16zm0 0"/><path d="m368 360c0 8.835938-7.164062 16-16 16s-16-7.164062-16-16 7.164062-16 16-16 16 7.164062 16 16zm0 0"/><path d="m432 360c0 8.835938-7.164062 16-16 16s-16-7.164062-16-16 7.164062-16 16-16 16 7.164062 16 16zm0 0"/><path d="m304 416c0 8.835938-7.164062 16-16 16s-16-7.164062-16-16 7.164062-16 16-16 16 7.164062 16 16zm0 0"/><path d="m368 416c0 8.835938-7.164062 16-16 16s-16-7.164062-16-16 7.164062-16 16-16 16 7.164062 16 16zm0 0"/><path d="m432 416c0 8.835938-7.164062 16-16 16s-16-7.164062-16-16 7.164062-16 16-16 16 7.164062 16 16zm0 0"/></g><path d="m240 40h96v16h-96zm0 0" fill="#acabb1"/><path d="m240 88h96v16h-96zm0 0" fill="#acabb1"/><path d="m240 136h96v16h-96zm0 0" fill="#acabb1"/><path d="m64 40h112v16h-112zm0 0" fill="#acabb1"/><path d="m64 88h112v16h-112zm0 0" fill="#acabb1"/><path d="m64 136h112v16h-112zm0 0" fill="#acabb1"/><path d="m64 184h112v16h-112zm0 0" fill="#acabb1"/><path d="m208 272v8h-152v-16h150.960938c.714843 2.605469 1.0625 5.296875 1.039062 8zm0 0" fill="#754c29"/></svg>