<svg height="465pt" viewBox="-2 0 465 465.04462" width="465pt" xmlns="http://www.w3.org/2000/svg"><path d="m378.902344 254.320312c-3.992188 2.195313-7.65625 4.941407-10.878906 8.160157v-27.761719zm0 0" fill="#ffc477"/><path d="m368.023438 80v272c0 17.671875-14.328126 32-32 32h-304c-7.894532-.007812-15.507813-2.941406-21.359376-8.238281-6.800781-6.019531-10.679687-14.679688-10.6406245-23.761719v-272zm0 0" fill="#78b9eb"/><path d="m368.023438 80v272c0 17.671875-14.328126 32-32 32h-304c-7.894532-.007812-15.507813-2.941406-21.359376-8.238281 107.679688-43.921875 254.957032-131.28125 332.558594-295.761719zm0 0" fill="#5aaae7"/><path d="m459.574219 383.320312-11.632813-20.921874.082032-82.398438-50.402344-90.960938c-6.425782-11.597656-21.039063-15.789062-32.636719-9.359374-11.601563 6.429687-15.789063 21.042968-9.363281 32.640624l23.273437 41.976563c-23.1875 12.851563-31.566406 42.066406-18.710937 65.253906l7.839844 12.097657v20.351562c0 17.671875-14.328126 32-32 32h-104.722657l10.722657 19.359375 66 36.5625 11.640624 21c2.140626 3.867187 7.011719 5.261719 10.878907 3.117187l125.917969-69.839843c3.867187-2.144531 5.261718-7.015625 3.113281-10.878907zm0 0" fill="#ffdaaa"/><path d="m368.023438 32c0-17.671875-14.328126-32-32-32 17.671874 0 32 14.328125 32 32zm0 0" fill="#bddbff"/><path d="m32.023438 0c-17.675782 0-32.0000005 14.328125-32.0000005 32 0-17.671875 14.3242185-32 32.0000005-32zm0 0" fill="#bddbff"/><path d="m368.023438 32c0-17.671875-14.328126-32-32-32h-304c-17.675782 0-32.0000005 14.328125-32.0000005 32v48h368.0000005zm0 0" fill="#ff6243"/><path d="m184.023438 160c-17.675782 0-32 14.328125-32 32v48c0 17.671875 14.324218 32 32 32 17.671874 0 32-14.328125 32-32v-48c0-17.671875-14.328126-32-32-32zm0 0" fill="#ffa733"/><path d="m152.023438 192h24v16h-24zm0 0" fill="#ee8700"/><path d="m152.023438 224h24v16h-24zm0 0" fill="#ee8700"/><path d="m192.023438 192h24v16h-24zm0 0" fill="#ee8700"/><path d="m192.023438 224h24v16h-24zm0 0" fill="#ee8700"/><g fill="#ff9811"><path d="m176.023438 104h16v32h-16zm0 0"/><path d="m218.363281 146.339844 24.003907-24.003906 11.3125 11.316406-24 24zm0 0"/><path d="m114.371094 133.660156 11.3125-11.3125 24 24-11.3125 11.3125zm0 0"/><path d="m240.023438 176h32v16h-32zm0 0"/><path d="m96.023438 176h32v16h-32zm0 0"/></g><path d="m256.023438 240h-16c0 30.929688-25.074219 56-56 56-30.929688 0-56-25.070312-56-56h-16c.050781 36.644531 27.585937 67.417969 64 71.527344v32.472656h-32v16h80v-16h-32v-32.472656c36.410156-4.109375 63.945312-34.882813 64-71.527344zm0 0" fill="#cc7400"/><path d="m48.023438 48c-2.117188-.03125-4.148438-.859375-5.679688-2.320312-1.476562-1.523438-2.304688-3.558594-2.320312-5.679688.011718-1.046875.230468-2.078125.640624-3.039062.386719-.980469.957032-1.875 1.679688-2.640626 1.921875-1.875 4.644531-2.683593 7.277344-2.160156.503906.085938.988281.25 1.441406.480469.511719.175781.996094.417969 1.441406.71875l1.199219.960937c.722656.765626 1.292969 1.660157 1.679687 2.640626.410157.960937.628907 1.992187.640626 3.039062-.03125 2.117188-.859376 4.144531-2.320313 5.679688l-1.199219.960937c-.445312.300781-.929687.542969-1.441406.71875-.453125.230469-.9375.394531-1.441406.480469-.527344.089844-1.0625.144531-1.597656.160156zm0 0" fill="#ffd422"/><path d="m80.023438 48c-3.25.019531-6.191407-1.929688-7.4375-4.933594-1.246094-3-.550782-6.457031 1.757812-8.746094 3.136719-3.136718 8.222656-3.136718 11.359375 0 3.136719 3.136719 3.136719 8.222657 0 11.359376-1.535156 1.460937-3.5625 2.289062-5.679687 2.320312zm0 0" fill="#00ccb3"/><path d="m112.023438 48c-1.046876-.011719-2.078126-.230469-3.039063-.640625-.992187-.367187-1.890625-.9375-2.640625-1.679687-.722656-.765626-1.292969-1.660157-1.679688-2.640626-.855468-1.9375-.855468-4.140624 0-6.078124.40625-.96875.972657-1.863282 1.679688-2.640626.75-.742187 1.648438-1.3125 2.640625-1.679687 1.457031-.640625 3.078125-.808594 4.636719-.480469.503906.085938.988281.25 1.441406.480469.511719.175781.996094.417969 1.441406.71875.417969.296875.820313.617187 1.199219.960937 3.09375 3.15625 3.09375 8.203126 0 11.359376l-1.199219.960937c-.445312.300781-.929687.542969-1.441406.71875-.453125.230469-.9375.394531-1.441406.480469-.527344.09375-1.0625.148437-1.597656.160156zm0 0" fill="#ffa733"/></svg>