<svg height="464pt" viewBox="0 -40 464 464" width="464pt" xmlns="http://www.w3.org/2000/svg"><path d="m448 32v208h-336v-208c0-17.671875 14.328125-32 32-32h272c17.671875 0 32 14.328125 32 32zm0 0" fill="#ffde55"/><path d="m448 32v208h-250.078125c81.199219-52.238281 162.878906-128.878906 212.957031-240h5.121094c17.671875 0 32 14.328125 32 32zm0 0" fill="#ffd422"/><path d="m206 240c1.320312 5.230469 1.992188 10.605469 2 16v32h240c8.824219-.027344 15.972656-7.175781 16-16v-32zm0 0" fill="#acabb1"/><path d="m120 72c-2.386719 2.28125-5.078125 4.222656-8 5.761719-17.742188 8.253906-36.574219 13.945312-55.921875 16.894531-.066406.445312-.09375.894531-.078125 1.34375v32c0 26.507812 21.492188 48 48 48s48-21.492188 48-48v-32c.011719-.3125-.015625-.628906-.078125-.9375-12.941406-3.863281-24.1875-11.992188-31.921875-23.0625zm0 0" fill="#ffdaaa"/><path d="m144 192h-80l40 48zm0 0" fill="#ffdaaa"/><path d="m56 248 8-56c-35.347656 0-64 28.652344-64 64v128h104v-144zm0 0" fill="#3d9ae2"/><path d="m206 240c-7.3125-28.257812-32.808594-47.996094-62-48l8 56-48-8v144h104v-128c-.007812-5.394531-.679688-10.769531-2-16zm0 0" fill="#1e81ce"/><path d="m48 96s3.152344-.457031 8.078125-1.34375c19.347656-2.949219 38.179687-8.640625 55.921875-16.894531 2.921875-1.539063 5.613281-3.480469 8-5.761719 7.734375 11.070312 18.980469 19.199219 31.921875 23.0625 2.648437.613281 5.359375.929688 8.078125.9375-.03125-27.8125-20.472656-51.386719-48-55.359375-2.640625-.457031-5.320312-.667969-8-.640625-30.914062.035156-55.964844 25.085938-56 56zm0 0" fill="#898890"/><path d="m152 248-8-56-40 48zm0 0" fill="#1a6fb0"/><path d="m104 240-40-48-8 56zm0 0" fill="#1e81ce"/><path d="m240 264h80c4.417969 0 8-3.582031 8-8v-16h-96v16c0 4.417969 3.582031 8 8 8zm0 0" fill="#898890"/><path d="m160 272h16v112h-16zm0 0" fill="#1a6fb0"/><path d="m32 272h16v112h-16zm0 0" fill="#1e81ce"/><path d="m192 40h32v16h-32zm0 0" fill="#ff7956"/><path d="m240 40h160v16h-160zm0 0" fill="#ff6243"/><path d="m192 72h88v16h-88zm0 0" fill="#ff6243"/><path d="m296 72h64v16h-64zm0 0" fill="#ff7956"/><path d="m376 72h24v16h-24zm0 0" fill="#ff6243"/><path d="m192 104h48v16h-48zm0 0" fill="#ff7956"/><path d="m256 104h144v16h-144zm0 0" fill="#ff6243"/><path d="m192 136h208v16h-208zm0 0" fill="#ff6243"/><path d="m192 168h208v16h-208zm0 0" fill="#ff7956"/></svg>