<svg height="464pt" viewBox="-96 0 464 464" width="464pt" xmlns="http://www.w3.org/2000/svg"><path d="m243.359375 183.679688c3.007813 4.914062 4.613281 10.558593 4.640625 16.320312.007812 11.847656-6.554688 22.722656-17.039062 28.238281-7.332032-2.800781-15.113282-4.238281-22.960938-4.238281h-144c-7.820312 0-15.578125 1.4375-22.878906 4.238281h-.082032c-10.484374-5.515625-17.046874-16.390625-17.039062-28.238281.027344-5.761719 1.632812-11.40625 4.640625-16.320312-16.890625-1.78125-29.429687-16.472657-28.535156-33.433594.894531-16.960938 14.910156-30.253906 31.894531-30.246094v-16c0-57.4375 46.5625-104 104-104s104 46.5625 104 104v16c16.984375-.007812 31 13.285156 31.894531 30.246094.894531 16.960937-11.644531 31.652344-28.535156 33.433594zm0 0" fill="#e6e7e8"/><path d="m136 272 50-.960938-50 112.960938-50-112.960938zm0 0" fill="#e6e7e8"/><path d="m136 144-16 16h-51.839844c3.546875 10.128906 9.34375 19.320312 16.960938 26.878906 17.457031 17.5 42.675781 24.804688 66.78125 19.347656 24.109375-5.457031 43.722656-22.914062 51.9375-46.226562h-51.839844zm0 0" fill="#ffdaaa"/><path d="m176 224h-80l40 48zm0 0" fill="#ffdaaa"/><path d="m64 120h-8v32c0 4.417969 3.582031 8 8 8h56l16-16 16 16h56c4.417969 0 8-3.582031 8-8v-32zm0 0" fill="#00e7f0"/><path d="m208 97.769531c-5.925781 5.417969-14.191406 7.484375-21.972656 5.484375-7.777344-2-14.023438-7.789062-16.601563-15.398437-.480469 0-.9375.144531-1.425781.144531-5.921875-.015625-11.625-2.238281-16-6.230469-9.046875 8.308594-22.953125 8.308594-32 0-4.375 3.992188-10.078125 6.214844-16 6.230469-.488281 0-.945312-.113281-1.425781-.144531-2.578125 7.609375-8.824219 13.398437-16.601563 15.398437-7.78125 2-16.046875-.066406-21.972656-5.484375v22.230469h144zm0 0" fill="#ffdaaa"/><path d="m154.800781 336.960938-18.800781 47.039062-18.800781-47.039062 10.5625-63.601563.238281-1.359375h16l.238281 1.359375zm0 0" fill="#ff7956"/><path d="m192 112c-11.488281-.035156-22.078125-6.226562-27.742188-16.222656-4.328124-.53125-8.5-1.941406-12.257812-4.144532-9.910156 5.6875-22.089844 5.6875-32 0-3.757812 2.203126-7.929688 3.613282-12.257812 4.144532-7.140626 12.644531-21.917969 18.878906-35.960938 15.171875s-23.8125-16.425781-23.78125-30.949219h16c-.023438 7.800781 5.601562 14.472656 13.296875 15.769531 7.691406 1.296875 15.195313-3.167969 17.726563-10.546875 1.078124-3.417968 4.371093-5.640625 7.945312-5.359375.230469 0 1.101562.105469 1.335938.136719 3.839843-.089844 7.515624-1.570312 10.34375-4.167969 3.042968-2.738281 7.660156-2.738281 10.703124 0 6.085938 5.367188 15.210938 5.367188 21.296876 0 3.042968-2.738281 7.660156-2.738281 10.703124 0 2.914063 2.652344 6.707032 4.136719 10.648438 4.167969.339844-.082031.683594-.128906 1.03125-.136719 3.570312-.273437 6.863281 1.945313 7.945312 5.359375 2.53125 7.378906 10.035157 11.84375 17.726563 10.546875 7.695313-1.296875 13.320313-7.96875 13.296875-15.769531h16c0 17.671875-14.328125 32-32 32zm0 0" fill="#d8d7da"/><path d="m40 304h16v160h-16zm0 0" fill="#1e81ce"/><path d="m216 304h16v160h-16zm0 0" fill="#1a6fb0"/><path d="m208 168h-56c-2.121094 0-4.15625-.84375-5.65625-2.34375l-10.34375-10.34375-10.34375 10.34375c-1.5 1.5-3.535156 2.34375-5.65625 2.34375h-56c-8.835938 0-16-7.164062-16-16v-32c0-4.417969 3.582031-8 8-8h160c4.417969 0 8 3.582031 8 8v32c0 8.835938-7.164062 16-16 16zm-52.6875-16h52.6875v-24h-144v24h52.6875l13.65625-13.65625c3.125-3.121094 8.1875-3.121094 11.3125 0zm0 0" fill="#00ccb3"/><path d="m94 279.039062-4.320312-10.824218 6.320312-44.214844h-32c-7.820312 0-15.578125 1.4375-22.878906 4.238281h-.082032c-24.730468 9.507813-41.0468745 33.265625-41.039062 59.761719v176h136v-80zm0 0" fill="#3d9ae2"/><path d="m136 272-40-48-8 56zm0 0" fill="#1e81ce"/><path d="m230.960938 228.238281c-7.332032-2.800781-15.113282-4.238281-22.960938-4.238281h-32l6.320312 44.214844-4.320312 10.824218-42 104.960938v80h136v-176c.007812-26.496094-16.308594-50.253906-41.039062-59.761719zm0 0" fill="#1e81ce"/><path d="m184 280-8-56-40 48zm0 0" fill="#1a6fb0"/></svg>