<svg height="464pt" viewBox="-8 0 464 464" width="464pt" xmlns="http://www.w3.org/2000/svg"><path d="m32 0h256c17.671875 0 32 14.328125 32 32v352c0 17.671875-14.328125 32-32 32h-256c-17.671875 0-32-14.328125-32-32v-352c0-17.671875 14.328125-32 32-32zm0 0" fill="#e6e7e8"/><path d="m320 62.238281v321.761719c0 17.671875-14.328125 32-32 32h-256c-17.671875 0-32-14.328125-32-32v-29.839844c106.640625-45.761718 245.839844-133.039062 320-291.921875zm0 0" fill="#d8d7da"/><path d="m224 80 24-24 24 24v-80h-48zm0 0" fill="#ff6243"/><path d="m413.679688 356.878906c-2.429688 10.851563-6.734376 21.191406-12.71875 30.5625l20.878906 27.757813-22.640625 22.640625-27.757813-20.878906c-9.371094 5.984374-19.710937 10.289062-30.5625 12.71875l-4.878906 34.320312h-32l-4.878906-34.320312c-10.851563-2.429688-21.191406-6.734376-30.5625-12.71875l-27.757813 20.878906-22.640625-22.640625 20.878906-27.757813c-5.984374-9.371094-10.289062-19.710937-12.71875-30.5625l-34.320312-4.878906v-32l34.320312-4.878906c2.429688-10.851563 6.734376-21.191406 12.71875-30.5625l-20.878906-27.757813 22.640625-22.640625 27.757813 20.878906c9.371094-5.984374 19.710937-10.289062 30.5625-12.71875l4.878906-34.320312h32l4.878906 34.320312c10.851563 2.429688 21.191406 6.734376 30.5625 12.71875l27.757813-20.878906 22.640625 22.640625-20.878906 27.757813c5.984374 9.371094 10.289062 19.710937 12.71875 30.5625l34.320312 4.878906v32zm0 0" fill="#ff9811"/><path d="m376 336c0 30.929688-25.070312 56-56 56s-56-25.070312-56-56 25.070312-56 56-56 56 25.070312 56 56zm0 0" fill="#ffd422"/><path d="m320 400c-35.347656 0-64-28.652344-64-64s28.652344-64 64-64 64 28.652344 64 64c-.039062 35.328125-28.671875 63.960938-64 64zm0-112c-26.507812 0-48 21.492188-48 48s21.492188 48 48 48 48-21.492188 48-48c-.027344-26.5-21.5-47.972656-48-48zm0 0" fill="#ff7956"/><path d="m40 40h32v16h-32zm0 0" fill="#898890"/><path d="m88 40h80v16h-80zm0 0" fill="#c6c5ca"/><path d="m40 72h128v16h-128zm0 0" fill="#898890"/><path d="m40 136h224v16h-224zm0 0" fill="#acabb1"/><path d="m40 184h176v16h-176zm0 0" fill="#c6c5ca"/><path d="m232 184h32v16h-32zm0 0" fill="#898890"/><path d="m40 232h160v16h-160zm0 0" fill="#acabb1"/><path d="m40 296h64v16h-64zm0 0" fill="#898890"/><path d="m40 328h64v16h-64zm0 0" fill="#acabb1"/></svg>