<svg height="465pt" viewBox="-4 0 465 465.03311" width="465pt" xmlns="http://www.w3.org/2000/svg"><path d="m349.117188 200.71875c.035156 4.0625 1.078124 8.046875 3.042968 11.601562l20.398438 36.800782 2.878906 5.199218c-.957031.558594-1.917969 1.121094-2.878906 1.757813-21.144532 13.691406-28.070313 41.421875-15.839844 63.441406l15.839844 24.480469v48c0 8.835938-7.164063 16-16 16h-88.640625l36.640625 31.921875 11.679687 21.039063c1.019531 1.84375 2.734375 3.207031 4.765625 3.777343 2.027344.570313 4.203125.304688 6.035156-.738281l125.917969-69.761719c1.867188-1.015625 3.25-2.742187 3.835938-4.785156.585937-2.046875.328125-4.238281-.714844-6.09375l-11.597656-20.960937.078125-82.398438-50.398438-90.960938c-5.285156-9.628906-16.433594-14.441406-27.066406-11.683593-10.632812 2.757812-18.035156 12.378906-17.976562 23.363281zm0 0" fill="#ffdaaa"/><path d="m4.160156 394.238281 125.917969 69.761719c1.832031 1.042969 4.007813 1.308594 6.035156.738281 2.03125-.570312 3.746094-1.933593 4.765625-3.777343l11.679688-21.039063 36.640625-31.921875h-88.640625c-8.835938 0-16-7.164062-16-16v-48l15.839844-24.480469c6.183593-11.125 7.6875-24.253906 4.175781-36.484375-3.511719-12.234375-11.75-22.566406-22.894531-28.714844l23.277343-42c1.964844-3.554687 3.007813-7.539062 3.042969-11.601562.058594-10.984375-7.34375-20.605469-17.976562-23.363281-10.632813-2.757813-21.78125 2.054687-27.066407 11.683593l-50.398437 90.960938.078125 82.398438-11.597657 20.960937c-1.04296825 1.855469-1.300781 4.046875-.714843 6.09375.585937 2.042969 1.96875 3.769531 3.835937 4.785156zm0 0" fill="#ffdaaa"/><path d="m356.71875 319.519531 15.839844 24.480469v48c-.027344 8.824219-7.175782 15.972656-16 16h-256c-8.824219-.027344-15.972656-7.175781-16-16v-48l15.839844-24.480469c6.183593-11.125 7.6875-24.253906 4.175781-36.484375-3.511719-12.234375-11.75-22.566406-22.894531-28.714844l23.277343-42c1.964844-3.554687 3.007813-7.539062 3.042969-11.601562-.035156-13.035156-10.410156-23.695312-23.441406-24.078125v-160.640625c.027344-8.824219 7.175781-15.9726562 16-16h256c8.824218.0273438 15.972656 7.175781 16 16v160.640625c-13.03125.382813-23.40625 11.042969-23.441406 24.078125.035156 4.0625 1.078124 8.046875 3.042968 11.601562l20.398438 36.800782 2.878906 5.199218c-.957031.558594-1.917969 1.121094-2.878906 1.757813-21.144532 13.691406-28.070313 41.421875-15.839844 63.441406zm0 0" fill="#e6e7e8"/><path d="m356.71875 319.519531 15.839844 24.480469v48c-.027344 8.824219-7.175782 15.972656-16 16h-256c-8.824219-.027344-15.972656-7.175781-16-16v-36.320312c106.398437-54.558594 228.800781-148.960938 288-307.679688v128.640625c-13.03125.382813-23.40625 11.042969-23.441406 24.078125.035156 4.0625 1.078124 8.046875 3.042968 11.601562l20.398438 36.800782 2.878906 5.199218c-.957031.558594-1.917969 1.121094-2.878906 1.757813-21.144532 13.691406-28.070313 41.421875-15.839844 63.441406zm0 0" fill="#d8d7da"/><path d="m132.558594 40h32v16h-32zm0 0" fill="#acabb1"/><path d="m180.558594 40h144v16h-144zm0 0" fill="#c6c5ca"/><path d="m132.558594 72h192v16h-192zm0 0" fill="#c6c5ca"/><path d="m132.558594 104h96v16h-96zm0 0" fill="#c6c5ca"/><path d="m244.558594 104h80v16h-80zm0 0" fill="#acabb1"/><path d="m132.558594 136h192v16h-192zm0 0" fill="#c6c5ca"/><path d="m132.558594 200h96v16h-96zm0 0" fill="#c6c5ca"/><path d="m244.558594 200h80v16h-80zm0 0" fill="#acabb1"/><path d="m132.558594 232h192v16h-192zm0 0" fill="#acabb1"/><path d="m132.558594 328h96v16h-96zm0 0" fill="#acabb1"/><path d="m244.558594 328h80v16h-80zm0 0" fill="#c6c5ca"/><path d="m132.558594 168h64v16h-64zm0 0" fill="#acabb1"/><path d="m212.558594 168h32v16h-32zm0 0" fill="#c6c5ca"/><path d="m260.558594 168h64v16h-64zm0 0" fill="#c6c5ca"/><g fill="#acabb1"><path d="m132.558594 296h120v16h-120zm0 0"/><path d="m268.558594 296h56v16h-56zm0 0"/><path d="m132.558594 264h80v16h-80zm0 0"/><path d="m228.558594 264h32v16h-32zm0 0"/></g><path d="m276.558594 264h48v16h-48zm0 0" fill="#c6c5ca"/></svg>