<svg height="464pt" viewBox="0 0 464 464" width="464pt" xmlns="http://www.w3.org/2000/svg"><path d="m400 136.929688v-104.929688h-32v88.640625c12.171875 1.75 23.421875 7.476563 32 16.289063zm0 0" fill="#754c29"/><path d="m176 0h-144v240h144c17.671875 0 32 14.328125 32 32v-240c0-17.671875-14.328125-32-32-32zm0 0" fill="#d1d3d4"/><path d="m240 0h128v240h-128c-17.671875 0-32 14.328125-32 32v-240c0-17.671875 14.328125-32 32-32zm0 0" fill="#e6e7e8"/><path d="m176 240h-144v64h176v-32c0-17.671875-14.328125-32-32-32zm0 0" fill="#603913"/><path d="m240 240h128v64h-160v-32c0-17.671875 14.328125-32 32-32zm0 0" fill="#603913"/><path d="m312 328 8-56c-35.347656 0-64 28.652344-64 64v128h104v-144zm0 0" fill="#3d9ae2"/><path d="m462 320c-7.3125-28.257812-32.808594-47.996094-62-48l8 56-48-8v144h104v-128c-.007812-5.394531-.679688-10.769531-2-16zm0 0" fill="#1e81ce"/><path d="m400 272h-80l40 48zm0 0" fill="#ffdaaa"/><path d="m368 120.640625c-2.640625-.457031-5.320312-.667969-8-.640625-30.914062.035156-55.964844 25.085938-56 56 0 0 3.152344-.457031 8.078125-1.34375 19.347656-2.949219 38.179687-8.640625 55.921875-16.894531 2.921875-1.539063 5.613281-3.480469 8-5.761719 7.734375 11.070312 18.980469 19.199219 31.921875 23.0625 2.648437.613281 5.359375.929688 8.078125.9375 0-14.617188-5.746094-28.652344-16-39.070312-8.578125-8.8125-19.828125-14.539063-32-16.289063zm0 0" fill="#898890"/><path d="m408 328-8-56-40 48zm0 0" fill="#1a6fb0"/><path d="m360 320-40-48-8 56zm0 0" fill="#1e81ce"/><path d="m32 240v-208h-32v272h32zm0 0" fill="#754c29"/><path d="m80 272v80l24-24 24 24v-80zm0 0" fill="#ff6243"/><path d="m376 152c-2.386719 2.28125-5.078125 4.222656-8 5.761719-17.742188 8.253906-36.574219 13.945312-55.921875 16.894531-.066406.445312-.09375.894531-.078125 1.34375v32c0 26.507812 21.492188 48 48 48s48-21.492188 48-48v-32c.011719-.3125-.015625-.628906-.078125-.9375-12.941406-3.863281-24.1875-11.992188-31.921875-23.0625zm0 0" fill="#ffdaaa"/><path d="m416 352h16v112h-16zm0 0" fill="#1a6fb0"/><path d="m288 352h16v112h-16zm0 0" fill="#1e81ce"/><g fill="#c6c5ca"><path d="m240 40h96v16h-96zm0 0"/><path d="m240 88h96v16h-96zm0 0"/><path d="m240 136h48v16h-48zm0 0"/><path d="m240 184h48v16h-48zm0 0"/></g><path d="m64 40h112v16h-112zm0 0" fill="#acabb1"/><path d="m64 88h112v16h-112zm0 0" fill="#acabb1"/><path d="m64 136h112v16h-112zm0 0" fill="#acabb1"/><path d="m64 184h112v16h-112zm0 0" fill="#acabb1"/><path d="m56 264h200v16h-200zm0 0" fill="#45290e"/></svg>