<svg height="464pt" viewBox="-56 0 464 464" width="464pt" xmlns="http://www.w3.org/2000/svg"><path d="m32 0h288c17.671875 0 32 14.328125 32 32v400c0 17.671875-14.328125 32-32 32h-288c-17.671875 0-32-14.328125-32-32v-400c0-17.671875 14.328125-32 32-32zm0 0" fill="#e6e7e8"/><path d="m280 56 24 24v-80h-48v80zm0 0" fill="#ff6243"/><path d="m176 200v40h56v-56c0-17.671875-14.328125-32-32-32h-8l16 40zm0 0" fill="#1e81ce"/><path d="m176 200-32-8 16-40h-8c-17.671875 0-32 14.328125-32 32v56h56zm0 0" fill="#3d9ae2"/><path d="m192 152h-32l16 48zm0 0" fill="#ffdaaa"/><path d="m176 200-16-48-16 40zm0 0" fill="#1e81ce"/><path d="m208 192-16-40-16 48zm0 0" fill="#1a6fb0"/><path d="m176 48c17.671875 0 32 14.328125 32 32v24c0 17.671875-14.328125 32-32 32s-32-14.328125-32-32v-24c0-17.671875 14.328125-32 32-32zm0 0" fill="#ffdaaa"/><path d="m216 88c0-22.089844-17.910156-40-40-40s-40 17.910156-40 40c0 0 40-8 48-16 0 0 16 16 32 16zm0 0" fill="#898890"/><path d="m352 80v352c0 17.671875-14.328125 32-32 32h-288c-17.671875 0-32-14.328125-32-32v-15.121094c116.320312-47.039062 280.398438-144.878906 352-336.878906zm0 0" fill="#d8d7da"/><path d="m112 264h32v16h-32zm0 0" fill="#acabb1"/><path d="m160 264h80v16h-80zm0 0" fill="#c6c5ca"/><g fill="#acabb1"><path d="m112 296h128v16h-128zm0 0"/><path d="m56 344h144v16h-144zm0 0"/><path d="m216 344h32v16h-32zm0 0"/></g><path d="m264 344h32v16h-32zm0 0" fill="#c6c5ca"/><path d="m56 376h240v16h-240zm0 0" fill="#acabb1"/><path d="m56 408h96v16h-96zm0 0" fill="#c6c5ca"/><path d="m168 408h48v16h-48zm0 0" fill="#acabb1"/><path d="m232 408h64v16h-64zm0 0" fill="#acabb1"/></svg>