<svg height="464pt" viewBox="0 0 464 464.33505" width="464pt" xmlns="http://www.w3.org/2000/svg"><path d="m.167969 112h416v240h-384c-17.671875 0-32-14.328125-32-32zm0 0" fill="#ffde55"/><path d="m416.167969 64c0-17.671875-14.328125-32-32-32h-352c-17.671875 0-32 14.328125-32 32v48h416zm0 0" fill="#ffa733"/><path d="m208.167969 64c8.835937 0 16-7.164062 16-16v-32c0-8.835938-7.164063-16-16-16-8.835938 0-16 7.164062-16 16v32c0 8.835938 7.164062 16 16 16zm0 0" fill="#ff6243"/><path d="m320.167969 64c8.835937 0 16-7.164062 16-16v-32c0-8.835938-7.164063-16-16-16-8.835938 0-16 7.164062-16 16v32c0 8.835938 7.164062 16 16 16zm0 0" fill="#ff6243"/><path d="m96.167969 64c8.835937 0 16-7.164062 16-16v-32c0-8.835938-7.164063-16-16-16-8.835938 0-16 7.164062-16 16v32c0 8.835938 7.164062 16 16 16zm0 0" fill="#ff6243"/><path d="m192.167969 184c0 13.253906-10.746094 24-24 24-13.253907 0-24-10.746094-24-24s10.746093-24 24-24c13.253906 0 24 10.746094 24 24zm0 0" fill="#78b9eb"/><path d="m272.167969 184c0 13.253906-10.746094 24-24 24-13.253907 0-24-10.746094-24-24s10.746093-24 24-24c13.253906 0 24 10.746094 24 24zm0 0" fill="#ff6243"/><path d="m352.167969 184c0 13.253906-10.746094 24-24 24-13.253907 0-24-10.746094-24-24s10.746093-24 24-24c13.253906 0 24 10.746094 24 24zm0 0" fill="#78b9eb"/><path d="m112.167969 184c0 13.253906-10.746094 24-24 24-13.253907 0-24-10.746094-24-24s10.746093-24 24-24c13.253906 0 24 10.746094 24 24zm0 0" fill="#78b9eb"/><path d="m192.167969 264c0 13.253906-10.746094 24-24 24-13.253907 0-24-10.746094-24-24s10.746093-24 24-24c13.253906 0 24 10.746094 24 24zm0 0" fill="#78b9eb"/><path d="m272.167969 264c0 13.253906-10.746094 24-24 24-13.253907 0-24-10.746094-24-24s10.746093-24 24-24c13.253906 0 24 10.746094 24 24zm0 0" fill="#78b9eb"/><path d="m112.167969 264c0 13.253906-10.746094 24-24 24-13.253907 0-24-10.746094-24-24s10.746093-24 24-24c13.253906 0 24 10.746094 24 24zm0 0" fill="#78b9eb"/><g fill="#ff9811"><path d="m168.167969 216c-17.671875 0-32-14.328125-32-32s14.328125-32 32-32 32 14.328125 32 32-14.328125 32-32 32zm0-48c-8.835938 0-16 7.164062-16 16s7.164062 16 16 16c8.835937 0 16-7.164062 16-16s-7.164063-16-16-16zm0 0"/><path d="m248.167969 216c-17.671875 0-32-14.328125-32-32s14.328125-32 32-32 32 14.328125 32 32-14.328125 32-32 32zm0-48c-8.835938 0-16 7.164062-16 16s7.164062 16 16 16c8.835937 0 16-7.164062 16-16s-7.164063-16-16-16zm0 0"/><path d="m328.167969 216c-17.671875 0-32-14.328125-32-32s14.328125-32 32-32 32 14.328125 32 32-14.328125 32-32 32zm0-48c-8.835938 0-16 7.164062-16 16s7.164062 16 16 16c8.835937 0 16-7.164062 16-16s-7.164063-16-16-16zm0 0"/><path d="m88.167969 216c-17.671875 0-32-14.328125-32-32s14.328125-32 32-32 32 14.328125 32 32-14.328125 32-32 32zm0-48c-8.835938 0-16 7.164062-16 16s7.164062 16 16 16c8.835937 0 16-7.164062 16-16s-7.164063-16-16-16zm0 0"/><path d="m168.167969 296c-17.671875 0-32-14.328125-32-32s14.328125-32 32-32 32 14.328125 32 32-14.328125 32-32 32zm0-48c-8.835938 0-16 7.164062-16 16s7.164062 16 16 16c8.835937 0 16-7.164062 16-16s-7.164063-16-16-16zm0 0"/><path d="m248.167969 296c-17.671875 0-32-14.328125-32-32s14.328125-32 32-32 32 14.328125 32 32-14.328125 32-32 32zm0-48c-8.835938 0-16 7.164062-16 16s7.164062 16 16 16c8.835937 0 16-7.164062 16-16s-7.164063-16-16-16zm0 0"/><path d="m88.167969 296c-17.671875 0-32-14.328125-32-32s14.328125-32 32-32 32 14.328125 32 32-14.328125 32-32 32zm0-48c-8.835938 0-16 7.164062-16 16s7.164062 16 16 16c8.835937 0 16-7.164062 16-16s-7.164063-16-16-16zm0 0"/></g><path d="m464.167969 352c.078125 53.804688-38.058594 100.085938-90.882813 110.296875-52.828125 10.210937-105.464844-18.53125-125.4375-68.492187-19.972656-49.957032-1.660156-107.0625 43.648438-136.085938 45.304687-29.023438 104.835937-21.789062 141.871094 17.242188 19.777343 20.773437 30.804687 48.359374 30.800781 77.039062zm0 0" fill="#00e7f0"/><path d="m464.167969 352c-.054688 47.027344-29.484375 89.011719-73.671875 105.105469s-93.722656 2.871093-124.007813-33.105469c53.199219-24.320312 125.597657-70 166.878907-149.039062 19.8125 20.75 30.84375 48.347656 30.800781 77.039062zm0 0" fill="#00d7df"/><path d="m332.398438 376.375c-16.070313 1.855469-28.203126 15.449219-28.230469 31.625v45.078125c14.984375 7.175781 31.386719 10.90625 48 10.921875v-48zm0 0" fill="#3d9ae2"/><path d="m371.933594 376.375c-1.246094-.199219-2.503906-.324219-3.765625-.375h-32c-1.261719.050781-2.519531.175781-3.769531.375l19.769531 39.625zm0 0" fill="#ffdaaa"/><path d="m371.933594 376.375-19.765625 39.625v48c16.613281-.015625 33.015625-3.746094 48-10.921875v-45.078125c-.027344-16.175781-12.164063-29.769531-28.234375-31.625zm0 0" fill="#1e81ce"/><path d="m352.167969 272c17.671875 0 32 14.328125 32 32v24c0 17.671875-14.328125 32-32 32s-32-14.328125-32-32v-24c0-17.671875 14.328125-32 32-32zm0 0" fill="#ffdaaa"/><path d="m352.167969 272c-22.082031.027344-39.972657 17.917969-40 40 0 0 40-8 48-16 0 0 16 16 32 16-.027344-22.082031-17.921875-39.972656-40-40zm0 0" fill="#898890"/></svg>