<svg height="464pt" viewBox="0 0 464 464" width="464pt" xmlns="http://www.w3.org/2000/svg"><path d="m296 32 16-24h-80v48h80zm0 0" fill="#ff6243"/><path d="m224 0h16v112h-16zm0 0" fill="#787680"/><path d="m152 176v288h160v-288zm0 0" fill="#898890"/><path d="m152 216h-120l-32 64h152zm0 0" fill="#ff7956"/><path d="m312 280h152v184h-152zm0 0" fill="#787680"/><path d="m0 280h152v184h-152zm0 0" fill="#787680"/><path d="m312 216v64h152l-32-64zm0 0" fill="#ff7956"/><path d="m328 176-96-80-96 80zm0 0" fill="#ff7956"/><g fill="#ffc477"><path d="m344 312h32v32h-32zm0 0"/><path d="m400 312h32v32h-32zm0 0"/><path d="m344 368h32v32h-32zm0 0"/><path d="m400 368h32v32h-32zm0 0"/><path d="m88 312h32v32h-32zm0 0"/><path d="m32 312h32v32h-32zm0 0"/><path d="m88 368h32v32h-32zm0 0"/><path d="m32 368h32v32h-32zm0 0"/></g><path d="m264 240c0 17.671875-14.328125 32-32 32s-32-14.328125-32-32 14.328125-32 32-32 32 14.328125 32 32zm0 0" fill="#ffb655"/><path d="m280 384h8v-32h-112v32zm0 0" fill="#787680"/><path d="m232 384h48v80h-48zm0 0" fill="#d1d3d4"/><path d="m184 384h48v80h-48zm0 0" fill="#e6e7e8"/><path d="m152 176h160v16h-160zm0 0" fill="#787680"/><path d="m0 280h152v16h-152zm0 0" fill="#57565c"/><path d="m312 280h152v16h-152zm0 0" fill="#57565c"/></svg>