<svg height="472pt" viewBox="-4 0 472 472.80633" width="472pt" xmlns="http://www.w3.org/2000/svg"><path d="m384.402344 336c-56 0-64-16-112-16-27.5-.394531-54.765625 5.058594-80 16-.300782 50.675781 27.601562 97.316406 72.394531 121.015625 44.792969 23.703125 99.046875 20.53125 140.773437-8.222656 41.730469-28.757813 64.007813-78.328125 57.808594-128.625-25.050781 10.34375-51.875 15.71875-78.976562 15.832031zm0 0" fill="#ffb655"/><path d="m384.402344 336c27.101562-.113281 53.925781-5.488281 78.976562-15.832031-6.265625-53.503907-43.507812-98.269531-94.976562-114.167969v-78h-80v78c-57.058594 17.574219-95.992188 70.296875-96 130 25.234375-10.941406 52.5-16.394531 80-16 48 0 56 16 112 16zm0 0" fill="#f1f2f2"/><path d="m24.402344 144h80v264c0 22.089844-17.90625 40-40 40-22.089844 0-40-17.910156-40-40zm0 0" fill="#ffd422"/><path d="m24.402344 40v117.601562c13.320312 0 13.320312 4.796876 26.640625 4.796876 13.320312 0 13.335937-4.796876 26.679687-4.796876s13.335938 4.796876 26.679688 4.796876v-122.398438zm0 0" fill="#f1f2f2"/><g fill="#e6e7e8"><path d="m184.402344 216c8.835937 0 16-7.164062 16-16s-7.164063-16-16-16h-96c-8.835938 0-16 7.164062-16 16s7.164062 16 16 16zm0 0"/><path d="m112.402344 40c8.835937 0 16-7.164062 16-16s-7.164063-16-16-16h-96c-8.835938 0-16 7.164062-16 16s7.164062 16 16 16zm0 0"/><path d="m392.402344 112c0-8.835938-7.164063-16-16-16h-96c-8.835938 0-16 7.164062-16 16s7.164062 16 16 16h96c8.835937 0 16-7.164062 16-16zm0 0"/></g><path d="m384.402344 280c0 8.835938-7.164063 16-16 16-8.835938 0-16-7.164062-16-16s7.164062-16 16-16c8.835937 0 16 7.164062 16 16zm0 0" fill="#ffb655"/><path d="m176.402344 128c0 8.835938-7.164063 16-16 16-8.835938 0-16-7.164062-16-16s7.164062-16 16-16c8.835937 0 16 7.164062 16 16zm0 0" fill="#00d7df"/><path d="m262.292969 421.976562-27.671875-40.59375c-18.390625-8.09375-38.140625-12.632812-58.21875-13.382812-32 0-48 16-80 16-17.820313-.230469-35.324219-4.730469-51.046875-13.128906l-34.839844 51.105468c-6.679687 9.800782-7.394531 22.492188-1.851563 32.976563 5.542969 10.484375 16.429688 17.046875 28.292969 17.046875h198.894531c11.859376 0 22.746094-6.5625 28.289063-17.046875s4.832031-23.175781-1.847656-32.976563zm0 0" fill="#00d7df"/><path d="m176.402344 368c20.078125.75 39.828125 5.289062 58.21875 13.382812l-58.21875-85.382812v-80h-80v80l-51.046875 74.871094c15.722656 8.398437 33.226562 12.898437 51.046875 13.128906 32 0 48-16 80-16zm0 0" fill="#f1f2f2"/><path d="m24.402344 40h80v16h-80zm0 0" fill="#d1d3d4"/><path d="m96.402344 216h80v16h-80zm0 0" fill="#d1d3d4"/><path d="m288.402344 128h80v16h-80zm0 0" fill="#d1d3d4"/><path d="m288.402344 264c-2.117188-.03125-4.144532-.859375-5.679688-2.320312-.707031-.777344-1.273437-1.671876-1.679687-2.640626-.449219-.949218-.667969-1.988281-.640625-3.039062 0-4.417969 3.582031-8 8-8 4.417968 0 8 3.582031 8 8s-3.582032 8-8 8zm0 0" fill="#ffa733"/><path d="m304.402344 384c-3.769532-.039062-6.992188-2.730469-7.699219-6.433594s1.292969-7.390625 4.785156-8.816406c3.488281-1.425781 7.503907-.195312 9.589844 2.945312 2.085937 3.140626 1.671875 7.316407-.996094 9.984376-1.53125 1.460937-3.5625 2.289062-5.679687 2.320312zm0 0" fill="#ffa733"/><path d="m384.402344 416c-.535156-.015625-1.070313-.070312-1.597656-.160156-.503907-.085938-.988282-.25-1.441407-.480469-.511719-.175781-1-.417969-1.449219-.71875l-1.191406-.960937c-.707031-.777344-1.273437-1.671876-1.679687-2.640626-.410157-.960937-.628907-1.992187-.640625-3.039062-.019532-3.25 1.929687-6.1875 4.933594-7.433594 3-1.246094 6.457031-.554687 8.746093 1.753906l.960938 1.199219c.300781.449219.542969.933594.71875 1.441407.234375.449218.394531.9375.472656 1.4375.101563.53125.15625 1.066406.167969 1.601562-.011719 1.046875-.230469 2.078125-.640625 3.039062-.40625.96875-.972657 1.863282-1.679688 2.640626l-1.199219.960937c-.445312.300781-.929687.542969-1.441406.71875-.453125.230469-.9375.390625-1.4375.480469-.53125.09375-1.0625.144531-1.601562.160156zm0 0" fill="#ffa733"/><path d="m152.402344 344c-.535156-.015625-1.070313-.070312-1.597656-.160156-.503907-.085938-.988282-.25-1.441407-.480469-.511719-.175781-1-.417969-1.449219-.71875l-1.191406-.960937c-3.09375-3.15625-3.09375-8.203126 0-11.359376 1.890625-1.875 4.589844-2.683593 7.199219-2.160156.535156.074219 1.050781.238282 1.527344.480469.511719.175781.996093.417969 1.441406.71875l1.199219.960937c3.09375 3.15625 3.09375 8.203126 0 11.359376l-1.199219.960937c-.445313.300781-.929687.542969-1.441406.71875-.476563.242187-.992188.40625-1.527344.480469-.5.09375-1.007813.148437-1.519531.160156zm0 0" fill="#00d7df"/><path d="m128.402344 296c-.535156-.015625-1.070313-.070312-1.597656-.160156-.503907-.085938-.988282-.25-1.441407-.480469-.511719-.175781-1-.417969-1.449219-.71875l-1.191406-.960937c-1.464844-1.53125-2.292968-3.5625-2.320312-5.679688-.027344-1.050781.191406-2.089844.640625-3.039062.40625-.96875.972656-1.863282 1.679687-2.640626.378906-.34375.777344-.664062 1.191406-.960937.449219-.300781.9375-.542969 1.449219-.71875.453125-.230469.9375-.394531 1.441407-.480469 1.023437-.238281 2.085937-.238281 3.109374 0 .535157.074219 1.050782.238282 1.527344.480469.511719.175781.996094.417969 1.441406.71875.417969.296875.820313.617187 1.199219.960937.707031.777344 1.273438 1.671876 1.679688 2.640626.410156.960937.628906 1.992187.640625 3.039062-.03125 2.117188-.859375 4.144531-2.320313 5.679688l-1.199219.960937c-.445312.300781-.929687.542969-1.441406.71875-.476562.242187-.992187.40625-1.527344.480469-.496093.09375-1.003906.148437-1.511718.160156zm0 0" fill="#00d7df"/><path d="m72.402344 288c-2.117188-.03125-4.144532-.859375-5.679688-2.320312-.707031-.777344-1.273437-1.671876-1.679687-2.640626-.449219-.949218-.667969-1.988281-.640625-3.039062 0-4.417969 3.582031-8 8-8 4.417968 0 8 3.582031 8 8s-3.582032 8-8 8zm0 0" fill="#e6bf1f"/><path d="m48.402344 240c-.535156-.011719-1.070313-.066406-1.597656-.160156-.503907-.085938-.988282-.25-1.441407-.480469-.511719-.175781-1-.417969-1.449219-.71875l-1.191406-.960937c-3.09375-3.15625-3.09375-8.203126 0-11.359376 3.175782-2.960937 8.101563-2.960937 11.28125 0 .773438.738282 1.375 1.640626 1.757813 2.640626.410156.960937.628906 1.992187.640625 3.039062-.03125 4.40625-3.59375 7.96875-8 8zm0 0" fill="#e6bf1f"/><path d="m360.402344 72h-16v-16c0-13.253906 10.746094-24 24-24h32c4.417968 0 8-3.582031 8-8h16c0 13.253906-10.746094 24-24 24h-32c-4.417969 0-8 3.582031-8 8zm0 0" fill="#acabb1"/><path d="m312.402344 48h-16v-16c0-13.253906 10.746094-24 24-24h32c4.417968 0 8-3.582031 8-8h16c0 13.253906-10.746094 24-24 24h-32c-4.417969 0-8 3.582031-8 8zm0 0" fill="#acabb1"/><path d="m72.402344 80h32v16h-32zm0 0" fill="#c6c5ca"/><path d="m72.402344 127.785156h32v16h-32zm0 0" fill="#c6c5ca"/></svg>