<svg height="464pt" viewBox="0 0 464 464" width="464pt" xmlns="http://www.w3.org/2000/svg"><path d="m64 344h48c35.347656 0 64 28.652344 64 64v56h-176v-56c0-35.347656 28.652344-64 64-64zm0 0" fill="#0b7"/><path d="m352 344h48c35.347656 0 64 28.652344 64 64v56h-176v-56c0-35.347656 28.652344-64 64-64zm0 0" fill="#ff7956"/><g fill="#ffdaaa"><path d="m48.078125 271.046875c-.0625.3125-.089844.632813-.078125.953125v16c0 22.089844 17.910156 40 40 40s40-17.910156 40-40v-16c.011719-.371094-.011719-.738281-.078125-1.105469-11.304687-3.398437-22.058594-8.414062-31.921875-14.894531-8.800781 8.800781-34.648438 13.265625-47.921875 15.046875zm0 0"/><path d="m248 208c-12.246094 12.246094-47.855469 19.792969-63.921875 22.664062-.066406.441407-.09375.890626-.078125 1.335938v32c0 26.507812 21.492188 48 48 48s48-21.492188 48-48v-32c.011719-.3125-.015625-.628906-.078125-.9375-12.941406-3.863281-24.1875-11.992188-31.921875-23.0625zm0 0"/><path d="m376 392 24-48h-48zm0 0"/><path d="m112 344h-48l24 48zm0 0"/><path d="m336.078125 271.046875c-.0625.3125-.089844.632813-.078125.953125v16c0 22.089844 17.910156 40 40 40s40-17.910156 40-40v-16c.011719-.371094-.011719-.738281-.078125-1.105469-11.304687-3.398437-22.058594-8.414062-31.921875-14.894531-8.800781 8.800781-34.648438 13.265625-47.921875 15.046875zm0 0"/><path d="m272 328h-80l40 48zm0 0"/></g><path d="m184 384 8-56c-35.347656 0-64 28.652344-64 64v72h104v-88zm0 0" fill="#3d9ae2"/><path d="m272 328 8 56-48-8v88h104v-72c0-35.347656-28.652344-64-64-64zm0 0" fill="#1e81ce"/><path d="m232 176c-30.914062.035156-55.964844 25.085938-56 56 0 0 3.152344-.457031 8.078125-1.335938 16.066406-2.871093 51.675781-10.398437 63.921875-22.664062 7.734375 11.070312 18.980469 19.199219 31.921875 23.0625 2.648437.613281 5.359375.929688 8.078125.9375-.035156-30.914062-25.085938-55.964844-56-56zm0 0" fill="#898890"/><path d="m280 384-8-56-40 48zm0 0" fill="#1a6fb0"/><path d="m232 376-40-48-8 56zm0 0" fill="#1e81ce"/><path d="m120 400-8-56-24 48zm0 0" fill="#00665a"/><path d="m88 392-24-48-8 56zm0 0" fill="#00665a"/><path d="m344 400 32-8-24-48zm0 0" fill="#ff6243"/><path d="m408 400-8-56-24 48zm0 0" fill="#ff6243"/><path d="m376 224c-26.5.027344-47.972656 21.5-48 48 0 0 3.199219-.304688 8.078125-.953125 13.273437-1.78125 39.121094-6.246094 47.921875-15.046875 9.863281 6.480469 20.617188 11.496094 31.921875 14.894531 2.640625.679688 5.351563 1.050781 8.078125 1.105469-.027344-26.5-21.5-47.972656-48-48zm0 0" fill="#898890"/><path d="m88 224c-26.5.027344-47.972656 21.5-48 48 0 0 3.199219-.304688 8.078125-.953125 13.273437-1.78125 39.121094-6.246094 47.921875-15.046875 9.863281 6.480469 20.617188 11.496094 31.921875 14.894531 2.640625.679688 5.351563 1.050781 8.078125 1.105469-.027344-26.5-21.5-47.972656-48-48zm0 0" fill="#898890"/><path d="m448 0h-432c-8.835938 0-16 7.164062-16 16v64c0 8.835938 7.164062 16 16 16h56l16 48 16-48h112l16 48 16-48h112l16 48 16-48h56c8.835938 0 16-7.164062 16-16v-64c0-8.835938-7.164062-16-16-16zm0 0" fill="#00ccb3"/><path d="m288 408h16v56h-16zm0 0" fill="#1a6fb0"/><path d="m160 408h16v56h-16zm0 0" fill="#1e81ce"/><path d="m24 424h16v40h-16zm0 0" fill="#00a468"/><path d="m424 424h16v40h-16zm0 0" fill="#ff5023"/><path d="m40 24h384v16h-384zm0 0" fill="#ffb655"/><path d="m40 56h384v16h-384zm0 0" fill="#ffb655"/></svg>