<svg height="464pt" viewBox="0 -60 464 464" width="464pt" xmlns="http://www.w3.org/2000/svg"><path d="m64 168h48c35.347656 0 64 28.652344 64 64v112h-176v-112c0-35.347656 28.652344-64 64-64zm0 0" fill="#f072ae"/><path d="m464 344v-112c0-35.347656-28.652344-64-64-64h-48c-35.347656 0-64 28.652344-64 64v112" fill="#00ddc2"/><g fill="#ffdaaa"><path d="m112 168h-48l24 48zm0 0"/><path d="m248 32c-12.246094 12.246094-47.855469 19.792969-63.921875 22.664062-.066406.441407-.09375.890626-.078125 1.335938v32c0 26.507812 21.492188 48 48 48s48-21.492188 48-48v-32c.011719-.3125-.015625-.628906-.078125-.9375-12.941406-3.863281-24.1875-11.992188-31.921875-23.0625zm0 0"/><path d="m336.078125 95.046875c-.0625.3125-.089844.632813-.078125.953125v16c0 22.089844 17.910156 40 40 40s40-17.910156 40-40v-16c.011719-.371094-.011719-.738281-.078125-1.105469-11.304687-3.398437-22.058594-8.414062-31.921875-14.894531-8.800781 8.800781-34.648438 13.265625-47.921875 15.046875zm0 0"/><path d="m376 216 24-48h-48zm0 0"/></g><path d="m272 152 8 56-48-8v144h104v-128c0-35.347656-28.652344-64-64-64zm0 0" fill="#1e81ce"/><path d="m184 208 8-56c-35.347656 0-64 28.652344-64 64v128h104v-144zm0 0" fill="#3d9ae2"/><path d="m272 152h-80l40 48zm0 0" fill="#ffdaaa"/><path d="m184.078125 54.640625c16.066406-2.871094 51.675781-10.402344 63.921875-22.664063 7.734375 11.070313 18.980469 19.199219 31.921875 23.0625 2.648437.621094 5.355469.945313 8.078125.960938 0-30.929688-25.070312-56-56-56s-56 25.070312-56 56c0 0 3.152344-.457031 8.078125-1.335938zm0 0" fill="#898890"/><path d="m280 208-8-56-40 48zm0 0" fill="#1a6fb0"/><path d="m232 200-40-48-8 56zm0 0" fill="#1e81ce"/><path d="m120 224-8-56-24 48zm0 0" fill="#ed539d"/><path d="m88 216-24-48-8 56zm0 0" fill="#ed539d"/><path d="m344 224 32-8-24-48zm0 0" fill="#0b7"/><path d="m408 224-8-56-24 48zm0 0" fill="#0b7"/><path d="m144 96v56h-112v-56c0-30.929688 25.070312-56 56-56s56 25.070312 56 56zm0 0" fill="#a78966"/><path d="m120 120v-32h-64v32c0 17.671875 14.328125 32 32 32s32-14.328125 32-32zm0 0" fill="#ffdaaa"/><path d="m336.078125 95.039062c13.273437-1.773437 39.121094-6.238281 47.921875-15.039062 9.863281 6.480469 20.617188 11.496094 31.921875 14.894531 2.640625.679688 5.351563 1.050781 8.078125 1.105469 0-26.507812-21.492188-48-48-48s-48 21.492188-48 48c0 0 3.199219-.304688 8.078125-.953125zm0 0" fill="#898890"/><path d="m288 232h16v112h-16zm0 0" fill="#1a6fb0"/><path d="m160 232h16v112h-16zm0 0" fill="#1e81ce"/><path d="m24 248h16v96h-16zm0 0" fill="#ed539d"/><path d="m424 248h16v96h-16zm0 0" fill="#00ccb3"/></svg>