<svg height="464pt" viewBox="0 0 464 464" width="464pt" xmlns="http://www.w3.org/2000/svg"><path d="m296 32 16-24h-80v48h80zm0 0" fill="#ff6243"/><path d="m224 0h16v160h-16zm0 0" fill="#787680"/><path d="m224 464-66.71875-190.558594-5.226562-14.929687-16.054688 21.488281-23.921875-32-24.078125 32-16.070312-21.511719-71.929688 205.511719zm0 0" fill="#57565c"/><path d="m112.078125 248 23.921875 32 16.054688-21.488281-40.054688-114.511719-40.070312 114.488281 16.070312 21.511719zm0 0" fill="#e6e7e8"/><path d="m392.070312 258.488281-16.070312 21.511719-23.921875-32-24.078125 32-16.054688-21.488281-5.226562 14.929687-66.71875 190.558594h224zm0 0" fill="#57565c"/><path d="m352.078125 248 23.921875 32 16.070312-21.511719-40.070312-114.488281-40.054688 114.511719 16.054688 21.488281zm0 0" fill="#e6e7e8"/><path d="m224 464h-136l69.28125-190.558594zm0 0" fill="#3e3d42"/><path d="m376 464h-136l66.71875-190.558594zm0 0" fill="#3e3d42"/><path d="m232 216 24 32 18.664062-18.664062-42.664062-117.335938-42.664062 117.335938 18.664062 18.664062zm0 0" fill="#e6e7e8"/><path d="m360 464-85.335938-234.664062-18.664062 18.664062-24-32-24 32-18.664062-18.664062-85.335938 234.664062zm0 0" fill="#787680"/></svg>