<svg height="472pt" viewBox="-56 0 472 472" width="472pt" xmlns="http://www.w3.org/2000/svg"><path d="m304 0h-40v16h40c4.417969 0 8 3.582031 8 8v64c0 4.417969-3.582031 8-8 8h-40v16h40c13.238281-.039062 23.960938-10.761719 24-24v-64c-.039062-13.238281-10.761719-23.9609375-24-24zm0 0" fill="#ee8700"/><path d="m48 16h40v-16h-40c-13.238281.0390625-23.960938 10.761719-24 24v64c.039062 13.238281 10.761719 23.960938 24 24h40v-16h-40c-4.417969 0-8-3.582031-8-8v-64c0-4.417969 3.582031-8 8-8zm0 0" fill="#ee8700"/><path d="m24 464h16v-48h-16c-8.835938 0-16 7.164062-16 16v16c0 8.835938 7.164062 16 16 16zm0 0" fill="#1e81ce"/><path d="m352 376v-16c0-8.835938-7.164062-16-16-16h-16v48h16c8.835938 0 16-7.164062 16-16zm0 0" fill="#00ccb3"/><path d="m80 144c0 17.671875 14.328125 32 32 32h128c17.671875 0 32-14.328125 32-32v-144h-192zm0 0" fill="#ffb655"/><path d="m160 176h32v80h-32zm0 0" fill="#ffa733"/><path d="m80 288v32h192v-32zm0 0" fill="#ee8700"/><path d="m112 256v32h128v-32zm0 0" fill="#ff9811"/><path d="m40 344h280v48h-280zm0 0" fill="#00ddc2"/><path d="m40 416h280v48h-280zm0 0" fill="#78b9eb"/><path d="m160 176h32v16h-32zm0 0" fill="#ff9811"/><path d="m64 432h256v16h-256zm0 0" fill="#1e81ce"/><path d="m328 424v-16h-304c-13.253906 0-24 10.746094-24 24v16c0 13.253906 10.746094 24 24 24h304v-16h-280v-32zm-296 32h-8c-4.417969 0-8-3.582031-8-8v-16c0-4.417969 3.582031-8 8-8h8zm0 0" fill="#1a6fb0"/><path d="m40 360h256v16h-256zm0 0" fill="#00b39d"/><path d="m336 336h-304v16h280v32h-280v16h304c13.253906 0 24-10.746094 24-24v-16c0-13.253906-10.746094-24-24-24zm8 40c0 4.417969-3.582031 8-8 8h-8v-32h8c4.417969 0 8 3.582031 8 8zm0 0" fill="#00665a"/></svg>