<svg height="464pt" viewBox="0 0 464 464" width="464pt" xmlns="http://www.w3.org/2000/svg"><path d="m8 32h448v328h-448zm0 0" fill="#ffc477"/><path d="m456 70.71875v289.28125h-346.238281c105.679687-39.761719 261.597656-123.679688 346.238281-289.28125zm0 0" fill="#ffb655"/><path d="m120 152c-12.246094 12.246094-47.855469 19.792969-63.921875 22.664062-.066406.441407-.09375.890626-.078125 1.335938v32c0 26.507812 21.492188 48 48 48s48-21.492188 48-48v-32c.011719-.3125-.015625-.628906-.078125-.9375-12.941406-3.863281-24.1875-11.992188-31.921875-23.0625zm0 0" fill="#ffdaaa"/><path d="m104 120c-30.914062.035156-55.964844 25.085938-56 56 0 0 3.152344-.457031 8.078125-1.335938 16.066406-2.871093 51.675781-10.398437 63.921875-22.664062 7.734375 11.070312 18.980469 19.199219 31.921875 23.0625 2.648437.613281 5.359375.929688 8.078125.9375-.035156-30.914062-25.085938-55.964844-56-56zm0 0" fill="#898890"/><path d="m104 320v144h64v-152h104c8.835938 0 16-7.164062 16-16v-96h-40v72h-104l8 56zm0 0" fill="#1e81ce"/><path d="m144 272h-80l40 48zm0 0" fill="#ffdaaa"/><path d="m56 328 8-56c-35.347656 0-64 28.652344-64 64v128h104v-144zm0 0" fill="#3d9ae2"/><path d="m152 328-8-56-40 48zm0 0" fill="#1a6fb0"/><path d="m104 320-40-48-8 56zm0 0" fill="#1e81ce"/><path d="m464 0h-464v32h464zm0 0" fill="#ff9811"/><path d="m344 64c-36.207031 0-67.902344 24.320312-77.273438 59.292969-9.375 34.976562 5.914063 71.886719 37.273438 89.988281 31.355469 18.105469 70.964844 12.890625 96.566406-12.714844l-56.566406-56.566406zm0 0" fill="#ffd422"/><path d="m344 64v80l56.566406 56.566406c22.882813-22.878906 29.726563-57.289062 17.34375-87.179687-12.382812-29.894531-41.554687-49.386719-73.910156-49.386719zm0 0" fill="#00ccb3"/><path d="m8 32h448v16h-448zm0 0" fill="#ffb655"/><path d="m32 352h16v112h-16zm0 0" fill="#1e81ce"/><path d="m210.34375 210.347656 120-119.996094 11.3125 11.3125-120 120zm0 0" fill="#898890"/><path d="m360 288h-24c-4.417969 0-8-3.582031-8-8v-80h16v72h16zm0 0" fill="#ff6243"/><path d="m376 272h48v16h-48zm0 0" fill="#1e81ce"/><path d="m376 304h48v16h-48zm0 0" fill="#1e81ce"/><path d="m290.34375 109.65625-29.65625-29.65625h-20.6875v-16h24c2.121094 0 4.15625.84375 5.65625 2.34375l32 32zm0 0" fill="#ff6243"/><path d="m168 64h48v16h-48zm0 0" fill="#00ccb3"/><path d="m168 96h48v16h-48zm0 0" fill="#00ccb3"/><path d="m288 168h-40v32h40zm0 0" fill="#ffdaaa"/></svg>