<svg height="464pt" viewBox="0 0 464 464" width="464pt" xmlns="http://www.w3.org/2000/svg"><path d="m464 368c0 17.671875-14.328125 32-32 32h-336v-336h304v272h32c17.671875 0 32 14.328125 32 32zm0 0" fill="#e6e7e8"/><path d="m464 368c0 17.671875-14.328125 32-32 32h-329.121094c102.960938-48.160156 228.160156-134 297.121094-281.761719v217.761719h32c17.671875 0 32 14.328125 32 32zm0 0" fill="#d8d7da"/><path d="m432 16h-32v320h32c17.671875 0 32 14.328125 32 32v-320c0-17.671875-14.328125-32-32-32zm0 0" fill="#bcbec0"/><path d="m88 0h-80c-4.417969 0-8 3.582031-8 8v448c0 4.417969 3.582031 8 8 8h80c4.417969 0 8-3.582031 8-8v-448c0-4.417969-3.582031-8-8-8zm0 0" fill="#3d9ae2"/><path d="m168 112h-32v216l32-16zm0 0" fill="#00ccb3"/><path d="m168 312 32 16v-216h-32zm0 0" fill="#0b7"/><path d="m136 328 16 48h32l16-48-32-16zm0 0" fill="#ffb655"/><path d="m152 376v32c0 8.835938 7.164062 16 16 16s16-7.164062 16-16v-32zm0 0" fill="#898890"/><path d="m136 112h64v-24h-64zm0 0" fill="#ffb655"/><path d="m200 88v-32c0-17.671875-14.328125-32-32-32s-32 14.328125-32 32v32zm0 0" fill="#f1f2f2"/><g fill="#1e81ce"><path d="m48 224h48v16h-48zm0 0"/><path d="m64 176h32v16h-32zm0 0"/><path d="m64 128h32v16h-32zm0 0"/><path d="m64 80h32v16h-32zm0 0"/><path d="m64 32h32v16h-32zm0 0"/><path d="m64 272h32v16h-32zm0 0"/><path d="m64 320h32v16h-32zm0 0"/><path d="m64 368h32v16h-32zm0 0"/><path d="m64 416h32v16h-32zm0 0"/></g><path d="m232 104h96v16h-96zm0 0" fill="#898890"/><path d="m344 104h32v16h-32zm0 0" fill="#c6c5ca"/><path d="m232 136h32v16h-32zm0 0" fill="#c6c5ca"/><path d="m280 136h96v16h-96zm0 0" fill="#898890"/><path d="m232 168h144v16h-144zm0 0" fill="#c6c5ca"/><path d="m232 200h80v16h-80zm0 0" fill="#898890"/><path d="m328 200h48v16h-48zm0 0" fill="#c6c5ca"/><path d="m232 232h144v16h-144zm0 0" fill="#c6c5ca"/><path d="m232 264h144v16h-144zm0 0" fill="#898890"/><path d="m232 296h48v16h-48zm0 0" fill="#c6c5ca"/><path d="m296 296h32v16h-32zm0 0" fill="#898890"/><path d="m344 296h32v16h-32zm0 0" fill="#c6c5ca"/><path d="m232 328h144v16h-144zm0 0" fill="#c6c5ca"/></svg>