<svg height="464pt" viewBox="0 -11 464 463" width="464pt" xmlns="http://www.w3.org/2000/svg"><path d="m464 16.5v256h-464v-256c.0273438-8.824219 7.175781-15.972656 16-16h432c8.824219.027344 15.972656 7.175781 16 16zm0 0" fill="#78b9eb"/><path d="m464 16.5v256h-353.121094c100.640625-47.121094 222.5625-130.160156 292.402344-272h44.71875c8.824219.027344 15.972656 7.175781 16 16zm0 0" fill="#5aaae7"/><path d="m0 272.5v48c.0273438 8.824219 7.175781 15.972656 16 16h432c8.824219-.027344 15.972656-7.175781 16-16v-48zm0 0" fill="#acabb1"/><path d="m304 400.5h-144l8-64h128zm0 0" fill="#898890"/><path d="m144 400.5v32h176v-32zm0 0" fill="#787680"/><path d="m160 56.5c-17.671875 0-32 14.328125-32 32v48c0 17.671875 14.328125 32 32 32s32-14.328125 32-32v-48c0-17.671875-14.328125-32-32-32zm0 0" fill="#ffa733"/><path d="m387.769531 136.875c-1.25-.199219-2.507812-.324219-3.769531-.375h-32c-1.261719.050781-2.519531.175781-3.769531.375l19.769531 39.625zm0 0" fill="#ffdaaa"/><path d="m387.769531 136.875-19.769531 39.625v64h48v-72c-.03125-16.175781-12.164062-29.765625-28.230469-31.625zm0 0" fill="#1e81ce"/><path d="m348.230469 136.875c-16.066407 1.859375-28.199219 15.449219-28.230469 31.625v72h48v-64zm0 0" fill="#3d9ae2"/><path d="m368 32.5c17.671875 0 32 14.328125 32 32v24c0 17.671875-14.328125 32-32 32s-32-14.328125-32-32v-24c0-17.671875 14.328125-32 32-32zm0 0" fill="#ffdaaa"/><path d="m408 72.5c0-22.089844-17.910156-40-40-40s-40 17.910156-40 40c0 0 40-8 48-16 0 0 16 16 32 16zm0 0" fill="#898890"/><path d="m298 352.5h-132l2-16h128zm0 0" fill="#787680"/><path d="m392 296.5h32v16h-32zm0 0" fill="#787680"/><path d="m104 424.5h256v16h-256zm0 0" fill="#57565c"/><g fill="#ee8700"><path d="m128 88.5h24v16h-24zm0 0"/><path d="m128 120.5h24v16h-24zm0 0"/><path d="m168 88.5h24v16h-24zm0 0"/><path d="m168 120.5h24v16h-24zm0 0"/></g><path d="m40 24.5h32v16h-32zm0 0" fill="#ffa733"/><path d="m40 56.5h32v16h-32zm0 0" fill="#ffa733"/><path d="m106.34375 62.15625-5.65625-5.65625h-12.6875v-16h16c2.121094 0 4.15625.84375 5.65625 2.34375l8 8zm0 0" fill="#ff6243"/><path d="m256 40.5h32v16h-32zm0 0" fill="#00ccb3"/><path d="m256 72.5h32v16h-32zm0 0" fill="#00ccb3"/><path d="m221.65625 78.15625-11.3125-11.3125 8-8c1.5-1.5 3.535156-2.34375 5.65625-2.34375h16v16h-12.6875zm0 0" fill="#ff6243"/><path d="m232 136.5h-16c0 30.929688-25.070312 56-56 56s-56-25.070312-56-56h-16c.054688 36.644531 27.585938 67.417969 64 71.527344v24.472656h-40v16h96v-16h-40v-24.472656c36.414062-4.109375 63.945312-34.882813 64-71.527344zm0 0" fill="#cc7400"/></svg>