<svg height="464pt" viewBox="0 -16 464 464" width="464pt" xmlns="http://www.w3.org/2000/svg"><path d="m448 128v256h-432v-256c0-17.671875 14.328125-32 32-32h368c8.492188-.015625 16.640625 3.351562 22.644531 9.355469 6.003907 6.003906 9.371094 14.152343 9.355469 22.644531zm0 0" fill="#78b9eb"/><path d="m464 384v32c-.027344 8.824219-7.175781 15.972656-16 16h-432c-8.824219-.027344-15.9726562-7.175781-16-16v-32zm0 0" fill="#acabb1"/><path d="m184 400c0 4.417969 3.582031 8 8 8h80c4.417969 0 8-3.582031 8-8v-16h-96zm0 0" fill="#898890"/><path d="m328 0h-80c-44.183594 0-80 35.816406-80 80v16c0 44.183594 35.816406 80 80 80h24v56l56-56c44.183594 0 80-35.816406 80-80v-16c0-44.183594-35.816406-80-80-80zm0 0" fill="#00ccb3"/><path d="m64 192v80h88l40 40v-120zm0 0" fill="#ffd422"/><path d="m448 128v256h-368.480469c101.199219-34.71875 265.679688-113.839844 358.71875-279.039062 6.242188 6.039062 9.761719 14.355468 9.761719 23.039062zm0 0" fill="#5aaae7"/><path d="m0 400h80v16h-80zm0 0" fill="#898890"/><path d="m384 400h80v16h-80zm0 0" fill="#898890"/><g fill="#ffa733"><path d="m216 48h144v16h-144zm0 0"/><path d="m216 80h144v16h-144zm0 0"/><path d="m216 112h144v16h-144zm0 0"/></g><path d="m88 224h16v16h-16zm0 0" fill="#ff6243"/><path d="m120 224h16v16h-16zm0 0" fill="#ff6243"/><path d="m152 224h16v16h-16zm0 0" fill="#ff6243"/><path d="m240 264h32v16h-32zm0 0" fill="#ffb655"/><path d="m288 264h80v16h-80zm0 0" fill="#ffc477"/><path d="m240 296h128v16h-128zm0 0" fill="#ffb655"/><path d="m240 328h128v16h-128zm0 0" fill="#ffc477"/></svg>