<svg height="464pt" viewBox="0 0 464.00003 464" width="464pt" xmlns="http://www.w3.org/2000/svg"><path d="m464 394.878906v61.121094c0 4.417969-3.582031 8-8 8h-448c-4.417969 0-8-3.582031-8-8v-61.121094c-.00390625-1.867187.648438-3.679687 1.839844-5.117187l57.039062-69.761719 13.121094-16h320l13.121094 16 57.039062 69.761719c1.191406 1.4375 1.84375 3.25 1.839844 5.117187zm0 0" fill="#acabb1"/><path d="m7.992188 392h448.015624c4.414063 0 7.992188 3.578125 7.992188 7.992188v56.015624c0 4.414063-3.578125 7.992188-7.992188 7.992188h-448.015624c-4.414063 0-7.992188-3.578125-7.992188-7.992188v-56.015624c0-4.414063 3.578125-7.992188 7.992188-7.992188zm0 0" fill="#898890"/><path d="m400 0c-17.640625.078125-31.921875 14.359375-32 32v224h-272v-224c0-17.671875 14.328125-32 32-32zm0 0" fill="#e6e7e8"/><g fill="#3e3d42"><path d="m48 400h32v32h-32zm0 0"/><path d="m104 344h32v32h-32zm0 0"/><path d="m104 400h32v32h-32zm0 0"/><path d="m160 344h32v32h-32zm0 0"/><path d="m160 400h32v32h-32zm0 0"/><path d="m216 344h32v32h-32zm0 0"/><path d="m216 400h32v32h-32zm0 0"/><path d="m272 344h32v32h-32zm0 0"/><path d="m272 400h32v32h-32zm0 0"/><path d="m328 344h32v32h-32zm0 0"/><path d="m328 400h32v32h-32zm0 0"/><path d="m384 400h32v32h-32zm0 0"/></g><path d="m32 248c0-4.417969-3.582031-8-8-8h-16c-4.417969 0-8 3.582031-8 8v64c0 4.417969 3.582031 8 8 8h16c4.417969 0 8-3.582031 8-8zm0 0" fill="#57565c"/><path d="m424 304c4.417969 0 8-3.582031 8-8v-32c0-4.417969-3.582031-8-8-8h-392v48zm0 0" fill="#787680"/><path d="m368 32v32h64v-32c0-17.671875-14.328125-32-32-32s-32 14.328125-32 32zm0 0" fill="#d1d3d4"/><path d="m368 40.320312v215.679688h-272v-5.839844c86.640625-37.121094 194.71875-101.761718 272-209.839844zm0 0" fill="#d8d7da"/><path d="m400 0c-2.097656.0078125-4.1875.222656-6.238281.640625.160156-.242187.316406-.402344.316406-.640625zm0 0" fill="#5aaae7"/><path d="m405.121094 320h-346.242188l13.121094-16h320zm0 0" fill="#898890"/><path d="m136 72h96v16h-96zm0 0" fill="#acabb1"/><path d="m248 72h80v16h-80zm0 0" fill="#898890"/><path d="m136 104h192v16h-192zm0 0" fill="#acabb1"/><path d="m136 40h64v16h-64zm0 0" fill="#898890"/><path d="m216 40h32v16h-32zm0 0" fill="#acabb1"/><path d="m264 40h64v16h-64zm0 0" fill="#acabb1"/><path d="m136 168h120v16h-120zm0 0" fill="#c6c5ca"/><path d="m272 168h56v16h-56zm0 0" fill="#898890"/><path d="m136 136h80v16h-80zm0 0" fill="#acabb1"/><path d="m232 136h32v16h-32zm0 0" fill="#898890"/><path d="m280 136h48v16h-48zm0 0" fill="#c6c5ca"/><path d="m136 200h192v16h-192zm0 0" fill="#acabb1"/></svg>